<?xml version="1.0" encoding="UTF-8" standalone="no"?>
<!-- Created with Inkscape (http://www.inkscape.org/) -->

<svg
   xmlns:dc="http://purl.org/dc/elements/1.1/"
   xmlns:cc="http://creativecommons.org/ns#"
   xmlns:rdf="http://www.w3.org/1999/02/22-rdf-syntax-ns#"
   xmlns:svg="http://www.w3.org/2000/svg"
   xmlns="http://www.w3.org/2000/svg"
   xmlns:sodipodi="http://sodipodi.sourceforge.net/DTD/sodipodi-0.dtd"
   xmlns:inkscape="http://www.inkscape.org/namespaces/inkscape"
   width="207.23831mm"
   height="60.286648mm"
   viewBox="0 0 734.30898 213.61411"
   id="svg18438"
   version="1.1"
   inkscape:version="0.91 r13725"
   sodipodi:docname="cosine_squared_theta_minus_one.svg">
  <defs
     id="defs18440" />
  <sodipodi:namedview
     id="base"
     pagecolor="#ffffff"
     bordercolor="#666666"
     borderopacity="1.0"
     inkscape:pageopacity="0.0"
     inkscape:pageshadow="2"
     inkscape:zoom="0.7"
     inkscape:cx="-64.017656"
     inkscape:cy="338.20193"
     inkscape:document-units="px"
     inkscape:current-layer="layer1"
     showgrid="false"
     fit-margin-top="0"
     fit-margin-left="0"
     fit-margin-right="0"
     fit-margin-bottom="0"
     inkscape:window-width="1920"
     inkscape:window-height="1043"
     inkscape:window-x="0"
     inkscape:window-y="0"
     inkscape:window-maximized="1" />
  <metadata
     id="metadata18443">
    <rdf:RDF>
      <cc:Work
         rdf:about="">
        <dc:format>image/svg+xml</dc:format>
        <dc:type
           rdf:resource="http://purl.org/dc/dcmitype/StillImage" />
        <dc:title></dc:title>
      </cc:Work>
    </rdf:RDF>
  </metadata>
  <g
     inkscape:label="Layer 1"
     inkscape:groupmode="layer"
     id="layer1"
     transform="translate(26.075932,-75.906109)">
    <path
       d="m 58.233031,182.69581 649.999999,0"
       style="fill:none;stroke:#000000;stroke-width:1"
       id="path17"
       inkscape:connector-curvature="0" />
    <path
       d="m 58.334551,183.20089 -0.35152,-100.505084 1,0.01 2,0.1 2,0.21 2,0.32 2,0.43 2,0.54 2,0.66 2,0.76 2,0.87 2,0.97 2,1.08 1.85,1.1 1.7,1.07 1.57,1.07 1.48,1.05 1.4,1.05 1.34,1.04 1.28,1.04 1.23,1.04 1.19,1.03 1.15,1.03 1.12,1.030004 1.09,1.03 1.06,1.02 1.04,1.02 1.01,1.02 0.99,1.02 0.979999,1.02 0.95,1.02 0.94,1.02 0.92,1.01 0.91,1.02 0.9,1.01 0.88,1.02 0.87,1.01 0.86,1.01 0.85,1.01 0.84,1.01 0.83,1.01 0.82,1.01 0.81,1.01 0.81,1.01 0.8,1.01 0.79,1.01 0.78,1.01 0.78,1.01 0.77,1 0.77,1.01 0.76,1.01 0.75,1 0.75,1.01 0.75,1.01 0.74,1 0.74,1.01 0.73,1 0.73,1.01 0.73,1 0.72,1.01 0.72,1 0.72,1 0.71,1.01 0.72,1 0.71,1 0.7,1.01 0.71,1 0.7,1 0.7,1.01 0.7,1 0.7,1 0.7,1 0.69,1 0.7,1 0.69,1.01 0.69,1 0.69,1 0.69,1 0.69,1 0.69,1 0.69,1 0.69,1 0.69,1 0.69,1 0.69,1 0.69,1 0.7,1 0.69,1 0.69,0.99 0.69,1 0.7,1 0.69,1 0.7,1 0.7,1 0.7,0.99 0.7,1 0.7,1 0.7,0.99 0.71,1 0.71,1 0.71,0.99 0.72,1 0.71,1 0.72,0.99 0.72,1 0.73,0.99 0.73,1 0.73,0.99 0.74,1 0.74,0.99 0.75,1 0.75,0.99 0.75,0.99 0.76,1 0.76,0.99 0.77,0.99 0.78,0.99 0.78,1 0.79,0.99 0.79,0.99 0.81,0.99 0.81,0.99 0.81,0.99 0.83,0.99 0.84,0.99 0.84,0.99 0.85,0.98 0.87,0.99 0.88,0.99 0.88,0.98 0.9,0.99 0.92,0.98 0.92,0.99 0.95,0.98 0.96,0.98 0.97,0.98 1,0.98 1.02,0.98 1.04,0.98 1.06,0.98 1.09,0.97 1.11,0.97 1.15,0.97 1.18,0.97 1.23,0.97 1.26,0.96 1.32,0.96 1.37,0.95 1.43,0.96 1.51,0.94 1.6,0.94 1.71,0.92 1.84,0.92 2,0.89 2,0.78 2,0.68 2,0.57 2,0.45 2,0.35 2,0.23 2,0.12 2,0.01 2,-0.1 2,-0.22 2,-0.32 2,-0.44 2,-0.55 2,-0.66 2,-0.76 2,-0.88 2,-0.98 2,-1.08 1.84,-1.09 1.69,-1.08 1.57,-1.06 1.48,-1.06 1.4,-1.05 1.33,-1.04 1.28,-1.04 1.23,-1.03 1.19,-1.04 1.15,-1.03 1.11,-1.02 1.09,-1.03 1.06,-1.02 1.04,-1.03 1.01,-1.02 0.99,-1.02 0.97,-1.02 0.96,-1.01 0.93,-1.02 0.93,-1.02 0.9,-1.01 0.9,-1.02 0.88,-1.01 0.87,-1.01 0.86,-1.01 0.85,-1.02 0.84,-1.01 0.83,-1.01 0.82,-1.01 0.81,-1.01 0.81,-1.01 0.79,-1.01 0.79,-1 0.79,-1.01 0.78,-1.01 0.77,-1.01 0.76,-1 0.76,-1.01 0.76,-1.01 0.75,-1 0.75,-1.01 0.74,-1.01 0.74,-1 0.73,-1.01 0.73,-1 0.73,-1.01 0.72,-1 0.72,-1 0.72,-1.01 0.71,-1 0.71,-1 0.71,-1.01 0.71,-1 0.7,-1 0.71,-1.01 0.7,-1 0.7,-1 0.69,-1 0.7,-1 0.7,-1.01 0.69,-1 0.69,-1 0.7,-1 0.69,-1 0.69,-1 0.69,-1 0.69,-1 0.69,-1 0.69,-1 0.69,-1 0.69,-1 0.69,-1 0.69,-1 0.69,-1 0.69,-1 0.69,-1 0.7,-1 0.69,-0.99 0.7,-1 0.69,-1 0.7,-1 0.7,-1 0.7,-0.99 0.7,-1 0.71,-1 0.71,-0.99 0.71,-1 0.71,-1 0.71,-0.99 0.72,-1 0.72,-1 0.72,-0.99 0.73,-1 0.73,-0.99 0.73,-1 0.74,-0.99 0.74,-1 0.74,-0.99 0.75,-0.99 0.76,-1 0.76,-0.99 0.76,-0.99 0.77,-0.99 0.78,-1 0.78,-0.99 0.79,-0.99 0.79,-0.99 0.81,-0.99 0.81,-0.99 0.81,-0.99 0.83,-0.99 0.84,-0.99 0.84,-0.99 0.86,-0.99 0.86,-0.98 0.88,-0.99 0.89,-0.99 0.9,-0.98 0.91,-0.99 0.93,-0.98 0.94,-0.98 0.96,-0.99 0.98,-0.98 1,-0.98 1.02,-0.97 1.04,-0.98 1.06,-0.980004 1.09,-0.97 1.12,-0.97 1.15,-0.98 1.18,-0.96 1.22,-0.97 1.27,-0.96 1.32,-0.96 1.37,-0.96 1.44,-0.95 1.51,-0.94 1.61,-0.94 1.71,-0.92 1.85,-0.92 2,-0.88 2,-0.78 2,-0.67 2,-0.57 2,-0.45 2,-0.34 2,-0.23 2,-0.11 2,-0.01 2,0.11 2,0.22 2,0.33 2,0.44 2,0.55 2,0.67 2,0.77 2,0.87 2,0.99 2,1.09 1.83,1.09 1.69,1.07 1.56,1.07 1.47,1.05 1.4,1.05 1.33,1.04 1.28,1.04 1.23,1.04 1.18,1.03 1.15,1.03 1.12,1.030004 1.08,1.02 1.06,1.03 1.04,1.02 1.01,1.02 0.99,1.02 0.97,1.02 0.95,1.02 0.94,1.01 0.92,1.02 0.91,1.01 0.89,1.02 0.88,1.01 0.87,1.02 0.86,1.01 0.85,1.01 0.84,1.01 0.83,1.01 0.82,1.01 0.81,1.01 0.81,1.01 0.79,1.01 0.79,1.01 0.79,1.01 0.77,1 0.78,1.01 0.76,1.01 0.76,1 0.76,1.01 0.75,1.01 0.74,1 0.74,1.01 0.74,1 0.73,1.01 0.73,1 0.73,1.01 0.72,1 0.72,1.01 0.72,1 0.72,1 0.71,1.01 0.71,1 0.7,1 0.71,1.01 0.7,1 0.7,1 0.7,1 0.7,1.01 0.7,1 0.69,1 0.7,1 0.69,1 0.69,1 0.69,1 0.69,1 0.69,1 0.69,1.01 0.69,1 0.69,1 0.69,1 0.69,0.99 0.69,1 0.69,1 0.69,1 0.7,1 0.69,1 0.69,1 0.7,1 0.69,1 0.7,0.99 0.7,1 0.69,1 0.71,1 0.7,0.99 0.7,1 0.71,1 0.71,0.99 0.71,1 0.72,1 0.71,0.99 0.72,1 0.73,0.99 0.72,1 0.73,0.99 0.74,1 0.73,0.99 0.74,1 0.75,0.99 0.75,1 0.75,0.99 0.76,0.99 0.77,0.99 0.77,1 0.78,0.99 0.78,0.99 0.79,0.99 0.79,0.99 0.81,0.99 0.81,0.99 0.82,0.99 0.82,0.99 0.84,0.99 0.84,0.99 0.86,0.99 0.86,0.99 0.88,0.98 0.89,0.99 0.9,0.98 0.92,0.99 0.92,0.98 0.95,0.99 0.96,0.98 0.98,0.98 1,0.98 1.01,0.98 1.04,0.97 1.07,0.98 1.09,0.97 1.12,0.98 1.15,0.97 1.19,0.97 1.22,0.96 1.27,0.96 1.32,0.96 1.38,0.96 1.44,0.95 1.51,0.94 1.61,0.94 1.72,0.92 1.85,0.92 2,0.88 2,0.77 2,0.67 2,0.56 2,0.44 2,0.34 2,0.22 2,0.12 2,0 2,-0.12 2,-0.22 2,-0.34 2,-0.44 2,-0.56 2,-0.67 2,-0.77 2,-0.88 2,-0.99 2,-1.1 1.83,-1.09 1.68,-1.07 1.56,-1.06 1.47,-1.06 1.39,-1.05 1.33,-1.04 1.28,-1.04 1.22,-1.03 1.19,-1.04 1.14,-1.03 1.12,-1.02 1.08,-1.03 1.06,-1.02 1.03,-1.02 1.01,-1.03 0.99,-1.02 0.97,-1.01 0.96,-1.02 0.93,-1.02 0.93,-1.01 0.9,-1.02 0.9,-1.01 0.88,-1.02 0.87,-1.01 0.85,-1.01 0.85,-1.01 0.84,-1.01 0.83,-1.01 0.82,-1.01 0.81,-1.01 0.81,-1.01 0.79,-1.01 0.79,-1.01 0.79,-1.01 0.77,-1.01 0.77,-1 0.77,-1.01 0.76,-1.01 0.75,-1 0.75,-1.01 0.75,-1.01 0.74,-1 0.74,-1.01 0.73,-1 0.73,-1.01 0.73,-1 0.72,-1.01 0.72,-1 0.72,-1 0.71,-1.01 0.71,-1 0.71,-1 0.71,-1.01 0.7,-1 0.71,-1 0.7,-1 0.7,-1.01 0.69,-1 0.7,-1 0.7,-1 0.69,-1 0.69,-1 0.7,-1.01 0.69,-1 0.69,-1 0.69,-1 0.69,-1 0.69,-1 0.69,-1 0.69,-1 0.69,-1 0.69,-1 0.69,-1 0.69,-1 0.69,-0.99 0.69,-1 0.7,-1 0.69,-1 0.7,-1 0.69,-1 0.7,-0.99 0.7,-1 0.7,-1 0.7,-1 0.71,-0.99 0.71,-1 0.71,-1 0.71,-0.99 0.71,-1 0.72,-1 0.72,-0.99 0.72,-1 0.73,-0.99 0.73,-1 0.73,-0.99 0.74,-1 0.74,-0.99 0.75,-0.99 0.75,-1 0.75,-0.99 0.76,-0.99 0.77,-1 0.77,-0.99 0.77,-0.99 0.79,-0.99 0.79,-1 0.79,-0.99 0.81,-0.99 0.81,-0.99 0.82,-0.99 0.82,-0.99 0.84,-0.99 0.84,-0.98 0.86,-0.99 0.87,-0.99 0.87,-0.99 0.89,-0.98 0.9,-0.99 0.92,-0.98 0.93,-0.98 0.95,-0.99 0.96,-0.98 0.98,-0.98 0.99,-0.98 1.02,-0.98 1.05,-0.98 1.06,-0.970004 1.09,-0.98 1.12,-0.97 1.16,-0.97 1.18,-0.97 1.23,-0.96 1.27,-0.96 1.32,-0.96 1.38,-0.96 1.45,-0.95 1.52,-0.94 1.61,-0.94 1.72,-0.92 1.86,-0.91 2,-0.88 2,-0.77 2,-0.67 2,-0.55 2,-0.44 2,-0.33 2,-0.22 2,-0.11"
       style="fill:none;stroke:#000000;stroke-width:1"
       id="path59"
       inkscape:connector-curvature="0"
       sodipodi:nodetypes="cccccccccccccccccccccccccccccccccccccccccccccccccccccccccccccccccccccccccccccccccccccccccccccccccccccccccccccccccccccccccccccccccccccccccccccccccccccccccccccccccccccccccccccccccccccccccccccccccccccccccccccccccccccccccccccccccccccccccccccccccccccccccccccccccccccccccccccccccccccccccccccccccccccccccccccccccccccccccccccccccccccccccccccccccccccccccccccccccccccccccccccccccccccccccccccccccccccccccccccccccccccccccccccccccccccccccccccccccccccccccccccccccccccccccccccccccccccccccccccccccccccccccccccccccccccccccccccccccccccccccccccccccccccccccccccccccccccccccccccccccccccccccccccccccccccccccccccccccccccccccccccccccccccccccccccccccccccccccccccc" />
    <path
       style="fill:none;fill-rule:evenodd;stroke:#000000;stroke-width:1px;stroke-linecap:butt;stroke-linejoin:miter;stroke-opacity:1"
       d="m 157.17676,177.29544 c 0,10.74917 0,10.74917 0,10.74917"
       id="path17604"
       inkscape:connector-curvature="0" />
    <path
       style="fill:none;fill-rule:evenodd;stroke:#000000;stroke-width:1px;stroke-linecap:butt;stroke-linejoin:miter;stroke-opacity:1"
       d="m 218.60479,177.29544 c 0,10.74917 0,10.74917 0,10.74917"
       id="path17604-0"
       inkscape:connector-curvature="0" />
    <path
       style="fill:none;fill-rule:evenodd;stroke:#000000;stroke-width:1px;stroke-linecap:butt;stroke-linejoin:miter;stroke-opacity:1"
       d="m 382.64308,177.29544 c 0,10.74917 0,10.74917 0,10.74917"
       id="path17604-3"
       inkscape:connector-curvature="0" />
    <path
       style="fill:none;fill-rule:evenodd;stroke:#000000;stroke-width:1px;stroke-linecap:butt;stroke-linejoin:miter;stroke-opacity:1"
       d="m 546.6814,177.29544 c 0,10.74917 0,10.74917 0,10.74917"
       id="path17604-6"
       inkscape:connector-curvature="0" />
    <text
       xml:space="preserve"
       style="font-style:normal;font-variant:normal;font-weight:normal;font-stretch:normal;font-size:17.5px;line-height:125%;font-family:'TeX Gyre Pagella';-inkscape-font-specification:'TeX Gyre Pagella';letter-spacing:0px;word-spacing:0px;fill:#000000;fill-opacity:1;stroke:none;stroke-width:1px;stroke-linecap:butt;stroke-linejoin:miter;stroke-opacity:1"
       x="145.14914"
       y="162.14169"
       id="text17663"
       sodipodi:linespacing="125%"><tspan
         sodipodi:role="line"
         id="tspan17665"
         x="145.14914"
         y="162.14169">54.7°</tspan></text>
    <text
       xml:space="preserve"
       style="font-style:normal;font-variant:normal;font-weight:normal;font-stretch:normal;font-size:17.5px;line-height:125%;font-family:'TeX Gyre Pagella';-inkscape-font-specification:'TeX Gyre Pagella';letter-spacing:0px;word-spacing:0px;fill:#000000;fill-opacity:1;stroke:none;stroke-width:1px;stroke-linecap:butt;stroke-linejoin:miter;stroke-opacity:1"
       x="205.85394"
       y="162.14169"
       id="text17663-1"
       sodipodi:linespacing="125%"><tspan
         sodipodi:role="line"
         id="tspan17665-3"
         x="205.85394"
         y="162.14169">90°</tspan></text>
    <text
       xml:space="preserve"
       style="font-style:normal;font-variant:normal;font-weight:normal;font-stretch:normal;font-size:17.5px;line-height:125%;font-family:'TeX Gyre Pagella';-inkscape-font-specification:'TeX Gyre Pagella';letter-spacing:0px;word-spacing:0px;fill:#000000;fill-opacity:1;stroke:none;stroke-width:1px;stroke-linecap:butt;stroke-linejoin:miter;stroke-opacity:1"
       x="365.38461"
       y="162.14169"
       id="text17663-1-1"
       sodipodi:linespacing="125%"><tspan
         sodipodi:role="line"
         x="365.38461"
         y="162.14169"
         id="tspan17703">180°</tspan></text>
    <text
       xml:space="preserve"
       style="font-style:normal;font-variant:normal;font-weight:normal;font-stretch:normal;font-size:17.5px;line-height:125%;font-family:'TeX Gyre Pagella';-inkscape-font-specification:'TeX Gyre Pagella';letter-spacing:0px;word-spacing:0px;fill:#000000;fill-opacity:1;stroke:none;stroke-width:1px;stroke-linecap:butt;stroke-linejoin:miter;stroke-opacity:1"
       x="530.02533"
       y="162.14169"
       id="text17663-1-1-4"
       sodipodi:linespacing="125%"><tspan
         sodipodi:role="line"
         x="530.02533"
         y="162.14169"
         id="tspan17703-5">270°</tspan></text>
    <text
       xml:space="preserve"
       style="font-style:normal;font-variant:normal;font-weight:normal;font-stretch:normal;font-size:40px;line-height:125%;font-family:'TeX Gyre Pagella';-inkscape-font-specification:'TeX Gyre Pagella';letter-spacing:0px;word-spacing:0px;fill:#000000;fill-opacity:1;stroke:none;stroke-width:1px;stroke-linecap:butt;stroke-linejoin:miter;stroke-opacity:1"
       x="375.03641"
       y="233.16222"
       id="text17663-1-1-1"
       sodipodi:linespacing="125%"><tspan
         sodipodi:role="line"
         id="tspan17763"
         x="375.03641"
         y="233.16222">θ</tspan></text>
    <text
       xml:space="preserve"
       style="font-style:normal;font-variant:normal;font-weight:normal;font-stretch:normal;font-size:40px;line-height:125%;font-family:'TeX Gyre Pagella';-inkscape-font-specification:'TeX Gyre Pagella';letter-spacing:0px;word-spacing:0px;fill:#000000;fill-opacity:1;stroke:none;stroke-width:1px;stroke-linecap:butt;stroke-linejoin:miter;stroke-opacity:1"
       x="-27.115932"
       y="173.95758"
       id="text17663-1-1-1-4"
       sodipodi:linespacing="125%"><tspan
         sodipodi:role="line"
         id="tspan19041"
         x="-27.115932"
         y="173.95758">B<tspan
   style="font-size:64.99999762%;baseline-shift:sub"
   id="tspan19043">μz</tspan></tspan></text>
    <path
       d="m 58.109879,75.906109 0,213.614101"
       style="fill:none;stroke:#000000;stroke-width:1;stroke-miterlimit:4;stroke-dasharray:none"
       id="path17-7"
       inkscape:connector-curvature="0" />
    <text
       xml:space="preserve"
       style="font-style:normal;font-variant:normal;font-weight:normal;font-stretch:normal;font-size:17.5px;line-height:125%;font-family:'TeX Gyre Pagella';-inkscape-font-specification:'TeX Gyre Pagella';letter-spacing:0px;word-spacing:0px;fill:#000000;fill-opacity:1;stroke:none;stroke-width:1px;stroke-linecap:butt;stroke-linejoin:miter;stroke-opacity:1"
       x="38.839371"
       y="88.529762"
       id="text17663-1-5"
       sodipodi:linespacing="125%"><tspan
         sodipodi:role="line"
         id="tspan17665-3-8"
         x="38.839371"
         y="88.529762">2</tspan></text>
    <text
       xml:space="preserve"
       style="font-style:normal;font-variant:normal;font-weight:normal;font-stretch:normal;font-size:17.5px;line-height:125%;font-family:'TeX Gyre Pagella';-inkscape-font-specification:'TeX Gyre Pagella';letter-spacing:0px;word-spacing:0px;fill:#000000;fill-opacity:1;stroke:none;stroke-width:1px;stroke-linecap:butt;stroke-linejoin:miter;stroke-opacity:1"
       x="33.869644"
       y="238.50166"
       id="text17663-1-53"
       sodipodi:linespacing="125%"><tspan
         sodipodi:role="line"
         id="tspan17665-3-2"
         x="33.869644"
         y="238.50166">-1</tspan></text>
    <path
       style="fill:none;fill-rule:evenodd;stroke:#000000;stroke-width:1.01575899px;stroke-linecap:butt;stroke-linejoin:miter;stroke-opacity:1"
       d="m 62.486804,82.761227 c -10.74917,0 -10.74917,0 -10.74917,0"
       id="path17604-0-8"
       inkscape:connector-curvature="0" />
    <path
       style="fill:none;fill-rule:evenodd;stroke:#000000;stroke-width:1.01575899px;stroke-linecap:butt;stroke-linejoin:miter;stroke-opacity:1"
       d="m 62.88475,132.68565 c -10.74917,0 -10.74917,0 -10.74917,0"
       id="path17604-0-7"
       inkscape:connector-curvature="0" />
    <path
       style="fill:none;fill-rule:evenodd;stroke:#000000;stroke-width:1.01575899px;stroke-linecap:butt;stroke-linejoin:miter;stroke-opacity:1"
       d="m 62.427628,232.53441 c -10.74917,0 -10.74917,0 -10.74917,0"
       id="path17604-0-7-2"
       inkscape:connector-curvature="0" />
    <path
       style="fill:none;fill-rule:evenodd;stroke:#000000;stroke-width:1.01575899px;stroke-linecap:butt;stroke-linejoin:miter;stroke-opacity:1"
       d="m 62.871269,182.61 c -10.74917,0 -10.74917,0 -10.74917,0"
       id="path17604-0-7-8"
       inkscape:connector-curvature="0" />
    <text
       xml:space="preserve"
       style="font-style:normal;font-variant:normal;font-weight:normal;font-stretch:normal;font-size:17.5px;line-height:125%;font-family:'TeX Gyre Pagella';-inkscape-font-specification:'TeX Gyre Pagella';letter-spacing:0px;word-spacing:0px;fill:#000000;fill-opacity:1;stroke:none;stroke-width:1px;stroke-linecap:butt;stroke-linejoin:miter;stroke-opacity:1"
       x="39.714371"
       y="138.5204"
       id="text17663-1-53-8"
       sodipodi:linespacing="125%"><tspan
         sodipodi:role="line"
         id="tspan17665-3-2-9"
         x="39.714371"
         y="138.5204">1</tspan></text>
    <text
       xml:space="preserve"
       style="font-style:normal;font-variant:normal;font-weight:normal;font-stretch:normal;font-size:17.5px;line-height:125%;font-family:'TeX Gyre Pagella';-inkscape-font-specification:'TeX Gyre Pagella';letter-spacing:0px;word-spacing:0px;fill:#000000;fill-opacity:1;stroke:none;stroke-width:1px;stroke-linecap:butt;stroke-linejoin:miter;stroke-opacity:1"
       x="38.891872"
       y="188.51103"
       id="text17663-1-53-8-4"
       sodipodi:linespacing="125%"><tspan
         sodipodi:role="line"
         id="tspan17665-3-2-9-0"
         x="38.891872"
         y="188.51103">0</tspan></text>
  </g>
</svg>
