<?xml version="1.0" encoding="UTF-8" standalone="no"?>
<!-- Created with Inkscape (http://www.inkscape.org/) -->

<svg
   xmlns:dc="http://purl.org/dc/elements/1.1/"
   xmlns:cc="http://creativecommons.org/ns#"
   xmlns:rdf="http://www.w3.org/1999/02/22-rdf-syntax-ns#"
   xmlns:svg="http://www.w3.org/2000/svg"
   xmlns="http://www.w3.org/2000/svg"
   xmlns:sodipodi="http://sodipodi.sourceforge.net/DTD/sodipodi-0.dtd"
   xmlns:inkscape="http://www.inkscape.org/namespaces/inkscape"
   width="162.7607mm"
   height="72.206169mm"
   viewBox="0 0 576.71113 255.84863"
   id="svg9015"
   version="1.1"
   inkscape:version="0.91 r13725"
   sodipodi:docname="dipolar_coupling.svg">
  <defs
     id="defs9017">
    <clipPath
       id="p2e5fde638b-9">
      <rect
         height="316.79999"
         width="357.12"
         x="72"
         y="39.599998"
         id="rect528-0" />
    </clipPath>
    <clipPath
       id="clipPath8932">
      <rect
         height="316.79999"
         width="357.12"
         x="72"
         y="39.599998"
         id="rect8934" />
    </clipPath>
    <clipPath
       id="clipPath8936">
      <rect
         height="316.79999"
         width="357.12"
         x="72"
         y="39.599998"
         id="rect8938" />
    </clipPath>
    <clipPath
       id="clipPath8940">
      <rect
         height="316.79999"
         width="357.12"
         x="72"
         y="39.599998"
         id="rect8942" />
    </clipPath>
    <clipPath
       id="clipPath8944">
      <rect
         height="316.79999"
         width="357.12"
         x="72"
         y="39.599998"
         id="rect8946" />
    </clipPath>
    <clipPath
       id="clipPath8948">
      <rect
         height="316.79999"
         width="357.12"
         x="72"
         y="39.599998"
         id="rect8950" />
    </clipPath>
    <clipPath
       id="clipPath8952">
      <rect
         height="316.79999"
         width="357.12"
         x="72"
         y="39.599998"
         id="rect8954" />
    </clipPath>
    <clipPath
       id="clipPath8956">
      <rect
         height="316.79999"
         width="357.12"
         x="72"
         y="39.599998"
         id="rect8958" />
    </clipPath>
    <clipPath
       id="clipPath8960">
      <rect
         height="316.79999"
         width="357.12"
         x="72"
         y="39.599998"
         id="rect8962" />
    </clipPath>
    <clipPath
       id="clipPath8964">
      <rect
         height="316.79999"
         width="357.12"
         x="72"
         y="39.599998"
         id="rect8966" />
    </clipPath>
    <clipPath
       id="clipPath8968">
      <rect
         height="316.79999"
         width="357.12"
         x="72"
         y="39.599998"
         id="rect8970" />
    </clipPath>
  </defs>
  <sodipodi:namedview
     id="base"
     pagecolor="#ffffff"
     bordercolor="#666666"
     borderopacity="1.0"
     inkscape:pageopacity="0.0"
     inkscape:pageshadow="2"
     inkscape:zoom="0.98994949"
     inkscape:cx="347.8123"
     inkscape:cy="118.0587"
     inkscape:document-units="px"
     inkscape:current-layer="layer1"
     showgrid="false"
     fit-margin-top="0"
     fit-margin-left="50"
     fit-margin-right="50"
     fit-margin-bottom="0"
     inkscape:window-width="1920"
     inkscape:window-height="1043"
     inkscape:window-x="0"
     inkscape:window-y="0"
     inkscape:window-maximized="1" />
  <metadata
     id="metadata9020">
    <rdf:RDF>
      <cc:Work
         rdf:about="">
        <dc:format>image/svg+xml</dc:format>
        <dc:type
           rdf:resource="http://purl.org/dc/dcmitype/StillImage" />
        <dc:title></dc:title>
      </cc:Work>
    </rdf:RDF>
  </metadata>
  <g
     inkscape:label="Layer 1"
     inkscape:groupmode="layer"
     id="layer1"
     transform="translate(-56.749202,-27.825104)">
    <g
       id="patch_2-4"
       style="stroke-linecap:butt;stroke-linejoin:round"
       transform="matrix(0.83966578,0,0,0.83966578,118.72655,3.3567043)" />
    <g
       transform="matrix(0.83966578,0,0,0.83966578,134.71812,-6.7842947)"
       id="LineCollection_3-2"
       style="fill:#efb6c7;fill-opacity:1;stroke-linecap:butt;stroke-linejoin:round">
      <path
         inkscape:connector-curvature="0"
         clip-path="url(#p2e5fde638b-9)"
         d="m 155.238,235.818 -3.58,-0.673 -3.58,-0.943 -2.685,-0.902 -2.685,-1.087 -2.685,-1.293 -2.736,-1.558 -2.634,-1.769 -2.771,-2.201 -2.6,-2.469 -2.041,-2.294 -1.802,-2.382 -1.527,-2.387 -1.285,-2.377 -1.067,-2.382 -0.867,-2.382 -0.867,-3.176 -0.555,-3.176 -0.221,-2.382 -0.037,-3.176 0.166,-2.382 0.48,-3.176 0.673,-2.768 0.629,-1.996 1.161,-2.889 0.911,-1.875 1.36,-2.382 1.614,-2.382 1.902,-2.382 2.268,-2.401 2.648,-2.362 2.076,-1.588 2.437,-1.619 2.743,-1.557 2.627,-1.263 2.774,-1.119 3.491,-1.133 3.58,-0.873 3.581,-0.609 3.58,-0.367 3.58,-0.141 3.58,0.07 3.58,0.27 3.58,0.463 3.995,0.732 3.423,0.794 3.323,0.909 4.558,1.473 4.392,1.634 4.475,1.869 5.371,2.491 8.055,4.161 3.58,1.981 8.95,5.223 1.79,1.144 1.791,1.029 1.834,1.111 1.186,0.794 0.56,0.496 1.79,0.794 1.79,1.588 0.895,0 1.79,1.588 0.895,0 2.685,2.382 0.895,0 1.79,1.588 0.895,0 2.685,2.382 0.895,0 1.231,1.092 0,0.794 -1.231,1.092 -0.895,0 -2.685,2.382 -0.895,0 -1.79,1.588 -0.895,0 -2.685,2.382 -0.895,0 -1.79,1.588 -0.895,0 -1.79,1.588 -0.895,0.286 -0.237,0.21 -0.658,0.298 -0.895,0.794 -6.266,3.78 -10.792,6.244 -5.318,2.867 -8.951,4.344 -4.475,1.915 -5.37,2.02 -4.475,1.442 -5.37,1.408 -4.476,0.884 -4.475,0.606 -3.58,0.27 -3.58,0.07 -3.58,-0.141 -3.58,-0.367 -0.896,-0.129 0,0"
         style="fill:#efb6c7;fill-opacity:1;stroke:#efb6c7;stroke-width:1.75;stroke-linecap:butt;stroke-linejoin:round"
         id="path355-9" />
      <path
         inkscape:connector-curvature="0"
         clip-path="url(#p2e5fde638b-9)"
         d="m 327.981,235.785 -4.475,-0.775 -4.476,-1.043 -4.475,-1.298 -6.265,-2.206 -5.37,-2.222 -5.371,-2.491 -8.055,-4.161 -3.58,-1.981 -8.95,-5.223 -1.79,-1.144 -1.791,-1.029 -1.834,-1.111 -1.186,-0.794 -0.56,-0.496 -1.79,-0.794 -1.79,-1.588 -0.895,0 -1.79,-1.588 -0.895,0 -2.685,-2.382 -0.895,0 -1.79,-1.588 -0.895,0 -2.685,-2.382 -0.895,0 -1.231,-1.092 0,-0.794 1.231,-1.092 0.895,0 2.685,-2.382 0.895,0 1.79,-1.588 0.895,0 2.685,-2.382 0.895,0 1.79,-1.588 0.895,0 1.79,-1.588 0.895,-0.286 0.237,-0.21 0.658,-0.298 0.895,-0.794 6.266,-3.78 10.792,-6.244 5.318,-2.867 8.951,-4.344 4.475,-1.915 5.37,-2.02 4.475,-1.442 5.37,-1.408 4.476,-0.884 4.475,-0.606 3.58,-0.27 3.58,-0.07 3.58,0.141 3.58,0.367 3.581,0.609 3.58,0.873 3.58,1.165 2.685,1.087 2.685,1.293 2.736,1.558 2.634,1.769 2.771,2.201 2.6,2.469 2.041,2.294 1.802,2.382 1.527,2.387 1.285,2.377 1.067,2.382 0.867,2.382 0.867,3.176 0.555,3.176 0.221,2.382 0.037,3.176 -0.166,2.382 -0.48,3.176 -0.673,2.768 -0.629,1.996 -1.161,2.889 -0.911,1.875 -1.36,2.382 -1.614,2.382 -1.902,2.382 -2.268,2.401 -2.648,2.362 -2.076,1.588 -2.437,1.619 -2.743,1.557 -2.627,1.263 -2.774,1.119 -3.491,1.133 -3.58,0.873 -3.581,0.609 -3.58,0.367 -3.58,0.141 -3.58,-0.07 -3.58,-0.27 -2.685,-0.33 0,0"
         style="fill:#efb6c7;fill-opacity:1;stroke:#efb6c7;stroke-width:1.75;stroke-linecap:butt;stroke-linejoin:round"
         id="path357-4" />
    </g>
    <g
       transform="matrix(0.83966578,0,0,0.83966578,134.71812,-6.7842947)"
       id="LineCollection_2-0"
       style="fill:#e27897;fill-opacity:1;stroke-linecap:butt;stroke-linejoin:round">
      <path
         clip-path="url(#p2e5fde638b-9)"
         d="m 310.975,227.834 -4.475,-0.89 -3.58,-0.947 -3.58,-1.145 -5.371,-2.055 -4.475,-1.987 -9.569,-4.945 -1.419,-0.794 -5.444,-3.176 -0.574,-0.509 -1.79,-0.881 -0.895,-0.794 -0.438,-0.198 -0.457,-0.405 -0.895,-0.191 -1.79,-1.588 -0.895,0 -1.79,-1.588 -0.895,0 -2.685,-2.382 -0.895,0 -1.79,-1.588 -0.895,0 -2.685,-2.382 -0.895,0 -1.119,-0.992 0,-0.794 1.119,-0.992 0.895,0 2.685,-2.382 0.895,0 1.79,-1.588 0.895,0 2.685,-2.382 0.895,0 1.79,-1.588 0.895,0 1.79,-1.588 0.895,-0.191 0.457,-0.405 0.438,-0.198 0.895,-0.794 1.79,-0.881 0.895,-0.72 1.791,-0.951 0.895,-0.638 1.79,-1.005 5.37,-2.974 5.37,-2.712 7.16,-3.139 5.371,-1.921 3.58,-1.051 3.58,-0.846 3.58,-0.629 3.58,-0.398 3.58,-0.153 3.581,0.109 3.58,0.393 2.685,0.498 2.685,0.688 2.685,0.898 2.685,1.133 1.969,0.999 2.615,1.588 2.576,1.917 1.791,1.587 1.79,1.857 1.47,1.785 1.633,2.382 1.372,2.503 0.986,2.261 0.804,2.419 0.559,2.345 0.345,2.382 0.141,2.382 -0.07,2.382 -0.277,2.382 -0.492,2.382 -0.716,2.382 -0.958,2.382 -1.226,2.382 -1.519,2.382 -1.875,2.382 -1.967,2.054 -1.791,1.587 -1.79,1.371 -2.685,1.728 -2.685,1.405 -2.685,1.133 -2.685,0.898 -2.685,0.688 -2.685,0.498 -2.685,0.323 -3.581,0.177 -3.58,-0.089 -3.58,-0.338 -1.79,-0.26 0,0"
         style="fill:#e27897;fill-opacity:1;stroke:#e27897;stroke-width:1.75;stroke-linecap:butt;stroke-linejoin:round"
         id="path352-3"
         inkscape:connector-curvature="0"
         transform="translate(3.9415501,0)" />
      <path
         inkscape:connector-curvature="0"
         clip-path="url(#p2e5fde638b-9)"
         d="m 174.034,227.875 -2.685,-0.559 -2.685,-0.756 -3.157,-1.168 -2.213,-1.024 -2.685,-1.505 -2.685,-1.853 -1.79,-1.474 -1.791,-1.713 -1.739,-1.958 -1.75,-2.382 -1.42,-2.382 -1.13,-2.382 -0.875,-2.382 -0.641,-2.382 -0.418,-2.382 -0.208,-2.382 0,-2.382 0.208,-2.382 0.418,-2.382 0.641,-2.382 0.875,-2.382 1.13,-2.382 1.42,-2.382 1.75,-2.382 1.739,-1.958 1.791,-1.713 1.79,-1.474 1.79,-1.278 2.685,-1.613 2.685,-1.309 2.685,-1.051 2.685,-0.825 3.033,-0.688 3.232,-0.481 3.581,-0.247 3.58,0.024 3.58,0.277 3.58,0.517 3.58,0.74 3.58,0.947 3.58,1.145 5.371,2.055 4.475,1.987 9.569,4.945 1.419,0.794 5.444,3.176 0.574,0.509 1.79,0.881 0.895,0.794 0.438,0.198 0.457,0.405 0.895,0.191 1.79,1.588 0.895,0 1.79,1.588 0.895,0 2.685,2.382 0.895,0 1.79,1.588 0.895,0 2.685,2.382 0.895,0 1.119,0.992 0,0.794 -1.119,0.992 -0.895,0 -2.685,2.382 -0.895,0 -1.79,1.588 -0.895,0 -2.685,2.382 -0.895,0 -1.79,1.588 -0.895,0 -1.79,1.588 -0.895,0.191 -0.457,0.405 -0.438,0.198 -0.895,0.794 -1.79,0.881 -0.895,0.72 -1.791,0.951 -0.895,0.638 -1.79,1.005 -5.37,2.974 -5.37,2.712 -7.16,3.139 -5.371,1.921 -3.58,1.051 -3.58,0.846 -3.58,0.629 -3.58,0.398 -3.58,0.153 -3.581,-0.109 -3.58,-0.393 -0.895,-0.146 0,0"
         style="fill:#e27897;fill-opacity:1;stroke:#e27897;stroke-width:1.75;stroke-linecap:butt;stroke-linejoin:round"
         id="path350-5" />
    </g>
    <g
       transform="matrix(0.83966578,0,0,0.83966578,134.71812,-6.7842947)"
       id="LineCollection_4-0"
       style="stroke-linecap:butt;stroke-linejoin:round" />
    <g
       transform="matrix(0.83966578,0,0,0.83966578,134.71812,-6.7842947)"
       id="LineCollection_5-7"
       style="stroke-linecap:butt;stroke-linejoin:round">
      <path
         inkscape:connector-curvature="0"
         clip-path="url(#p2e5fde638b-9)"
         d="m 241.162,344.572 4.475,0.346 4.475,0.128 4.476,-0.085 4.475,-0.302 4.475,-0.519 4.475,-0.744 4.475,-0.975 4.476,-1.219 4.475,-1.476 4.081,-1.588 3.56,-1.588 3.172,-1.588 3.507,-1.963 3.581,-2.259 3.58,-2.551 3.417,-2.754 2.848,-2.576 2.936,-2.982 2.757,-3.176 2.421,-3.176 2.121,-3.176 1.845,-3.176 1.59,-3.176 1.351,-3.176 1.124,-3.176 0.907,-3.176 0.697,-3.176 0.493,-3.176 0.289,-3.176 0.089,-3.176 -0.108,-3.176 -0.309,-3.175 -0.512,-3.176 -0.718,-3.176 -0.924,-3.176 -1.136,-3.176 -1.487,-3.435 -1.459,-2.917 -2.316,-3.97 -2.126,-3.176 -3.05,-4 -2.686,-3.146 -2.976,-3.176 -4.183,-4.025 -3.58,-3.156 -4.821,-3.935 -8.605,-6.357 -8.145,-5.552 -8.525,-5.558 -0.336,-0.298 -1.105,-0.496 -0.685,-0.298 -1.79,-1.588 -0.895,0 -1.79,-1.588 -0.895,0 -2.685,-2.382 -0.895,0 -1.79,-1.588 -0.895,0 -2.685,-2.382 -0.895,0 -1.455,-1.29 0,-0.794 1.455,-1.29 0.895,0 2.685,-2.382 0.895,0 1.79,-1.588 0.895,0 2.685,-2.382 0.895,0 1.79,-1.588 0.895,0 1.79,-1.588 1.79,-0.794 0.895,-0.794 3.125,-1.886 0.455,-0.368 1.978,-1.22 15.028,-10.368 5.37,-4.123 3.625,-2.976 4.456,-3.97 3.555,-3.487 1.968,-2.071 3.428,-3.97 2.451,-3.176 3.193,-4.764 1.822,-3.176 1.585,-3.176 1.361,-3.176 1.388,-3.97 0.872,-3.176 0.728,-3.565 0.398,-2.787 0.259,-3.175 0.059,-3.176 -0.139,-3.176 -0.341,-3.176 -0.542,-3.176 -0.749,-3.176 -0.96,-3.1761 -1.18,-3.1759 -1.411,-3.176 -1.66,-3.1878 -1.904,-3.1641 -2.192,-3.1759 -2.502,-3.1759 -2.848,-3.176 -2.393,-2.3819 -2.644,-2.382 -3.417,-2.7543 -3.58,-2.5506 -3.581,-2.2595 -3.58,-2.0025 -3.58,-1.7775 -4.475,-1.9315 -4.475,-1.639 -4.475,-1.3711 -4.771,-1.1817 -4.18,-0.8171 -4.475,-0.6539 -4.475,-0.4327 -4.475,-0.2146 -4.476,0 -4.475,0.2146 -4.475,0.4327 -4.605,0.6771 -4.345,0.8577 -4.476,1.1179 -4.475,1.3711 -4.475,1.639 -3.58,1.5209 -3.58,1.7222 -3.833,2.093 -3.328,2.0441 -3.58,2.4742 -3.369,2.6275 -2.896,2.5293 -3.084,3.0286 -2.286,2.5163 -2.468,3.0416 -2.267,3.176 -1.98,3.1759 -1.716,3.1759 -1.468,3.176 -1.238,3.1759 -1.015,3.176 -0.801,3.1761 -0.592,3.176 -0.392,3.176 -0.189,3.176 0.01,3.176 0.208,3.175 0.482,3.581 0.541,2.771 0.82,3.176 1.031,3.176 1.594,3.97 1.531,3.176 1.763,3.176 2.001,3.176 2.857,3.97 3.266,3.97 3.684,3.97 4.183,4.025 3.58,3.156 4.821,3.935 8.605,6.357 8.145,5.552 8.525,5.558 0.336,0.298 1.105,0.496 0.685,0.298 1.79,1.588 0.895,0 1.79,1.588 0.895,0 2.685,2.382 0.895,0 1.79,1.588 0.895,0 2.685,2.382 0.895,0 1.455,1.29 0,0.794 -1.455,1.29 -0.895,0 -2.685,2.382 -0.895,0 -1.79,1.588 -0.895,0 -2.685,2.382 -0.895,0 -1.79,1.588 -0.895,0 -1.79,1.588 -1.79,0.794 -0.895,0.794 -3.125,1.886 -0.455,0.368 -1.978,1.22 -15.028,10.368 -5.37,4.123 -3.625,2.976 -4.456,3.97 -3.555,3.487 -1.968,2.071 -3.428,3.97 -2.451,3.176 -3.193,4.764 -1.822,3.176 -1.585,3.176 -1.361,3.176 -1.388,3.97 -0.872,3.176 -0.728,3.565 -0.398,2.787 -0.259,3.175 -0.059,3.176 0.139,3.176 0.341,3.176 0.542,3.176 0.749,3.176 0.96,3.176 1.18,3.176 1.411,3.176 1.66,3.188 1.904,3.164 2.192,3.176 2.502,3.176 2.848,3.176 2.393,2.382 2.644,2.382 3.417,2.754 3.58,2.551 3.581,2.259 3.58,2.003 3.58,1.777 4.475,1.931 4.475,1.639 4.475,1.372 4.771,1.181 4.18,0.817 4.475,0.654 1.79,0.199 0,0"
         style="fill:#b9cbeb;fill-opacity:1;stroke:#b9cbeb;stroke-width:1.75;stroke-linecap:butt;stroke-linejoin:round"
         id="path365-5" />
    </g>
    <g
       transform="matrix(0.83966578,0,0,0.83966578,134.71812,-6.7842947)"
       id="LineCollection_6-0"
       style="stroke-linecap:butt;stroke-linejoin:round">
      <path
         inkscape:connector-curvature="0"
         clip-path="url(#p2e5fde638b-9)"
         d="m 243.847,314.406 4.475,0.273 4.476,0 4.475,-0.273 4.475,-0.544 4.475,-0.831 4.342,-1.094 2.818,-0.866 3.581,-1.295 3.58,-1.53 3.72,-1.867 3.44,-2.004 2.942,-1.966 2.428,-1.818 2.685,-2.259 2.686,-2.57 1.929,-2.087 1.966,-2.382 1.737,-2.382 1.998,-3.176 1.665,-3.176 1.36,-3.176 1.076,-3.175 0.805,-3.176 0.547,-3.176 0.288,-3.176 0.038,-3.176 -0.211,-3.176 -0.466,-3.176 -0.723,-3.176 -0.988,-3.176 -1.264,-3.176 -1.128,-2.382 -1.766,-3.176 -2.071,-3.176 -3.046,-3.97 -2.804,-3.176 -3.418,-3.416 -2.685,-2.446 -2.685,-2.281 -2.713,-2.178 -5.342,-3.976 -4.598,-3.17 -0.772,-0.431 -0.896,-0.647 -0.895,-0.67 -1.79,-0.936 -1.79,-1.485 -0.895,-0.206 -0.438,-0.389 -0.457,-0.199 -1.79,-1.588 -0.895,0 -1.79,-1.588 -0.895,0 -2.685,-2.382 -0.895,0 -1.79,-1.588 -0.895,0 -2.685,-2.382 -0.895,0 -1.567,-1.389 0,-0.794 1.567,-1.389 0.895,0 2.685,-2.382 0.895,0 1.79,-1.588 0.895,0 2.685,-2.382 0.895,0 1.79,-1.588 0.895,0 1.79,-1.588 0.457,-0.199 0.438,-0.389 0.895,-0.206 1.79,-1.485 0.895,-0.442 1.159,-0.654 1.527,-1.157 1.992,-1.225 8.748,-6.376 4.475,-3.659 2.145,-1.874 4.12,-4.001 2.871,-3.145 2.552,-3.176 2.235,-3.176 2.188,-3.69 0.965,-1.868 1.405,-3.176 1.21,-3.483 0.579,-2.075 0.659,-3.176 0.401,-3.176 0.148,-3.176 -0.099,-3.176 -0.352,-3.176 -0.61,-3.176 -0.872,-3.176 -1.145,-3.175 -1.437,-3.176 -1.277,-2.382 -1.998,-3.176 -2.052,-2.785 -2.361,-2.773 -2.315,-2.3821 -2.622,-2.382 -2.989,-2.3819 -2.244,-1.5927 -2.685,-1.7169 -3.58,-2.0058 -3.833,-1.8305 -3.327,-1.3604 -3.581,-1.2402 -3.58,-1.0292 -3.58,-0.8299 -4.475,-0.7728 -4.475,-0.4898 -4.475,-0.2175 -4.476,0.0542 -4.475,0.3281 -3.58,0.4566 -4.475,0.8307 -4.342,1.0943 -2.818,0.8661 -3.581,1.2946 -3.58,1.5297 -3.72,1.8675 -3.44,2.0037 -2.942,1.9662 -2.428,1.8177 -2.685,2.2593 -2.686,2.57 -1.929,2.087 -1.966,2.382 -1.737,2.382 -1.998,3.176 -1.665,3.176 -1.36,3.176 -1.076,3.175 -0.805,3.176 -0.547,3.176 -0.288,3.176 -0.038,3.176 0.211,3.176 0.466,3.176 0.723,3.176 0.988,3.176 1.264,3.176 1.128,2.382 1.766,3.176 2.071,3.176 3.046,3.97 2.804,3.176 3.418,3.416 2.685,2.446 2.685,2.281 2.713,2.178 5.342,3.976 4.598,3.17 0.772,0.431 0.896,0.647 0.895,0.67 1.79,0.936 1.79,1.485 0.895,0.206 0.438,0.389 0.457,0.199 1.79,1.588 0.895,0 1.79,1.588 0.895,0 2.685,2.382 0.895,0 1.79,1.588 0.895,0 2.685,2.382 0.895,0 1.567,1.389 0,0.794 -1.567,1.389 -0.895,0 -2.685,2.382 -0.895,0 -1.79,1.588 -0.895,0 -2.685,2.382 -0.895,0 -1.79,1.588 -0.895,0 -1.79,1.588 -0.457,0.199 -0.438,0.389 -0.895,0.206 -1.79,1.485 -0.895,0.442 -1.159,0.654 -1.527,1.157 -1.992,1.225 -8.748,6.376 -4.475,3.659 -2.145,1.874 -4.12,4.001 -2.871,3.145 -2.552,3.176 -2.235,3.176 -2.188,3.69 -0.965,1.868 -1.405,3.176 -1.21,3.483 -0.579,2.075 -0.659,3.176 -0.401,3.176 -0.148,3.176 0.099,3.176 0.352,3.176 0.61,3.176 0.872,3.176 1.145,3.175 1.437,3.176 1.277,2.382 1.998,3.176 2.052,2.785 2.361,2.773 2.315,2.382 2.622,2.382 2.989,2.382 2.244,1.593 2.685,1.717 3.58,2.005 3.833,1.831 3.327,1.36 3.581,1.241 3.58,1.029 3.58,0.83 4.475,0.772 3.58,0.413 0,0"
         style="fill:#7fa0da;fill-opacity:1;stroke:#7fa0da;stroke-width:1.75;stroke-linecap:butt;stroke-linejoin:round"
         id="path368-5" />
    </g>
    <g
       transform="matrix(0.83966578,0,0,0.83966578,134.71812,-6.7842947)"
       id="LineCollection_7-8"
       style="stroke-linecap:butt;stroke-linejoin:round">
      <path
         inkscape:connector-curvature="0"
         clip-path="url(#p2e5fde638b-9)"
         d="m 241.162,299.269 3.58,0.428 3.58,0.221 3.581,0.025 3.58,-0.172 3.58,-0.375 3.58,-0.579 3.58,-0.793 4.042,-1.173 3.118,-1.11 3.581,-1.529 3.58,-1.828 3.132,-1.885 2.318,-1.588 2.605,-2.016 2.685,-2.394 1.909,-1.942 2.064,-2.382 1.794,-2.382 1.551,-2.381 1.633,-2.977 1.165,-2.581 0.88,-2.382 0.7,-2.382 0.533,-2.382 0.447,-3.176 0.161,-3.176 -0.129,-3.176 -0.417,-3.176 -0.655,-2.94 -0.524,-1.824 -1.173,-3.176 -1.487,-3.176 -1.829,-3.176 -2.189,-3.176 -1.878,-2.382 -2.84,-3.176 -3.296,-3.217 -2.685,-2.375 -2.899,-2.347 -2.471,-1.903 -1.79,-1.349 -1.79,-1.061 -1.548,-1.245 -0.243,-0.142 -0.895,-0.706 -0.895,-0.273 -0.526,-0.467 -0.369,-0.151 -1.79,-1.536 -0.895,-0.104 -2.685,-2.278 -0.895,0 -1.79,-1.588 -0.895,0 -2.685,-2.382 -0.895,0 -1.79,-1.588 -0.895,0 -2.685,-2.382 -0.895,0 -1.679,-1.489 0,-0.794 1.679,-1.489 1.007,-0.099 2.573,-2.283 1.007,-0.099 1.678,-1.489 1.007,-0.099 2.573,-2.283 1.007,-0.099 1.678,-1.489 1.007,-0.099 2.573,-2.179 1.007,-0.203 1.678,-1.437 0.369,-0.151 0.526,-0.467 0.984,-0.327 2.597,-2.039 0.895,-0.545 1.012,-0.592 5.253,-4.06 2.758,-2.292 3.507,-3.251 2.685,-2.796 1.661,-1.892 3.553,-4.764 2.343,-3.97 1.487,-3.176 0.907,-2.382 0.79,-2.618 0.506,-2.146 0.488,-3.176 0.202,-3.176 -0.088,-3.176 -0.377,-3.176 -0.474,-2.382 -0.897,-3.176 -1.215,-3.176 -1.129,-2.382 -1.491,-2.64 -1.791,-2.679 -1.79,-2.307 -1.79,-2.029 -2.685,-2.652 -2.685,-2.28 -2.836,-2.086 -2.534,-1.637 -2.709,-1.539 -3.228,-1.588 -3.014,-1.272 -3.58,-1.2618 -3.58,-1.0209 -3.58,-0.7937 -3.58,-0.5788 -3.58,-0.3748 -3.58,-0.1719 -3.581,0.0244 -3.58,0.2218 -3.812,0.4636 -3.348,0.5944 -4.097,0.9936 -3.063,0.9344 -3.58,1.3267 -3.797,1.709 -2.989,1.588 -2.612,1.588 -2.318,1.588 -2.605,2.016 -2.685,2.394 -1.909,1.942 -2.064,2.382 -1.794,2.382 -1.551,2.381 -1.633,2.977 -1.165,2.581 -0.88,2.382 -0.7,2.382 -0.533,2.382 -0.447,3.176 -0.161,3.176 0.129,3.176 0.417,3.176 0.655,2.94 0.524,1.824 1.173,3.176 1.487,3.176 1.829,3.176 2.189,3.176 1.878,2.382 2.84,3.176 3.296,3.217 2.685,2.375 2.899,2.347 2.471,1.903 1.79,1.349 1.79,1.061 1.548,1.245 0.243,0.142 0.895,0.706 0.895,0.273 0.526,0.467 0.369,0.151 1.79,1.536 0.895,0.104 2.685,2.278 0.895,0 1.79,1.588 0.895,0 2.685,2.382 0.895,0 1.79,1.588 0.895,0 2.685,2.382 0.895,0 1.679,1.489 0,0.794 -1.679,1.489 -1.007,0.099 -2.573,2.283 -1.007,0.099 -1.678,1.489 -1.007,0.099 -2.573,2.283 -1.007,0.099 -1.678,1.489 -1.007,0.099 -2.573,2.179 -1.007,0.203 -1.678,1.437 -0.369,0.151 -0.526,0.467 -0.984,0.327 -2.597,2.039 -0.895,0.545 -1.012,0.592 -5.253,4.06 -2.758,2.292 -3.507,3.251 -2.685,2.796 -1.661,1.892 -3.553,4.764 -2.343,3.97 -1.487,3.176 -0.907,2.382 -0.79,2.618 -0.506,2.146 -0.488,3.176 -0.202,3.176 0.088,3.176 0.377,3.176 0.474,2.382 0.897,3.176 1.215,3.176 1.129,2.382 1.491,2.64 1.791,2.679 1.79,2.307 1.79,2.029 2.685,2.652 2.685,2.28 2.836,2.086 2.534,1.637 2.709,1.539 3.228,1.588 3.014,1.272 3.58,1.262 3.58,1.021 3.58,0.793 2.685,0.452 0,0"
         style="fill:#4676ca;fill-opacity:1;stroke:#4676ca;stroke-width:1.75039995;stroke-linecap:butt;stroke-linejoin:round;stroke-miterlimit:4;stroke-dasharray:none"
         id="path371-8" />
    </g>
    <g
       transform="matrix(0.83966578,0,0,0.83966578,134.71812,-6.7842947)"
       id="LineCollection_1-9"
       style="fill:#d53d69;fill-opacity:1;stroke-linecap:butt;stroke-linejoin:round">
      <path
         inkscape:connector-curvature="0"
         clip-path="url(#p2e5fde638b-9)"
         d="m 188.355,224.612 -2.685,-0.226 -2.685,-0.421 -2.685,-0.632 -2.686,-0.867 -2.685,-1.135 -2.763,-1.496 -2.343,-1.588 -2.054,-1.704 -1.79,-1.79 -1.093,-1.27 -1.702,-2.382 -1.338,-2.382 -1.019,-2.382 -0.742,-2.382 -0.48,-2.382 -0.241,-2.382 0,-2.382 0.241,-2.382 0.48,-2.382 0.742,-2.382 1.019,-2.382 1.338,-2.382 1.702,-2.382 1.381,-1.588 1.627,-1.588 1.929,-1.588 2.421,-1.635 2.685,-1.449 2.034,-0.886 2.442,-0.854 2.808,-0.734 2.562,-0.463 3.348,-0.33 2.022,-0.066 3.58,0.123 3.58,0.402 3.58,0.666 3.581,0.911 3.58,1.142 3.58,1.34 5.889,2.627 0.376,0.247 1.241,0.547 0.549,0.365 1.022,0.429 1.663,0.993 1.265,0.595 0.525,0.466 0.98,0.328 1.706,1.258 1.055,0.33 1.63,1.298 1.007,0.29 1.678,1.394 1.007,0.194 1.678,1.489 1.007,0.099 1.678,1.489 1.007,0.099 2.573,2.283 1.007,0.099 1.678,1.489 1.007,0.099 2.573,2.283 1.007,0.099 0.895,0.794 0,0.794 -1.007,0.893 -0.895,0 -2.685,2.382 -0.895,0 -1.79,1.588 -0.895,0 -2.685,2.382 -0.895,0 -1.79,1.588 -0.895,0 -1.79,1.588 -0.895,0.095 -1.79,1.493 -0.895,0.191 -1.63,1.298 -0.16,0.106 -0.895,0.224 -0.896,0.648 -0.895,0.664 -0.895,0.274 -0.895,0.678 -1.118,0.582 -0.672,0.31 -0.895,0.557 -0.895,0.356 -0.895,0.553 -1.271,0.606 -2.309,1.095 -7.169,2.875 -3.571,1.139 -3.581,0.911 -3.58,0.666 -3.58,0.402 -3.58,0.123 -1.79,-0.052 0,0"
         style="fill:#d53d69;fill-opacity:1;stroke:#d53d69;stroke-width:1.75;stroke-linecap:butt;stroke-linejoin:round"
         id="path345-8" />
      <path
         inkscape:connector-curvature="0"
         clip-path="url(#p2e5fde638b-9)"
         d="m 308.29,224.599 -3.58,-0.334 -3.58,-0.604 -3.581,-0.851 -3.58,-1.081 -4.475,-1.649 -5.889,-2.627 -0.376,-0.247 -1.241,-0.547 -0.549,-0.365 -1.022,-0.429 -1.663,-0.993 -1.265,-0.595 -0.525,-0.466 -0.98,-0.328 -1.706,-1.258 -1.055,-0.33 -1.63,-1.298 -1.007,-0.29 -1.678,-1.394 -1.007,-0.194 -1.678,-1.489 -1.007,-0.099 -1.678,-1.489 -1.007,-0.099 -2.573,-2.283 -1.007,-0.099 -1.678,-1.489 -1.007,-0.099 -2.573,-2.283 -1.007,-0.099 -0.895,-0.794 0,-0.794 1.007,-0.893 0.895,0 2.685,-2.382 0.895,0 1.79,-1.588 0.895,0 2.685,-2.382 0.895,0 1.79,-1.588 0.895,0 1.79,-1.588 0.895,-0.095 1.79,-1.493 0.895,-0.191 1.63,-1.298 0.16,-0.106 0.895,-0.224 0.896,-0.648 0.895,-0.664 0.895,-0.274 0.895,-0.678 1.118,-0.582 0.672,-0.31 0.895,-0.557 0.895,-0.356 0.895,-0.553 1.271,-0.606 2.309,-1.095 7.169,-2.875 3.571,-1.139 3.581,-0.911 3.58,-0.666 3.58,-0.402 3.58,-0.123 2.685,0.107 2.685,0.289 2.685,0.49 2.879,0.767 2.492,0.892 2.685,1.233 1.868,1.051 2.343,1.588 2.054,1.704 1.79,1.79 1.093,1.27 1.702,2.382 1.338,2.382 1.019,2.382 0.742,2.382 0.48,2.382 0.241,2.382 0,2.382 -0.241,2.382 -0.48,2.382 -0.742,2.382 -1.019,2.382 -1.338,2.382 -1.702,2.382 -1.381,1.588 -1.627,1.588 -1.929,1.588 -2.421,1.635 -2.685,1.449 -2.034,0.886 -2.442,0.854 -2.808,0.734 -2.562,0.463 -3.348,0.33 -2.022,0.066 -2.685,-0.065 0,0"
         style="fill:#d53d69;fill-opacity:1;stroke:#d53d69;stroke-width:1.75;stroke-linecap:butt;stroke-linejoin:round"
         id="path347-1" />
    </g>
    <g
       id="g8725"
       transform="matrix(2.9986598,0,0,1.3157703,751.86551,-262.00399)"
       style="stroke-linecap:butt;stroke-linejoin:round">
      <g
         id="g8733"
         transform="matrix(0.33897504,0,0,0.49570915,-78.706363,51.501151)"
         style="stroke-linecap:butt;stroke-linejoin:round">
        <path
           inkscape:connector-curvature="0"
           id="path8731"
           style="fill:#000000;fill-opacity:1;fill-rule:evenodd;stroke:#000000;stroke-width:2.22335243;stroke-linecap:butt;stroke-linejoin:round;stroke-opacity:1"
           d="m -182.84955,391.21662 14.2925,-38.86732 14.29249,38.86732 c -8.43828,-6.20937 -19.98332,-6.17359 -28.58499,0 z" />
      </g>
    </g>
    <text
       xml:space="preserve"
       style="font-style:normal;font-variant:normal;font-weight:normal;font-stretch:normal;font-size:26.86930466px;line-height:125%;font-family:'TeX Gyre Pagella';-inkscape-font-specification:'TeX Gyre Pagella';letter-spacing:0px;word-spacing:0px;fill:#000000;fill-opacity:1;stroke:none;stroke-width:1px;stroke-linecap:butt;stroke-linejoin:miter;stroke-opacity:1"
       x="287.03735"
       y="165.76651"
       id="text8801-8-6-2"
       sodipodi:linespacing="125%"><tspan
         sodipodi:role="line"
         id="tspan8803-7-2-8"
         style="font-style:normal;font-variant:normal;font-weight:normal;font-stretch:normal;font-family:'TeX Gyre Pagella';-inkscape-font-specification:'TeX Gyre Pagella';fill:#ffffff;stroke-linecap:butt;stroke-linejoin:round"
         x="287.03735"
         y="165.76651">-</tspan></text>
    <path
       style="fill:none;fill-rule:evenodd;stroke:#000000;stroke-width:5.37386084;stroke-linecap:butt;stroke-linejoin:miter;stroke-miterlimit:4;stroke-dasharray:none;stroke-opacity:1"
       d="m 344.51858,160.64334 c 0,-113.959251 0,-113.959251 0,-113.959251"
       id="path5211-8"
       inkscape:connector-curvature="0" />
    <path
       style="fill:none;fill-rule:evenodd;stroke:#000000;stroke-width:5.37386084;stroke-linecap:butt;stroke-linejoin:miter;stroke-miterlimit:4;stroke-dasharray:none;stroke-opacity:1"
       d="m 343.8391,158.77452 c 42.21549,47.06131 42.21549,47.06131 42.21549,47.06131"
       id="path5211-9"
       inkscape:connector-curvature="0" />
    <circle
       style="opacity:1;fill:#000000;fill-opacity:1;stroke:none;stroke-width:8;stroke-linecap:butt;stroke-linejoin:round;stroke-miterlimit:4;stroke-dasharray:none;stroke-dashoffset:0;stroke-opacity:1"
       id="path8784"
       cx="344.96689"
       cy="159.60742"
       r="6.205471" />
    <circle
       style="opacity:1;fill:#000000;fill-opacity:1;stroke:none;stroke-width:8;stroke-linecap:butt;stroke-linejoin:round;stroke-miterlimit:4;stroke-dasharray:none;stroke-dashoffset:0;stroke-opacity:1"
       id="path8784-7"
       cx="385.09558"
       cy="205.25214"
       r="6.205471" />
    <text
       xml:space="preserve"
       style="font-style:normal;font-variant:normal;font-weight:normal;font-stretch:normal;font-size:26.86930466px;line-height:125%;font-family:'TeX Gyre Pagella';-inkscape-font-specification:'TeX Gyre Pagella';letter-spacing:0px;word-spacing:0px;fill:#000000;fill-opacity:1;stroke:none;stroke-width:1px;stroke-linecap:butt;stroke-linejoin:miter;stroke-opacity:1"
       x="325.01669"
       y="167.435"
       id="text8801"
       sodipodi:linespacing="125%"><tspan
         sodipodi:role="line"
         id="tspan8803"
         style="font-style:normal;font-variant:normal;font-weight:normal;font-stretch:normal;font-family:'TeX Gyre Pagella';-inkscape-font-specification:'TeX Gyre Pagella';stroke-linecap:butt;stroke-linejoin:round"
         x="325.01669"
         y="167.435">I</tspan></text>
    <text
       xml:space="preserve"
       style="font-style:normal;font-variant:normal;font-weight:normal;font-stretch:normal;font-size:26.86930466px;line-height:125%;font-family:'TeX Gyre Pagella';-inkscape-font-specification:'TeX Gyre Pagella';letter-spacing:0px;word-spacing:0px;fill:#000000;fill-opacity:1;stroke:none;stroke-width:1px;stroke-linecap:butt;stroke-linejoin:miter;stroke-opacity:1"
       x="391.67355"
       y="229.69745"
       id="text8801-8"
       sodipodi:linespacing="125%"><tspan
         sodipodi:role="line"
         id="tspan8803-7"
         style="font-style:normal;font-variant:normal;font-weight:normal;font-stretch:normal;font-family:'TeX Gyre Pagella';-inkscape-font-specification:'TeX Gyre Pagella';stroke-linecap:butt;stroke-linejoin:round"
         x="391.67355"
         y="229.69745">S</tspan></text>
    <path
       style="fill:none;fill-rule:evenodd;stroke:#000000;stroke-width:5.37386084;stroke-linecap:butt;stroke-linejoin:miter;stroke-miterlimit:4;stroke-dasharray:none;stroke-opacity:1"
       d="m 342.91277,127.52271 c 31.58478,3.99825 37.52498,30.85983 25.83387,58.76246"
       id="path5211-9-0"
       inkscape:connector-curvature="0"
       sodipodi:nodetypes="cc" />
    <text
       xml:space="preserve"
       style="font-style:normal;font-variant:normal;font-weight:normal;font-stretch:normal;font-size:26.86930466px;line-height:125%;font-family:'TeX Gyre Pagella';-inkscape-font-specification:'TeX Gyre Pagella';letter-spacing:0px;word-spacing:0px;fill:#000000;fill-opacity:1;stroke:none;stroke-width:1px;stroke-linecap:butt;stroke-linejoin:miter;stroke-opacity:1"
       x="307.79562"
       y="46.418663"
       id="text8801-8-1"
       sodipodi:linespacing="125%"><tspan
         sodipodi:role="line"
         id="tspan8803-7-8"
         style="font-style:normal;font-variant:normal;font-weight:normal;font-stretch:normal;font-family:'TeX Gyre Pagella';-inkscape-font-specification:'TeX Gyre Pagella';stroke-linecap:butt;stroke-linejoin:round"
         x="307.79562"
         y="46.418663">B<tspan
   style="font-size:13.97203827px;baseline-shift:sub;stroke-linecap:butt;stroke-linejoin:round"
   id="tspan8856">z</tspan></tspan></text>
    <text
       xml:space="preserve"
       style="font-style:normal;font-variant:normal;font-weight:normal;font-stretch:normal;font-size:26.86930466px;line-height:125%;font-family:'TeX Gyre Pagella';-inkscape-font-specification:'TeX Gyre Pagella';letter-spacing:0px;word-spacing:0px;fill:#000000;fill-opacity:1;stroke:none;stroke-width:1px;stroke-linecap:butt;stroke-linejoin:miter;stroke-opacity:1"
       x="378.78259"
       y="154.06926"
       id="text8801-8-7"
       sodipodi:linespacing="125%"><tspan
         sodipodi:role="line"
         id="tspan8866"
         x="378.78259"
         y="154.06926"
         style="stroke-linecap:butt;stroke-linejoin:round">θ</tspan></text>
    <text
       xml:space="preserve"
       style="font-style:normal;font-variant:normal;font-weight:normal;font-stretch:normal;font-size:26.86930466px;line-height:125%;font-family:'TeX Gyre Pagella';-inkscape-font-specification:'TeX Gyre Pagella';letter-spacing:0px;word-spacing:0px;fill:#000000;fill-opacity:1;stroke:none;stroke-width:1px;stroke-linecap:butt;stroke-linejoin:miter;stroke-opacity:1"
       x="336.98157"
       y="213.98332"
       id="text8801-8-6"
       sodipodi:linespacing="125%"><tspan
         sodipodi:role="line"
         id="tspan8803-7-2"
         style="font-style:normal;font-variant:normal;font-weight:normal;font-stretch:normal;font-family:'TeX Gyre Pagella';-inkscape-font-specification:'TeX Gyre Pagella';fill:#ffffff;stroke-linecap:butt;stroke-linejoin:round"
         x="336.98157"
         y="213.98332">+</tspan></text>
    <text
       xml:space="preserve"
       style="font-style:normal;font-variant:normal;font-weight:normal;font-stretch:normal;font-size:26.86930466px;line-height:125%;font-family:'TeX Gyre Pagella';-inkscape-font-specification:'TeX Gyre Pagella';letter-spacing:0px;word-spacing:0px;fill:#000000;fill-opacity:1;stroke:none;stroke-width:1px;stroke-linecap:butt;stroke-linejoin:miter;stroke-opacity:1"
       x="393.05893"
       y="165.76651"
       id="text8801-8-6-2-7"
       sodipodi:linespacing="125%"><tspan
         sodipodi:role="line"
         id="tspan8803-7-2-8-9"
         style="font-style:normal;font-variant:normal;font-weight:normal;font-stretch:normal;font-family:'TeX Gyre Pagella';-inkscape-font-specification:'TeX Gyre Pagella';fill:#ffffff;stroke-linecap:butt;stroke-linejoin:round"
         x="393.05893"
         y="165.76651">-</tspan></text>
    <text
       xml:space="preserve"
       style="font-style:normal;font-variant:normal;font-weight:normal;font-stretch:normal;font-size:26.86930466px;line-height:125%;font-family:'TeX Gyre Pagella';-inkscape-font-specification:'TeX Gyre Pagella';letter-spacing:0px;word-spacing:0px;fill:#000000;fill-opacity:1;stroke:none;stroke-width:1px;stroke-linecap:butt;stroke-linejoin:miter;stroke-opacity:1"
       x="345.64383"
       y="194.94542"
       id="text8801-8-9"
       sodipodi:linespacing="125%"><tspan
         sodipodi:role="line"
         id="tspan8803-7-7"
         style="font-style:normal;font-variant:normal;font-weight:normal;font-stretch:normal;font-family:'TeX Gyre Pagella';-inkscape-font-specification:'TeX Gyre Pagella';stroke-linecap:butt;stroke-linejoin:round"
         x="345.64383"
         y="194.94542">r</tspan></text>
  </g>
</svg>
