<?xml version="1.0" encoding="utf-8" standalone="no"?>
<!DOCTYPE svg PUBLIC "-//W3C//DTD SVG 1.1//EN"
  "http://www.w3.org/Graphics/SVG/1.1/DTD/svg11.dtd">
<!-- Created with matplotlib (http://matplotlib.org/) -->
<svg height="396pt" version="1.1" viewBox="0 0 576 396" width="576pt" xmlns="http://www.w3.org/2000/svg" xmlns:xlink="http://www.w3.org/1999/xlink">
 <defs>
  <style type="text/css">
*{stroke-linecap:butt;stroke-linejoin:round;}
  </style>
 </defs>
 <g id="figure_1">
  <g id="patch_1">
   <path d="
M0 396
L576 396
L576 0
L0 0
z
" style="fill:#ffffff;"/>
  </g>
  <g id="axes_1">
   <g id="patch_2">
    <path d="
M72 356.4
L518.4 356.4
L518.4 39.6
L72 39.6
z
" style="fill:#ffffff;"/>
   </g>
   <g id="matplotlib.axis_1">
    <g id="xtick_1">
     <g id="line2d_1">
      <defs>
       <path d="
M0 0
L0 6" id="m44d4eda7dc" style="stroke:#262626;"/>
      </defs>
      <g>
       <use style="fill:#262626;stroke:#262626;" x="72.0" xlink:href="#m44d4eda7dc" y="356.4"/>
      </g>
     </g>
     <g id="text_1">
      <!-- 0 -->
      <defs>
       <path d="
M31.7812 3.42188
Q39.2656 3.42188 42.9688 11.625
Q46.6875 19.8281 46.6875 36.375
Q46.6875 52.9844 42.9688 61.1875
Q39.2656 69.3906 31.7812 69.3906
Q24.3125 69.3906 20.5938 61.1875
Q16.8906 52.9844 16.8906 36.375
Q16.8906 19.8281 20.5938 11.625
Q24.3125 3.42188 31.7812 3.42188
M31.7812 -1.42188
Q19.9219 -1.42188 13.25 8.53125
Q6.59375 18.5 6.59375 36.375
Q6.59375 54.2969 13.25 64.25
Q19.9219 74.2188 31.7812 74.2188
Q43.7031 74.2188 50.3438 64.25
Q56.9844 54.2969 56.9844 36.375
Q56.9844 18.5 50.3438 8.53125
Q43.7031 -1.42188 31.7812 -1.42188" id="BitstreamVeraSerif-Roman-30"/>
      </defs>
      <g style="fill:#262626;" transform="translate(69.48046875 376.9984375)scale(0.1 -0.1)">
       <use xlink:href="#BitstreamVeraSerif-Roman-30"/>
      </g>
     </g>
    </g>
    <g id="xtick_2">
     <g id="line2d_2">
      <g>
       <use style="fill:#262626;stroke:#262626;" x="183.6" xlink:href="#m44d4eda7dc" y="356.4"/>
      </g>
     </g>
     <g id="text_2">
      <!-- 500 -->
      <defs>
       <path d="
M50.2969 72.9062
L50.2969 64.8906
L16.8906 64.8906
L16.8906 44
Q19.4375 45.75 22.8281 46.625
Q26.2188 47.5156 30.4219 47.5156
Q42.2344 47.5156 49.0625 40.9688
Q55.9062 34.4219 55.9062 23.0938
Q55.9062 11.5312 49 5.04688
Q42.0938 -1.42188 29.5938 -1.42188
Q24.5625 -1.42188 19.2812 -0.1875
Q14.0156 1.03125 8.5 3.51562
L8.5 17.6719
L14.0156 17.6719
Q14.4531 10.75 18.4219 7.07812
Q22.4062 3.42188 29.5938 3.42188
Q37.3125 3.42188 41.4531 8.5
Q45.6094 13.5781 45.6094 23.0938
Q45.6094 32.5625 41.4844 37.6094
Q37.3594 42.6719 29.5938 42.6719
Q25.2031 42.6719 21.8438 41.1094
Q18.5 39.5469 15.9219 36.2812
L11.7188 36.2812
L11.7188 72.9062
z
" id="BitstreamVeraSerif-Roman-35"/>
      </defs>
      <g style="fill:#262626;" transform="translate(174.81328125 376.9984375)scale(0.1 -0.1)">
       <use xlink:href="#BitstreamVeraSerif-Roman-35"/>
       <use x="63.623046875" xlink:href="#BitstreamVeraSerif-Roman-30"/>
       <use x="127.24609375" xlink:href="#BitstreamVeraSerif-Roman-30"/>
      </g>
     </g>
    </g>
    <g id="xtick_3">
     <g id="line2d_3">
      <g>
       <use style="fill:#262626;stroke:#262626;" x="295.2" xlink:href="#m44d4eda7dc" y="356.4"/>
      </g>
     </g>
     <g id="text_3">
      <!-- 1000 -->
      <defs>
       <path d="
M14.2031 0
L14.2031 5.17188
L26.9062 5.17188
L26.9062 65.8281
L12.2031 56.2969
L12.2031 62.7031
L29.9844 74.2188
L36.7188 74.2188
L36.7188 5.17188
L49.4219 5.17188
L49.4219 0
z
" id="BitstreamVeraSerif-Roman-31"/>
      </defs>
      <g style="fill:#262626;" transform="translate(283.4171875 376.9984375)scale(0.1 -0.1)">
       <use xlink:href="#BitstreamVeraSerif-Roman-31"/>
       <use x="63.623046875" xlink:href="#BitstreamVeraSerif-Roman-30"/>
       <use x="127.24609375" xlink:href="#BitstreamVeraSerif-Roman-30"/>
       <use x="190.869140625" xlink:href="#BitstreamVeraSerif-Roman-30"/>
      </g>
     </g>
    </g>
    <g id="xtick_4">
     <g id="line2d_4">
      <g>
       <use style="fill:#262626;stroke:#262626;" x="406.8" xlink:href="#m44d4eda7dc" y="356.4"/>
      </g>
     </g>
     <g id="text_4">
      <!-- 1500 -->
      <g style="fill:#262626;" transform="translate(395.0171875 376.9984375)scale(0.1 -0.1)">
       <use xlink:href="#BitstreamVeraSerif-Roman-31"/>
       <use x="63.623046875" xlink:href="#BitstreamVeraSerif-Roman-35"/>
       <use x="127.24609375" xlink:href="#BitstreamVeraSerif-Roman-30"/>
       <use x="190.869140625" xlink:href="#BitstreamVeraSerif-Roman-30"/>
      </g>
     </g>
    </g>
    <g id="xtick_5">
     <g id="line2d_5">
      <g>
       <use style="fill:#262626;stroke:#262626;" x="518.4" xlink:href="#m44d4eda7dc" y="356.4"/>
      </g>
     </g>
     <g id="text_5">
      <!-- 2000 -->
      <defs>
       <path d="
M12.7969 55.5156
L7.32812 55.5156
L7.32812 68.5
Q12.5469 71.2969 17.8438 72.75
Q23.1406 74.2188 28.2188 74.2188
Q39.5938 74.2188 46.1875 68.7031
Q52.7812 63.1875 52.7812 53.7188
Q52.7812 43.0156 37.8438 28.125
Q36.6719 27 36.0781 26.4219
L17.6719 8.01562
L48.0938 8.01562
L48.0938 17
L53.8125 17
L53.8125 0
L6.78125 0
L6.78125 5.32812
L28.9062 27.3906
Q36.2344 34.7188 39.3594 40.8438
Q42.4844 46.9688 42.4844 53.7188
Q42.4844 61.0781 38.6406 65.2344
Q34.8125 69.3906 28.0781 69.3906
Q21.0938 69.3906 17.2812 65.9219
Q13.4844 62.4531 12.7969 55.5156" id="BitstreamVeraSerif-Roman-32"/>
      </defs>
      <g style="fill:#262626;" transform="translate(506.34609375 376.9984375)scale(0.1 -0.1)">
       <use xlink:href="#BitstreamVeraSerif-Roman-32"/>
       <use x="63.623046875" xlink:href="#BitstreamVeraSerif-Roman-30"/>
       <use x="127.24609375" xlink:href="#BitstreamVeraSerif-Roman-30"/>
       <use x="190.869140625" xlink:href="#BitstreamVeraSerif-Roman-30"/>
      </g>
     </g>
    </g>
    <g id="text_6">
     <!-- Sequence Length (number of amino acids) -->
     <defs>
      <path d="
M35.4062 51.9062
L52.2031 51.9062
L52.2031 5.17188
L60.6875 5.17188
L60.6875 0
L43.2188 0
L43.2188 9.1875
Q40.7188 4 36.7656 1.28125
Q32.8125 -1.42188 27.5938 -1.42188
Q18.9531 -1.42188 14.875 3.48438
Q10.7969 8.40625 10.7969 18.8906
L10.7969 46.6875
L2.6875 46.6875
L2.6875 51.9062
L19.8281 51.9062
L19.8281 21.6875
Q19.8281 12.2031 22.1406 8.6875
Q24.4688 5.17188 30.4219 5.17188
Q36.6719 5.17188 39.9375 9.76562
Q43.2188 14.3594 43.2188 23.0938
L43.2188 46.6875
L35.4062 46.6875
z
" id="BitstreamVeraSerif-Roman-75"/>
      <path d="
M10.7969 46.6875
L2.875 46.6875
L2.875 51.9062
L10.7969 51.9062
L10.7969 68.0156
L19.8281 68.0156
L19.8281 51.9062
L36.7188 51.9062
L36.7188 46.6875
L19.8281 46.6875
L19.8281 13.7188
Q19.8281 7.125 21.0938 5.26562
Q22.3594 3.42188 25.7812 3.42188
Q29.2969 3.42188 30.9062 5.48438
Q32.5156 7.5625 32.625 12.2031
L39.4062 12.2031
Q39.0156 5.125 35.5469 1.84375
Q32.0781 -1.42188 25 -1.42188
Q17.2344 -1.42188 14.0156 2.01562
Q10.7969 5.46875 10.7969 13.7188
z
" id="BitstreamVeraSerif-Roman-74"/>
      <path d="
M5.60938 2.875
L5.60938 14.9844
L10.7969 14.9844
Q10.9844 9.1875 14.4219 6.29688
Q17.875 3.42188 24.6094 3.42188
Q30.6719 3.42188 33.8438 5.6875
Q37.0156 7.95312 37.0156 12.3125
Q37.0156 15.7188 34.6875 17.8125
Q32.375 19.9219 24.9062 22.3125
L18.4062 24.5156
Q11.7188 26.6562 8.71875 29.875
Q5.71875 33.1094 5.71875 38.0938
Q5.71875 45.2188 10.9375 49.2656
Q16.1562 53.3281 25.3906 53.3281
Q29.5 53.3281 34.0312 52.25
Q38.5781 51.1719 43.4062 49.125
L43.4062 37.7969
L38.2344 37.7969
Q38.0312 42.8281 34.7031 45.6562
Q31.3906 48.4844 25.6875 48.4844
Q20.0156 48.4844 17.1094 46.4844
Q14.2031 44.4844 14.2031 40.4844
Q14.2031 37.2031 16.4062 35.2188
Q18.6094 33.25 25.2031 31.2031
L32.3281 29
Q39.7031 26.7031 42.9375 23.2656
Q46.1875 19.8281 46.1875 14.4062
Q46.1875 7.03125 40.5469 2.79688
Q34.9062 -1.42188 25 -1.42188
Q19.9688 -1.42188 15.1875 -0.34375
Q10.4062 0.734375 5.60938 2.875" id="BitstreamVeraSerif-Roman-73"/>
      <path d="
M47.7969 52
L47.7969 39.0156
L42.625 39.0156
Q42.3906 42.875 40.4844 44.7812
Q38.5781 46.6875 34.9062 46.6875
Q28.2656 46.6875 24.7188 42.0938
Q21.1875 37.5 21.1875 28.9062
L21.1875 5.17188
L31.5938 5.17188
L31.5938 0
L4.10938 0
L4.10938 5.17188
L12.2031 5.17188
L12.2031 46.7812
L3.60938 46.7812
L3.60938 51.9062
L21.1875 51.9062
L21.1875 42.6719
Q23.8281 48.0938 27.9688 50.7031
Q32.125 53.3281 38.0938 53.3281
Q40.2812 53.3281 42.7031 52.9844
Q45.125 52.6406 47.7969 52" id="BitstreamVeraSerif-Roman-72"/>
      <path d="
M52.4844 46.6875
L52.4844 -15.5781
L61.0781 -15.5781
L61.0781 -20.7969
L35.0156 -20.7969
L35.0156 -15.5781
L43.5 -15.5781
L43.5 8.10938
Q40.875 3.21875 36.7969 0.890625
Q32.7188 -1.42188 26.7031 -1.42188
Q17.1406 -1.42188 11.0625 6.17188
Q4.98438 13.7656 4.98438 25.9844
Q4.98438 38.1875 11.0312 45.75
Q17.0938 53.3281 26.7031 53.3281
Q32.7188 53.3281 36.7969 51
Q40.875 48.6875 43.5 43.7969
L43.5 51.9062
L61.0781 51.9062
L61.0781 46.6875
z

M43.5 28.5156
Q43.5 37.8438 39.9062 42.7656
Q36.3281 47.7031 29.5 47.7031
Q22.5625 47.7031 19.0156 42.2344
Q15.4844 36.7656 15.4844 25.9844
Q15.4844 15.2344 19.0156 9.71875
Q22.5625 4.20312 29.5 4.20312
Q36.3281 4.20312 39.9062 9.10938
Q43.5 14.0156 43.5 23.3906
z
" id="BitstreamVeraSerif-Roman-71"/>
      <path d="
M5.51562 0
L5.51562 5.17188
L14.7969 5.17188
L14.7969 67.6719
L5.51562 67.6719
L5.51562 72.9062
L33.9844 72.9062
L33.9844 67.6719
L24.7031 67.6719
L24.7031 6
L58.0156 6
L58.0156 18.2188
L64.0156 18.2188
L64.0156 0
z
" id="BitstreamVeraSerif-Roman-4c"/>
      <path d="
M51.8125 41.7969
Q54.3906 47.5156 58.4219 50.4219
Q62.4531 53.3281 67.8281 53.3281
Q75.9844 53.3281 79.9844 48.2656
Q83.9844 43.2188 83.9844 33.0156
L83.9844 5.17188
L92.0938 5.17188
L92.0938 0
L67.1875 0
L67.1875 5.17188
L75 5.17188
L75 31.9844
Q75 39.9375 72.6562 43.3125
Q70.3125 46.6875 64.8906 46.6875
Q58.8906 46.6875 55.7344 42.1406
Q52.5938 37.5938 52.5938 28.9062
L52.5938 5.17188
L60.4062 5.17188
L60.4062 0
L35.7969 0
L35.7969 5.17188
L43.6094 5.17188
L43.6094 32.3281
Q43.6094 40.0938 41.2656 43.3906
Q38.9219 46.6875 33.5 46.6875
Q27.4844 46.6875 24.3281 42.1406
Q21.1875 37.5938 21.1875 28.9062
L21.1875 5.17188
L29 5.17188
L29 0
L4.10938 0
L4.10938 5.17188
L12.2031 5.17188
L12.2031 46.7812
L3.60938 46.7812
L3.60938 51.9062
L21.1875 51.9062
L21.1875 42.6719
Q23.6875 47.8594 27.5312 50.5938
Q31.3906 53.3281 36.2812 53.3281
Q42.3281 53.3281 46.375 50.3125
Q50.4375 47.3125 51.8125 41.7969" id="BitstreamVeraSerif-Roman-6d"/>
      <path d="
M4.10938 0
L4.10938 5.17188
L12.2031 5.17188
L12.2031 46.6875
L3.60938 46.6875
L3.60938 51.9062
L21.1875 51.9062
L21.1875 42.6719
Q23.6875 47.9531 27.6562 50.6406
Q31.6406 53.3281 36.9219 53.3281
Q45.5156 53.3281 49.5625 48.3906
Q53.6094 43.4531 53.6094 33.0156
L53.6094 5.17188
L61.625 5.17188
L61.625 0
L36.8125 0
L36.8125 5.17188
L44.5781 5.17188
L44.5781 30.1719
Q44.5781 39.7031 42.2344 43.2344
Q39.8906 46.7812 33.9844 46.7812
Q27.7344 46.7812 24.4531 42.2031
Q21.1875 37.6406 21.1875 28.9062
L21.1875 5.17188
L29 5.17188
L29 0
z
" id="BitstreamVeraSerif-Roman-6e"/>
      <path d="
M30.0781 3.42188
Q37.3125 3.42188 40.9844 9.125
Q44.6719 14.8438 44.6719 25.9844
Q44.6719 37.1094 40.9844 42.7969
Q37.3125 48.4844 30.0781 48.4844
Q22.8594 48.4844 19.1719 42.7969
Q15.4844 37.1094 15.4844 25.9844
Q15.4844 14.8438 19.1875 9.125
Q22.9062 3.42188 30.0781 3.42188
M30.0781 -1.42188
Q18.75 -1.42188 11.8594 6.07812
Q4.98438 13.5781 4.98438 25.9844
Q4.98438 38.375 11.8438 45.8438
Q18.7031 53.3281 30.0781 53.3281
Q41.4531 53.3281 48.3125 45.8438
Q55.1719 38.375 55.1719 25.9844
Q55.1719 13.5781 48.3125 6.07812
Q41.4531 -1.42188 30.0781 -1.42188" id="BitstreamVeraSerif-Roman-6f"/>
      <path d="
M9.28125 3.51562
L9.28125 20.125
L14.8906 20.0625
Q15.1406 11.7656 19.7031 7.78125
Q24.2656 3.8125 33.5938 3.8125
Q42.2812 3.8125 46.8438 7.25
Q51.4219 10.6875 51.4219 17.2812
Q51.4219 22.5625 48.6562 25.3906
Q45.9062 28.2188 37.0156 30.9062
L27.3906 33.7969
Q16.9375 36.9688 12.6719 41.7031
Q8.40625 46.4375 8.40625 54.6875
Q8.40625 63.9688 14.9844 69.0938
Q21.5781 74.2188 33.5 74.2188
Q38.5781 74.2188 44.625 73.1094
Q50.6875 72.0156 57.5156 69.9219
L57.5156 54.3906
L52 54.3906
Q51.1719 62.1094 46.8438 65.5469
Q42.5312 69 33.6875 69
Q25.9844 69 21.9531 65.8438
Q17.9219 62.7031 17.9219 56.6875
Q17.9219 51.4688 20.9375 48.4844
Q23.9688 45.5156 33.7969 42.5781
L42.8281 39.8906
Q52.7344 36.9219 56.9531 32.2969
Q61.1875 27.6875 61.1875 19.9219
Q61.1875 9.32812 54.3906 3.95312
Q47.6094 -1.42188 34.1875 -1.42188
Q28.1719 -1.42188 21.9375 -0.1875
Q15.7188 1.03125 9.28125 3.51562" id="BitstreamVeraSerif-Roman-53"/>
      <path d="
M52.4844 5.17188
L61.0781 5.17188
L61.0781 0
L43.5 0
L43.5 8.10938
Q40.875 3.21875 36.7969 0.890625
Q32.7188 -1.42188 26.7031 -1.42188
Q17.1406 -1.42188 11.0625 6.17188
Q4.98438 13.7656 4.98438 25.9844
Q4.98438 38.1875 11.0312 45.75
Q17.0938 53.3281 26.7031 53.3281
Q32.7188 53.3281 36.7969 51
Q40.875 48.6875 43.5 43.7969
L43.5 70.7969
L35.0156 70.7969
L35.0156 75.9844
L52.4844 75.9844
z

M43.5 23.3906
L43.5 28.5156
Q43.5 37.8438 39.9062 42.7656
Q36.3281 47.7031 29.5 47.7031
Q22.5625 47.7031 19.0156 42.2344
Q15.4844 36.7656 15.4844 25.9844
Q15.4844 15.2344 19.0156 9.71875
Q22.5625 4.20312 29.5 4.20312
Q36.3281 4.20312 39.9062 9.10938
Q43.5 14.0156 43.5 23.3906" id="BitstreamVeraSerif-Roman-64"/>
      <path d="
M7.07812 -15.5781
L7.07812 -10.7969
Q14.5938 -5.60938 17.8906 3.78125
Q21.1875 13.1875 21.1875 30.1719
Q21.1875 47.2188 17.8906 56.6094
Q14.5938 66.0156 7.07812 71.1875
L7.07812 75.9844
Q19 70.6562 25.0469 59.1094
Q31.1094 47.5625 31.1094 30.1719
Q31.1094 12.8438 25.0469 1.29688
Q19 -10.25 7.07812 -15.5781" id="BitstreamVeraSerif-Roman-29"/>
      <path d="
M31.8906 -15.5781
Q20.0156 -10.25 13.9531 1.29688
Q7.90625 12.8438 7.90625 30.1719
Q7.90625 47.5625 13.9531 59.1094
Q20.0156 70.6562 31.8906 75.9844
L31.8906 71.1875
Q24.3594 66.0156 21.0938 56.6094
Q17.8281 47.2188 17.8281 30.1719
Q17.8281 13.1875 21.0938 3.78125
Q24.3594 -5.60938 31.8906 -10.7969
z
" id="BitstreamVeraSerif-Roman-28"/>
      <path d="
M54.2031 25
L15.4844 25
L15.4844 24.6094
Q15.4844 14.1094 19.4375 8.76562
Q23.3906 3.42188 31.1094 3.42188
Q37.0156 3.42188 40.7969 6.51562
Q44.5781 9.625 46.0938 15.7188
L53.3281 15.7188
Q51.1719 7.17188 45.375 2.875
Q39.5938 -1.42188 30.1719 -1.42188
Q18.7969 -1.42188 11.8906 6.07812
Q4.98438 13.5781 4.98438 25.9844
Q4.98438 38.2812 11.7656 45.7969
Q18.5625 53.3281 29.5938 53.3281
Q41.3594 53.3281 47.6562 46.0625
Q53.9531 38.8125 54.2031 25
M43.6094 30.1719
Q43.3125 39.2656 39.7656 43.875
Q36.2344 48.4844 29.5938 48.4844
Q23.3906 48.4844 19.8281 43.8438
Q16.2656 39.2031 15.4844 30.1719
z
" id="BitstreamVeraSerif-Roman-65"/>
      <path d="
M43.0156 63.7188
L38.2812 63.7188
Q38.2344 67.3906 36.2031 69.2812
Q34.1875 71.1875 30.3281 71.1875
Q25.2969 71.1875 23.2344 68.4219
Q21.1875 65.6719 21.1875 58.5938
L21.1875 51.9062
L35.6875 51.9062
L35.6875 46.6875
L21.1875 46.6875
L21.1875 5.17188
L32.7188 5.17188
L32.7188 0
L3.60938 0
L3.60938 5.17188
L12.2031 5.17188
L12.2031 46.6875
L3.60938 46.6875
L3.60938 51.9062
L12.2031 51.9062
L12.2031 58.4062
Q12.2031 67.0938 16.7188 71.5312
Q21.2344 75.9844 29.9844 75.9844
Q33.25 75.9844 36.5156 75.3906
Q39.7969 74.8125 43.0156 73.5781
z
" id="BitstreamVeraSerif-Roman-66"/>
      <path d="
M52.4844 46.6875
L52.4844 1.125
Q52.4844 -10.0625 46.3281 -16.1406
Q40.1875 -22.2188 28.8125 -22.2188
Q23.6875 -22.2188 19 -21.2812
Q14.3125 -20.3594 10.0156 -18.5
L10.0156 -7.625
L14.7031 -7.625
Q15.5781 -12.7031 18.8438 -15.0469
Q22.125 -17.3906 28.2188 -17.3906
Q36.1406 -17.3906 39.8125 -12.9219
Q43.5 -8.45312 43.5 1.125
L43.5 8.10938
Q40.875 3.21875 36.7969 0.890625
Q32.7188 -1.42188 26.7031 -1.42188
Q17.1406 -1.42188 11.0625 6.17188
Q4.98438 13.7656 4.98438 25.9844
Q4.98438 38.1875 11.0312 45.75
Q17.0938 53.3281 26.7031 53.3281
Q32.7188 53.3281 36.7969 51
Q40.875 48.6875 43.5 43.7969
L43.5 51.9062
L61.0781 51.9062
L61.0781 46.6875
z

M43.5 28.5156
Q43.5 37.8438 39.9062 42.7656
Q36.3281 47.7031 29.5 47.7031
Q22.5625 47.7031 19.0156 42.2344
Q15.4844 36.7656 15.4844 25.9844
Q15.4844 15.2344 19.0156 9.71875
Q22.5625 4.20312 29.5 4.20312
Q36.3281 4.20312 39.9062 9.10938
Q43.5 14.0156 43.5 23.3906
z
" id="BitstreamVeraSerif-Roman-67"/>
      <path d="
M39.7969 16.3125
L39.7969 27.2969
L28.2188 27.2969
Q21.5312 27.2969 18.25 24.4062
Q14.9844 21.5312 14.9844 15.5781
Q14.9844 10.1562 18.2969 6.98438
Q21.625 3.8125 27.2969 3.8125
Q32.9062 3.8125 36.3438 7.28125
Q39.7969 10.75 39.7969 16.3125
M48.7812 32.4219
L48.7812 5.17188
L56.7812 5.17188
L56.7812 0
L39.7969 0
L39.7969 5.60938
Q36.8125 2 32.9062 0.28125
Q29 -1.42188 23.7812 -1.42188
Q15.1406 -1.42188 10.0625 3.17188
Q4.98438 7.76562 4.98438 15.5781
Q4.98438 23.6406 10.7969 28.0781
Q16.6094 32.5156 27.2031 32.5156
L39.7969 32.5156
L39.7969 36.0781
Q39.7969 42 36.2031 45.2344
Q32.625 48.4844 26.125 48.4844
Q20.75 48.4844 17.5781 46.0469
Q14.4062 43.6094 13.625 38.8125
L8.98438 38.8125
L8.98438 49.3125
Q13.6719 51.3125 18.0938 52.3125
Q22.5156 53.3281 26.7031 53.3281
Q37.5 53.3281 43.1406 47.9688
Q48.7812 42.625 48.7812 32.4219" id="BitstreamVeraSerif-Roman-61"/>
      <path d="
M11.5312 5.17188
L11.5312 70.7969
L2.875 70.7969
L2.875 75.9844
L20.5156 75.9844
L20.5156 43.7969
Q23.1406 48.6875 27.2188 51
Q31.2969 53.3281 37.3125 53.3281
Q46.875 53.3281 52.9219 45.75
Q58.9844 38.1875 58.9844 25.9844
Q58.9844 13.7656 52.9219 6.17188
Q46.875 -1.42188 37.3125 -1.42188
Q31.2969 -1.42188 27.2188 0.890625
Q23.1406 3.21875 20.5156 8.10938
L20.5156 0
L2.875 0
L2.875 5.17188
z

M20.5156 23.3906
Q20.5156 14.0156 24.0938 9.10938
Q27.6875 4.20312 34.5156 4.20312
Q41.4062 4.20312 44.9375 9.71875
Q48.4844 15.2344 48.4844 25.9844
Q48.4844 36.7656 44.9375 42.2344
Q41.4062 47.7031 34.5156 47.7031
Q27.6875 47.7031 24.0938 42.7656
Q20.5156 37.8438 20.5156 28.5156
z
" id="BitstreamVeraSerif-Roman-62"/>
      <path d="
M51.4219 15.5781
Q49.5156 7.28125 44.0938 2.92188
Q38.6719 -1.42188 30.0781 -1.42188
Q18.75 -1.42188 11.8594 6.07812
Q4.98438 13.5781 4.98438 25.9844
Q4.98438 38.4219 11.8594 45.875
Q18.75 53.3281 30.0781 53.3281
Q35.0156 53.3281 39.8906 52.1719
Q44.7812 51.0312 49.7031 48.6875
L49.7031 35.4062
L44.4844 35.4062
Q43.4531 42.2344 40.0156 45.3594
Q36.5781 48.4844 30.1719 48.4844
Q22.9062 48.4844 19.1875 42.8438
Q15.4844 37.2031 15.4844 25.9844
Q15.4844 14.75 19.1719 9.07812
Q22.8594 3.42188 30.1719 3.42188
Q35.9844 3.42188 39.4531 6.4375
Q42.9219 9.46875 44.1875 15.5781
z
" id="BitstreamVeraSerif-Roman-63"/>
      <path id="BitstreamVeraSerif-Roman-20"/>
      <path d="
M4.10938 0
L4.10938 5.17188
L12.2031 5.17188
L12.2031 70.7969
L3.60938 70.7969
L3.60938 75.9844
L21.1875 75.9844
L21.1875 42.6719
Q23.6875 47.9531 27.6562 50.6406
Q31.6406 53.3281 36.9219 53.3281
Q45.5156 53.3281 49.5625 48.3906
Q53.6094 43.4531 53.6094 33.0156
L53.6094 5.17188
L61.625 5.17188
L61.625 0
L36.8125 0
L36.8125 5.17188
L44.5781 5.17188
L44.5781 30.1719
Q44.5781 39.7031 42.25 43.1875
Q39.9375 46.6875 33.9844 46.6875
Q27.7344 46.6875 24.4531 42.1406
Q21.1875 37.5938 21.1875 28.9062
L21.1875 5.17188
L29 5.17188
L29 0
z
" id="BitstreamVeraSerif-Roman-68"/>
      <path d="
M9.71875 68.0156
Q9.71875 70.2656 11.3438 71.9219
Q12.9844 73.5781 15.2812 73.5781
Q17.5312 73.5781 19.1562 71.9219
Q20.7969 70.2656 20.7969 68.0156
Q20.7969 65.7188 19.1875 64.1094
Q17.5781 62.5 15.2812 62.5
Q12.9844 62.5 11.3438 64.1094
Q9.71875 65.7188 9.71875 68.0156
M21.1875 5.17188
L29.6875 5.17188
L29.6875 0
L3.60938 0
L3.60938 5.17188
L12.2031 5.17188
L12.2031 46.6875
L3.60938 46.6875
L3.60938 51.9062
L21.1875 51.9062
z
" id="BitstreamVeraSerif-Roman-69"/>
     </defs>
     <g style="fill:#262626;" transform="translate(177.039375 392.43640625)scale(0.11 -0.11)">
      <use xlink:href="#BitstreamVeraSerif-Roman-53"/>
      <use x="68.505859375" xlink:href="#BitstreamVeraSerif-Roman-65"/>
      <use x="127.685546875" xlink:href="#BitstreamVeraSerif-Roman-71"/>
      <use x="191.69921875" xlink:href="#BitstreamVeraSerif-Roman-75"/>
      <use x="256.103515625" xlink:href="#BitstreamVeraSerif-Roman-65"/>
      <use x="315.283203125" xlink:href="#BitstreamVeraSerif-Roman-6e"/>
      <use x="379.6875" xlink:href="#BitstreamVeraSerif-Roman-63"/>
      <use x="435.693359375" xlink:href="#BitstreamVeraSerif-Roman-65"/>
      <use x="494.873046875" xlink:href="#BitstreamVeraSerif-Roman-20"/>
      <use x="526.66015625" xlink:href="#BitstreamVeraSerif-Roman-4c"/>
      <use x="593.06640625" xlink:href="#BitstreamVeraSerif-Roman-65"/>
      <use x="652.24609375" xlink:href="#BitstreamVeraSerif-Roman-6e"/>
      <use x="716.650390625" xlink:href="#BitstreamVeraSerif-Roman-67"/>
      <use x="780.6640625" xlink:href="#BitstreamVeraSerif-Roman-74"/>
      <use x="820.849609375" xlink:href="#BitstreamVeraSerif-Roman-68"/>
      <use x="885.25390625" xlink:href="#BitstreamVeraSerif-Roman-20"/>
      <use x="917.041015625" xlink:href="#BitstreamVeraSerif-Roman-28"/>
      <use x="956.0546875" xlink:href="#BitstreamVeraSerif-Roman-6e"/>
      <use x="1020.45898438" xlink:href="#BitstreamVeraSerif-Roman-75"/>
      <use x="1084.86328125" xlink:href="#BitstreamVeraSerif-Roman-6d"/>
      <use x="1179.6875" xlink:href="#BitstreamVeraSerif-Roman-62"/>
      <use x="1243.70117188" xlink:href="#BitstreamVeraSerif-Roman-65"/>
      <use x="1302.88085938" xlink:href="#BitstreamVeraSerif-Roman-72"/>
      <use x="1350.68359375" xlink:href="#BitstreamVeraSerif-Roman-20"/>
      <use x="1382.47070312" xlink:href="#BitstreamVeraSerif-Roman-6f"/>
      <use x="1442.67578125" xlink:href="#BitstreamVeraSerif-Roman-66"/>
      <use x="1479.6875" xlink:href="#BitstreamVeraSerif-Roman-20"/>
      <use x="1511.47460938" xlink:href="#BitstreamVeraSerif-Roman-61"/>
      <use x="1571.09375" xlink:href="#BitstreamVeraSerif-Roman-6d"/>
      <use x="1665.91796875" xlink:href="#BitstreamVeraSerif-Roman-69"/>
      <use x="1697.90039062" xlink:href="#BitstreamVeraSerif-Roman-6e"/>
      <use x="1762.3046875" xlink:href="#BitstreamVeraSerif-Roman-6f"/>
      <use x="1822.50976562" xlink:href="#BitstreamVeraSerif-Roman-20"/>
      <use x="1854.296875" xlink:href="#BitstreamVeraSerif-Roman-61"/>
      <use x="1913.91601562" xlink:href="#BitstreamVeraSerif-Roman-63"/>
      <use x="1969.921875" xlink:href="#BitstreamVeraSerif-Roman-69"/>
      <use x="2001.90429688" xlink:href="#BitstreamVeraSerif-Roman-64"/>
      <use x="2065.91796875" xlink:href="#BitstreamVeraSerif-Roman-73"/>
      <use x="2117.23632812" xlink:href="#BitstreamVeraSerif-Roman-29"/>
     </g>
    </g>
   </g>
   <g id="matplotlib.axis_2">
    <g id="ytick_1">
     <g id="line2d_6">
      <defs>
       <path d="
M0 0
L-6 0" id="m0dfa6ce036" style="stroke:#262626;"/>
      </defs>
      <g>
       <use style="fill:#262626;stroke:#262626;" x="72.0" xlink:href="#m0dfa6ce036" y="356.4"/>
      </g>
     </g>
     <g id="text_7">
      <!-- 0 -->
      <g style="fill:#262626;" transform="translate(53.9609375 359.159375)scale(0.1 -0.1)">
       <use xlink:href="#BitstreamVeraSerif-Roman-30"/>
      </g>
     </g>
    </g>
    <g id="ytick_2">
     <g id="line2d_7">
      <g>
       <use style="fill:#262626;stroke:#262626;" x="72.0" xlink:href="#m0dfa6ce036" y="303.6"/>
      </g>
     </g>
     <g id="text_8">
      <!-- 500 -->
      <g style="fill:#262626;" transform="translate(41.4265625 306.359375)scale(0.1 -0.1)">
       <use xlink:href="#BitstreamVeraSerif-Roman-35"/>
       <use x="63.623046875" xlink:href="#BitstreamVeraSerif-Roman-30"/>
       <use x="127.24609375" xlink:href="#BitstreamVeraSerif-Roman-30"/>
      </g>
     </g>
    </g>
    <g id="ytick_3">
     <g id="line2d_8">
      <g>
       <use style="fill:#262626;stroke:#262626;" x="72.0" xlink:href="#m0dfa6ce036" y="250.8"/>
      </g>
     </g>
     <g id="text_9">
      <!-- 1000 -->
      <g style="fill:#262626;" transform="translate(35.434375 253.559375)scale(0.1 -0.1)">
       <use xlink:href="#BitstreamVeraSerif-Roman-31"/>
       <use x="63.623046875" xlink:href="#BitstreamVeraSerif-Roman-30"/>
       <use x="127.24609375" xlink:href="#BitstreamVeraSerif-Roman-30"/>
       <use x="190.869140625" xlink:href="#BitstreamVeraSerif-Roman-30"/>
      </g>
     </g>
    </g>
    <g id="ytick_4">
     <g id="line2d_9">
      <g>
       <use style="fill:#262626;stroke:#262626;" x="72.0" xlink:href="#m0dfa6ce036" y="198.0"/>
      </g>
     </g>
     <g id="text_10">
      <!-- 1500 -->
      <g style="fill:#262626;" transform="translate(35.434375 200.759375)scale(0.1 -0.1)">
       <use xlink:href="#BitstreamVeraSerif-Roman-31"/>
       <use x="63.623046875" xlink:href="#BitstreamVeraSerif-Roman-35"/>
       <use x="127.24609375" xlink:href="#BitstreamVeraSerif-Roman-30"/>
       <use x="190.869140625" xlink:href="#BitstreamVeraSerif-Roman-30"/>
      </g>
     </g>
    </g>
    <g id="ytick_5">
     <g id="line2d_10">
      <g>
       <use style="fill:#262626;stroke:#262626;" x="72.0" xlink:href="#m0dfa6ce036" y="145.2"/>
      </g>
     </g>
     <g id="text_11">
      <!-- 2000 -->
      <g style="fill:#262626;" transform="translate(34.8921875 147.959375)scale(0.1 -0.1)">
       <use xlink:href="#BitstreamVeraSerif-Roman-32"/>
       <use x="63.623046875" xlink:href="#BitstreamVeraSerif-Roman-30"/>
       <use x="127.24609375" xlink:href="#BitstreamVeraSerif-Roman-30"/>
       <use x="190.869140625" xlink:href="#BitstreamVeraSerif-Roman-30"/>
      </g>
     </g>
    </g>
    <g id="ytick_6">
     <g id="line2d_11">
      <g>
       <use style="fill:#262626;stroke:#262626;" x="72.0" xlink:href="#m0dfa6ce036" y="92.4"/>
      </g>
     </g>
     <g id="text_12">
      <!-- 2500 -->
      <g style="fill:#262626;" transform="translate(34.8921875 95.159375)scale(0.1 -0.1)">
       <use xlink:href="#BitstreamVeraSerif-Roman-32"/>
       <use x="63.623046875" xlink:href="#BitstreamVeraSerif-Roman-35"/>
       <use x="127.24609375" xlink:href="#BitstreamVeraSerif-Roman-30"/>
       <use x="190.869140625" xlink:href="#BitstreamVeraSerif-Roman-30"/>
      </g>
     </g>
    </g>
    <g id="ytick_7">
     <g id="line2d_12">
      <g>
       <use style="fill:#262626;stroke:#262626;" x="72.0" xlink:href="#m0dfa6ce036" y="39.6"/>
      </g>
     </g>
     <g id="text_13">
      <!-- 3000 -->
      <defs>
       <path d="
M9.71875 69.8281
Q15.4375 71.9688 20.6719 73.0938
Q25.9219 74.2188 30.5156 74.2188
Q41.2188 74.2188 47.2188 69.5938
Q53.2188 64.9844 53.2188 56.7812
Q53.2188 50.2031 49.0625 45.7812
Q44.9219 41.3594 37.3125 39.7969
Q46.2969 38.5312 51.25 33.2812
Q56.2031 28.0312 56.2031 19.6719
Q56.2031 9.46875 49.3438 4.01562
Q42.4844 -1.42188 29.5938 -1.42188
Q23.875 -1.42188 18.4219 -0.1875
Q12.9844 1.03125 7.625 3.51562
L7.625 17.6719
L13.0938 17.6719
Q13.5781 10.6406 17.8281 7.03125
Q22.0781 3.42188 29.7812 3.42188
Q37.25 3.42188 41.5781 7.73438
Q45.9062 12.0625 45.9062 19.5781
Q45.9062 28.1719 41.4531 32.5938
Q37.0156 37.0156 28.4219 37.0156
L23.7812 37.0156
L23.7812 42
L26.2188 42
Q34.7656 42 39.0312 45.5312
Q43.3125 49.0781 43.3125 56.2031
Q43.3125 62.5938 39.7969 65.9844
Q36.2812 69.3906 29.6875 69.3906
Q23.0938 69.3906 19.4531 66.2656
Q15.8281 63.1406 15.1875 56.9844
L9.71875 56.9844
z
" id="BitstreamVeraSerif-Roman-33"/>
      </defs>
      <g style="fill:#262626;" transform="translate(34.9765625 42.359375)scale(0.1 -0.1)">
       <use xlink:href="#BitstreamVeraSerif-Roman-33"/>
       <use x="63.623046875" xlink:href="#BitstreamVeraSerif-Roman-30"/>
       <use x="127.24609375" xlink:href="#BitstreamVeraSerif-Roman-30"/>
       <use x="190.869140625" xlink:href="#BitstreamVeraSerif-Roman-30"/>
      </g>
     </g>
    </g>
    <g id="text_14">
     <!-- Frequency -->
     <defs>
      <path d="
M5.51562 0
L5.51562 5.17188
L14.7969 5.17188
L14.7969 67.6719
L5.51562 67.6719
L5.51562 72.9062
L65.1875 72.9062
L65.1875 56.6875
L59.1875 56.6875
L59.1875 66.8906
L24.7031 66.8906
L24.7031 42.4844
L49.6094 42.4844
L49.6094 51.6094
L55.6094 51.6094
L55.6094 27.3906
L49.6094 27.3906
L49.6094 36.5312
L24.7031 36.5312
L24.7031 5.17188
L36.375 5.17188
L36.375 0
z
" id="BitstreamVeraSerif-Roman-46"/>
      <path d="
M21.5781 -9.51562
L25 -0.875
L5.60938 46.6875
L-0.296875 46.6875
L-0.296875 51.9062
L23.5781 51.9062
L23.5781 46.6875
L15.2812 46.6875
L29.8906 10.9844
L44.4844 46.6875
L36.7188 46.6875
L36.7188 51.9062
L56.2031 51.9062
L56.2031 46.6875
L50.3906 46.6875
L26.6094 -11.7188
Q24.1719 -17.7812 21.1875 -20
Q18.2188 -22.2188 12.7969 -22.2188
Q10.5 -22.2188 8.07812 -21.8281
Q5.67188 -21.4375 3.21875 -20.7031
L3.21875 -10.7969
L7.8125 -10.7969
Q8.10938 -14.1094 9.5 -15.5469
Q10.8906 -17 13.8125 -17
Q16.5 -17 18.1406 -15.5
Q19.7812 -14.0156 21.5781 -9.51562" id="BitstreamVeraSerif-Roman-79"/>
     </defs>
     <g style="fill:#262626;" transform="translate(27.448125 227.429296875)rotate(-90.0)scale(0.11 -0.11)">
      <use xlink:href="#BitstreamVeraSerif-Roman-46"/>
      <use x="69.384765625" xlink:href="#BitstreamVeraSerif-Roman-72"/>
      <use x="117.1875" xlink:href="#BitstreamVeraSerif-Roman-65"/>
      <use x="176.3671875" xlink:href="#BitstreamVeraSerif-Roman-71"/>
      <use x="240.380859375" xlink:href="#BitstreamVeraSerif-Roman-75"/>
      <use x="304.78515625" xlink:href="#BitstreamVeraSerif-Roman-65"/>
      <use x="363.96484375" xlink:href="#BitstreamVeraSerif-Roman-6e"/>
      <use x="428.369140625" xlink:href="#BitstreamVeraSerif-Roman-63"/>
      <use x="484.375" xlink:href="#BitstreamVeraSerif-Roman-79"/>
     </g>
    </g>
   </g>
   <g id="patch_3">
    <path clip-path="url(#p3d386a08f4)" d="
M72 356.4
L76.464 356.4
L76.464 350.17
L72 350.17
z
" style="fill:#2ca25f;stroke:#000000;stroke-width:0.3;"/>
   </g>
   <g id="patch_4">
    <path clip-path="url(#p3d386a08f4)" d="
M76.464 356.4
L80.928 356.4
L80.928 278.045
L76.464 278.045
z
" style="fill:#2ca25f;stroke:#000000;stroke-width:0.3;"/>
   </g>
   <g id="patch_5">
    <path clip-path="url(#p3d386a08f4)" d="
M80.928 356.4
L85.392 356.4
L85.392 264.95
L80.928 264.95
z
" style="fill:#2ca25f;stroke:#000000;stroke-width:0.3;"/>
   </g>
   <g id="patch_6">
    <path clip-path="url(#p3d386a08f4)" d="
M85.392 356.4
L89.856 356.4
L89.856 209.405
L85.392 209.405
z
" style="fill:#2ca25f;stroke:#000000;stroke-width:0.3;"/>
   </g>
   <g id="patch_7">
    <path clip-path="url(#p3d386a08f4)" d="
M89.856 356.4
L94.32 356.4
L94.32 194.198
L89.856 194.198
z
" style="fill:#2ca25f;stroke:#000000;stroke-width:0.3;"/>
   </g>
   <g id="patch_8">
    <path clip-path="url(#p3d386a08f4)" d="
M94.32 356.4
L98.784 356.4
L98.784 169.382
L94.32 169.382
z
" style="fill:#2ca25f;stroke:#000000;stroke-width:0.3;"/>
   </g>
   <g id="patch_9">
    <path clip-path="url(#p3d386a08f4)" d="
M98.784 356.4
L103.248 356.4
L103.248 146.15
L98.784 146.15
z
" style="fill:#2ca25f;stroke:#000000;stroke-width:0.3;"/>
   </g>
   <g id="patch_10">
    <path clip-path="url(#p3d386a08f4)" d="
M103.248 356.4
L107.712 356.4
L107.712 153.542
L103.248 153.542
z
" style="fill:#2ca25f;stroke:#000000;stroke-width:0.3;"/>
   </g>
   <g id="patch_11">
    <path clip-path="url(#p3d386a08f4)" d="
M107.712 356.4
L112.176 356.4
L112.176 86.3808
L107.712 86.3808
z
" style="fill:#2ca25f;stroke:#000000;stroke-width:0.3;"/>
   </g>
   <g id="patch_12">
    <path clip-path="url(#p3d386a08f4)" d="
M112.176 356.4
L116.64 356.4
L116.64 74.1312
L112.176 74.1312
z
" style="fill:#2ca25f;stroke:#000000;stroke-width:0.3;"/>
   </g>
   <g id="patch_13">
    <path clip-path="url(#p3d386a08f4)" d="
M116.64 356.4
L121.104 356.4
L121.104 94.3008
L116.64 94.3008
z
" style="fill:#2ca25f;stroke:#000000;stroke-width:0.3;"/>
   </g>
   <g id="patch_14">
    <path clip-path="url(#p3d386a08f4)" d="
M121.104 356.4
L125.568 356.4
L125.568 117.533
L121.104 117.533
z
" style="fill:#2ca25f;stroke:#000000;stroke-width:0.3;"/>
   </g>
   <g id="patch_15">
    <path clip-path="url(#p3d386a08f4)" d="
M125.568 356.4
L130.032 356.4
L130.032 126.931
L125.568 126.931
z
" style="fill:#2ca25f;stroke:#000000;stroke-width:0.3;"/>
   </g>
   <g id="patch_16">
    <path clip-path="url(#p3d386a08f4)" d="
M130.032 356.4
L134.496 356.4
L134.496 94.6176
L130.032 94.6176
z
" style="fill:#2ca25f;stroke:#000000;stroke-width:0.3;"/>
   </g>
   <g id="patch_17">
    <path clip-path="url(#p3d386a08f4)" d="
M134.496 356.4
L138.96 356.4
L138.96 77.1936
L134.496 77.1936
z
" style="fill:#2ca25f;stroke:#000000;stroke-width:0.3;"/>
   </g>
   <g id="patch_18">
    <path clip-path="url(#p3d386a08f4)" d="
M138.96 356.4
L143.424 356.4
L143.424 83.3184
L138.96 83.3184
z
" style="fill:#2ca25f;stroke:#000000;stroke-width:0.3;"/>
   </g>
   <g id="patch_19">
    <path clip-path="url(#p3d386a08f4)" d="
M143.424 356.4
L147.888 356.4
L147.888 132.739
L143.424 132.739
z
" style="fill:#2ca25f;stroke:#000000;stroke-width:0.3;"/>
   </g>
   <g id="patch_20">
    <path clip-path="url(#p3d386a08f4)" d="
M147.888 356.4
L152.352 356.4
L152.352 97.8912
L147.888 97.8912
z
" style="fill:#2ca25f;stroke:#000000;stroke-width:0.3;"/>
   </g>
   <g id="patch_21">
    <path clip-path="url(#p3d386a08f4)" d="
M152.352 356.4
L156.816 356.4
L156.816 112.147
L152.352 112.147
z
" style="fill:#2ca25f;stroke:#000000;stroke-width:0.3;"/>
   </g>
   <g id="patch_22">
    <path clip-path="url(#p3d386a08f4)" d="
M156.816 356.4
L161.28 356.4
L161.28 167.27
L156.816 167.27
z
" style="fill:#2ca25f;stroke:#000000;stroke-width:0.3;"/>
   </g>
   <g id="patch_23">
    <path clip-path="url(#p3d386a08f4)" d="
M161.28 356.4
L165.744 356.4
L165.744 186.806
L161.28 186.806
z
" style="fill:#2ca25f;stroke:#000000;stroke-width:0.3;"/>
   </g>
   <g id="patch_24">
    <path clip-path="url(#p3d386a08f4)" d="
M165.744 356.4
L170.208 356.4
L170.208 225.139
L165.744 225.139
z
" style="fill:#2ca25f;stroke:#000000;stroke-width:0.3;"/>
   </g>
   <g id="patch_25">
    <path clip-path="url(#p3d386a08f4)" d="
M170.208 356.4
L174.672 356.4
L174.672 204.864
L170.208 204.864
z
" style="fill:#2ca25f;stroke:#000000;stroke-width:0.3;"/>
   </g>
   <g id="patch_26">
    <path clip-path="url(#p3d386a08f4)" d="
M174.672 356.4
L179.136 356.4
L179.136 188.074
L174.672 188.074
z
" style="fill:#2ca25f;stroke:#000000;stroke-width:0.3;"/>
   </g>
   <g id="patch_27">
    <path clip-path="url(#p3d386a08f4)" d="
M179.136 356.4
L183.6 356.4
L183.6 188.813
L179.136 188.813
z
" style="fill:#2ca25f;stroke:#000000;stroke-width:0.3;"/>
   </g>
   <g id="patch_28">
    <path clip-path="url(#p3d386a08f4)" d="
M183.6 356.4
L188.064 356.4
L188.064 143.933
L183.6 143.933
z
" style="fill:#2ca25f;stroke:#000000;stroke-width:0.3;"/>
   </g>
   <g id="patch_29">
    <path clip-path="url(#p3d386a08f4)" d="
M188.064 356.4
L192.528 356.4
L192.528 203.914
L188.064 203.914
z
" style="fill:#2ca25f;stroke:#000000;stroke-width:0.3;"/>
   </g>
   <g id="patch_30">
    <path clip-path="url(#p3d386a08f4)" d="
M192.528 356.4
L196.992 356.4
L196.992 234.01
L192.528 234.01
z
" style="fill:#2ca25f;stroke:#000000;stroke-width:0.3;"/>
   </g>
   <g id="patch_31">
    <path clip-path="url(#p3d386a08f4)" d="
M196.992 356.4
L201.456 356.4
L201.456 251.222
L196.992 251.222
z
" style="fill:#2ca25f;stroke:#000000;stroke-width:0.3;"/>
   </g>
   <g id="patch_32">
    <path clip-path="url(#p3d386a08f4)" d="
M201.456 356.4
L205.92 356.4
L205.92 252.806
L201.456 252.806
z
" style="fill:#2ca25f;stroke:#000000;stroke-width:0.3;"/>
   </g>
   <g id="patch_33">
    <path clip-path="url(#p3d386a08f4)" d="
M205.92 356.4
L210.384 356.4
L210.384 257.136
L205.92 257.136
z
" style="fill:#2ca25f;stroke:#000000;stroke-width:0.3;"/>
   </g>
   <g id="patch_34">
    <path clip-path="url(#p3d386a08f4)" d="
M210.384 356.4
L214.848 356.4
L214.848 277.728
L210.384 277.728
z
" style="fill:#2ca25f;stroke:#000000;stroke-width:0.3;"/>
   </g>
   <g id="patch_35">
    <path clip-path="url(#p3d386a08f4)" d="
M214.848 356.4
L219.312 356.4
L219.312 280.157
L214.848 280.157
z
" style="fill:#2ca25f;stroke:#000000;stroke-width:0.3;"/>
   </g>
   <g id="patch_36">
    <path clip-path="url(#p3d386a08f4)" d="
M219.312 356.4
L223.776 356.4
L223.776 284.909
L219.312 284.909
z
" style="fill:#2ca25f;stroke:#000000;stroke-width:0.3;"/>
   </g>
   <g id="patch_37">
    <path clip-path="url(#p3d386a08f4)" d="
M223.776 356.4
L228.24 356.4
L228.24 302.016
L223.776 302.016
z
" style="fill:#2ca25f;stroke:#000000;stroke-width:0.3;"/>
   </g>
   <g id="patch_38">
    <path clip-path="url(#p3d386a08f4)" d="
M228.24 356.4
L232.704 356.4
L232.704 304.867
L228.24 304.867
z
" style="fill:#2ca25f;stroke:#000000;stroke-width:0.3;"/>
   </g>
   <g id="patch_39">
    <path clip-path="url(#p3d386a08f4)" d="
M232.704 356.4
L237.168 356.4
L237.168 306.557
L232.704 306.557
z
" style="fill:#2ca25f;stroke:#000000;stroke-width:0.3;"/>
   </g>
   <g id="patch_40">
    <path clip-path="url(#p3d386a08f4)" d="
M237.168 356.4
L241.632 356.4
L241.632 308.458
L237.168 308.458
z
" style="fill:#2ca25f;stroke:#000000;stroke-width:0.3;"/>
   </g>
   <g id="patch_41">
    <path clip-path="url(#p3d386a08f4)" d="
M241.632 356.4
L246.096 356.4
L246.096 313.21
L241.632 313.21
z
" style="fill:#2ca25f;stroke:#000000;stroke-width:0.3;"/>
   </g>
   <g id="patch_42">
    <path clip-path="url(#p3d386a08f4)" d="
M246.096 356.4
L250.56 356.4
L250.56 308.669
L246.096 308.669
z
" style="fill:#2ca25f;stroke:#000000;stroke-width:0.3;"/>
   </g>
   <g id="patch_43">
    <path clip-path="url(#p3d386a08f4)" d="
M250.56 356.4
L255.024 356.4
L255.024 317.434
L250.56 317.434
z
" style="fill:#2ca25f;stroke:#000000;stroke-width:0.3;"/>
   </g>
   <g id="patch_44">
    <path clip-path="url(#p3d386a08f4)" d="
M255.024 356.4
L259.488 356.4
L259.488 315.85
L255.024 315.85
z
" style="fill:#2ca25f;stroke:#000000;stroke-width:0.3;"/>
   </g>
   <g id="patch_45">
    <path clip-path="url(#p3d386a08f4)" d="
M259.488 356.4
L263.952 356.4
L263.952 318.173
L259.488 318.173
z
" style="fill:#2ca25f;stroke:#000000;stroke-width:0.3;"/>
   </g>
   <g id="patch_46">
    <path clip-path="url(#p3d386a08f4)" d="
M263.952 356.4
L268.416 356.4
L268.416 323.664
L263.952 323.664
z
" style="fill:#2ca25f;stroke:#000000;stroke-width:0.3;"/>
   </g>
   <g id="patch_47">
    <path clip-path="url(#p3d386a08f4)" d="
M268.416 356.4
L272.88 356.4
L272.88 322.608
L268.416 322.608
z
" style="fill:#2ca25f;stroke:#000000;stroke-width:0.3;"/>
   </g>
   <g id="patch_48">
    <path clip-path="url(#p3d386a08f4)" d="
M272.88 356.4
L277.344 356.4
L277.344 310.675
L272.88 310.675
z
" style="fill:#2ca25f;stroke:#000000;stroke-width:0.3;"/>
   </g>
   <g id="patch_49">
    <path clip-path="url(#p3d386a08f4)" d="
M277.344 356.4
L281.808 356.4
L281.808 323.558
L277.344 323.558
z
" style="fill:#2ca25f;stroke:#000000;stroke-width:0.3;"/>
   </g>
   <g id="patch_50">
    <path clip-path="url(#p3d386a08f4)" d="
M281.808 356.4
L286.272 356.4
L286.272 326.515
L281.808 326.515
z
" style="fill:#2ca25f;stroke:#000000;stroke-width:0.3;"/>
   </g>
   <g id="patch_51">
    <path clip-path="url(#p3d386a08f4)" d="
M286.272 356.4
L290.736 356.4
L290.736 330.422
L286.272 330.422
z
" style="fill:#2ca25f;stroke:#000000;stroke-width:0.3;"/>
   </g>
   <g id="patch_52">
    <path clip-path="url(#p3d386a08f4)" d="
M290.736 356.4
L295.2 356.4
L295.2 335.702
L290.736 335.702
z
" style="fill:#2ca25f;stroke:#000000;stroke-width:0.3;"/>
   </g>
   <g id="patch_53">
    <path clip-path="url(#p3d386a08f4)" d="
M295.2 356.4
L299.664 356.4
L299.664 339.187
L295.2 339.187
z
" style="fill:#2ca25f;stroke:#000000;stroke-width:0.3;"/>
   </g>
   <g id="patch_54">
    <path clip-path="url(#p3d386a08f4)" d="
M299.664 356.4
L304.128 356.4
L304.128 334.752
L299.664 334.752
z
" style="fill:#2ca25f;stroke:#000000;stroke-width:0.3;"/>
   </g>
   <g id="patch_55">
    <path clip-path="url(#p3d386a08f4)" d="
M304.128 356.4
L308.592 356.4
L308.592 341.194
L304.128 341.194
z
" style="fill:#2ca25f;stroke:#000000;stroke-width:0.3;"/>
   </g>
   <g id="patch_56">
    <path clip-path="url(#p3d386a08f4)" d="
M308.592 356.4
L313.056 356.4
L313.056 344.15
L308.592 344.15
z
" style="fill:#2ca25f;stroke:#000000;stroke-width:0.3;"/>
   </g>
   <g id="patch_57">
    <path clip-path="url(#p3d386a08f4)" d="
M313.056 356.4
L317.52 356.4
L317.52 343.834
L313.056 343.834
z
" style="fill:#2ca25f;stroke:#000000;stroke-width:0.3;"/>
   </g>
   <g id="patch_58">
    <path clip-path="url(#p3d386a08f4)" d="
M317.52 356.4
L321.984 356.4
L321.984 342.883
L317.52 342.883
z
" style="fill:#2ca25f;stroke:#000000;stroke-width:0.3;"/>
   </g>
   <g id="patch_59">
    <path clip-path="url(#p3d386a08f4)" d="
M321.984 356.4
L326.448 356.4
L326.448 344.995
L321.984 344.995
z
" style="fill:#2ca25f;stroke:#000000;stroke-width:0.3;"/>
   </g>
   <g id="patch_60">
    <path clip-path="url(#p3d386a08f4)" d="
M326.448 356.4
L330.912 356.4
L330.912 345.629
L326.448 345.629
z
" style="fill:#2ca25f;stroke:#000000;stroke-width:0.3;"/>
   </g>
   <g id="patch_61">
    <path clip-path="url(#p3d386a08f4)" d="
M330.912 356.4
L335.376 356.4
L335.376 346.157
L330.912 346.157
z
" style="fill:#2ca25f;stroke:#000000;stroke-width:0.3;"/>
   </g>
   <g id="patch_62">
    <path clip-path="url(#p3d386a08f4)" d="
M335.376 356.4
L339.84 356.4
L339.84 348.269
L335.376 348.269
z
" style="fill:#2ca25f;stroke:#000000;stroke-width:0.3;"/>
   </g>
   <g id="patch_63">
    <path clip-path="url(#p3d386a08f4)" d="
M339.84 356.4
L344.304 356.4
L344.304 345.418
L339.84 345.418
z
" style="fill:#2ca25f;stroke:#000000;stroke-width:0.3;"/>
   </g>
   <g id="patch_64">
    <path clip-path="url(#p3d386a08f4)" d="
M344.304 356.4
L348.768 356.4
L348.768 347.635
L344.304 347.635
z
" style="fill:#2ca25f;stroke:#000000;stroke-width:0.3;"/>
   </g>
   <g id="patch_65">
    <path clip-path="url(#p3d386a08f4)" d="
M348.768 356.4
L353.232 356.4
L353.232 345.101
L348.768 345.101
z
" style="fill:#2ca25f;stroke:#000000;stroke-width:0.3;"/>
   </g>
   <g id="patch_66">
    <path clip-path="url(#p3d386a08f4)" d="
M353.232 356.4
L357.696 356.4
L357.696 349.642
L353.232 349.642
z
" style="fill:#2ca25f;stroke:#000000;stroke-width:0.3;"/>
   </g>
   <g id="patch_67">
    <path clip-path="url(#p3d386a08f4)" d="
M357.696 356.4
L362.16 356.4
L362.16 348.902
L357.696 348.902
z
" style="fill:#2ca25f;stroke:#000000;stroke-width:0.3;"/>
   </g>
   <g id="patch_68">
    <path clip-path="url(#p3d386a08f4)" d="
M362.16 356.4
L366.624 356.4
L366.624 349.008
L362.16 349.008
z
" style="fill:#2ca25f;stroke:#000000;stroke-width:0.3;"/>
   </g>
   <g id="patch_69">
    <path clip-path="url(#p3d386a08f4)" d="
M366.624 356.4
L371.088 356.4
L371.088 349.114
L366.624 349.114
z
" style="fill:#2ca25f;stroke:#000000;stroke-width:0.3;"/>
   </g>
   <g id="patch_70">
    <path clip-path="url(#p3d386a08f4)" d="
M371.088 356.4
L375.552 356.4
L375.552 349.536
L371.088 349.536
z
" style="fill:#2ca25f;stroke:#000000;stroke-width:0.3;"/>
   </g>
   <g id="patch_71">
    <path clip-path="url(#p3d386a08f4)" d="
M375.552 356.4
L380.016 356.4
L380.016 351.331
L375.552 351.331
z
" style="fill:#2ca25f;stroke:#000000;stroke-width:0.3;"/>
   </g>
   <g id="patch_72">
    <path clip-path="url(#p3d386a08f4)" d="
M380.016 356.4
L384.48 356.4
L384.48 350.803
L380.016 350.803
z
" style="fill:#2ca25f;stroke:#000000;stroke-width:0.3;"/>
   </g>
   <g id="patch_73">
    <path clip-path="url(#p3d386a08f4)" d="
M384.48 356.4
L388.944 356.4
L388.944 350.275
L384.48 350.275
z
" style="fill:#2ca25f;stroke:#000000;stroke-width:0.3;"/>
   </g>
   <g id="patch_74">
    <path clip-path="url(#p3d386a08f4)" d="
M388.944 356.4
L393.408 356.4
L393.408 349.747
L388.944 349.747
z
" style="fill:#2ca25f;stroke:#000000;stroke-width:0.3;"/>
   </g>
   <g id="patch_75">
    <path clip-path="url(#p3d386a08f4)" d="
M393.408 356.4
L397.872 356.4
L397.872 347.53
L393.408 347.53
z
" style="fill:#2ca25f;stroke:#000000;stroke-width:0.3;"/>
   </g>
   <g id="patch_76">
    <path clip-path="url(#p3d386a08f4)" d="
M397.872 356.4
L402.336 356.4
L402.336 347.318
L397.872 347.318
z
" style="fill:#2ca25f;stroke:#000000;stroke-width:0.3;"/>
   </g>
   <g id="patch_77">
    <path clip-path="url(#p3d386a08f4)" d="
M402.336 356.4
L406.8 356.4
L406.8 348.797
L402.336 348.797
z
" style="fill:#2ca25f;stroke:#000000;stroke-width:0.3;"/>
   </g>
   <g id="patch_78">
    <path clip-path="url(#p3d386a08f4)" d="
M406.8 356.4
L411.264 356.4
L411.264 350.592
L406.8 350.592
z
" style="fill:#2ca25f;stroke:#000000;stroke-width:0.3;"/>
   </g>
   <g id="patch_79">
    <path clip-path="url(#p3d386a08f4)" d="
M411.264 356.4
L415.728 356.4
L415.728 351.226
L411.264 351.226
z
" style="fill:#2ca25f;stroke:#000000;stroke-width:0.3;"/>
   </g>
   <g id="patch_80">
    <path clip-path="url(#p3d386a08f4)" d="
M415.728 356.4
L420.192 356.4
L420.192 353.021
L415.728 353.021
z
" style="fill:#2ca25f;stroke:#000000;stroke-width:0.3;"/>
   </g>
   <g id="patch_81">
    <path clip-path="url(#p3d386a08f4)" d="
M420.192 356.4
L424.656 356.4
L424.656 353.654
L420.192 353.654
z
" style="fill:#2ca25f;stroke:#000000;stroke-width:0.3;"/>
   </g>
   <g id="patch_82">
    <path clip-path="url(#p3d386a08f4)" d="
M424.656 356.4
L429.12 356.4
L429.12 353.443
L424.656 353.443
z
" style="fill:#2ca25f;stroke:#000000;stroke-width:0.3;"/>
   </g>
   <g id="patch_83">
    <path clip-path="url(#p3d386a08f4)" d="
M429.12 356.4
L433.584 356.4
L433.584 352.81
L429.12 352.81
z
" style="fill:#2ca25f;stroke:#000000;stroke-width:0.3;"/>
   </g>
   <g id="patch_84">
    <path clip-path="url(#p3d386a08f4)" d="
M433.584 356.4
L438.048 356.4
L438.048 353.021
L433.584 353.021
z
" style="fill:#2ca25f;stroke:#000000;stroke-width:0.3;"/>
   </g>
   <g id="patch_85">
    <path clip-path="url(#p3d386a08f4)" d="
M438.048 356.4
L442.512 356.4
L442.512 353.654
L438.048 353.654
z
" style="fill:#2ca25f;stroke:#000000;stroke-width:0.3;"/>
   </g>
   <g id="patch_86">
    <path clip-path="url(#p3d386a08f4)" d="
M442.512 356.4
L446.976 356.4
L446.976 354.288
L442.512 354.288
z
" style="fill:#2ca25f;stroke:#000000;stroke-width:0.3;"/>
   </g>
   <g id="patch_87">
    <path clip-path="url(#p3d386a08f4)" d="
M446.976 356.4
L451.44 356.4
L451.44 353.126
L446.976 353.126
z
" style="fill:#2ca25f;stroke:#000000;stroke-width:0.3;"/>
   </g>
   <g id="patch_88">
    <path clip-path="url(#p3d386a08f4)" d="
M451.44 356.4
L455.904 356.4
L455.904 353.021
L451.44 353.021
z
" style="fill:#2ca25f;stroke:#000000;stroke-width:0.3;"/>
   </g>
   <g id="patch_89">
    <path clip-path="url(#p3d386a08f4)" d="
M455.904 356.4
L460.368 356.4
L460.368 353.76
L455.904 353.76
z
" style="fill:#2ca25f;stroke:#000000;stroke-width:0.3;"/>
   </g>
   <g id="patch_90">
    <path clip-path="url(#p3d386a08f4)" d="
M460.368 356.4
L464.832 356.4
L464.832 354.605
L460.368 354.605
z
" style="fill:#2ca25f;stroke:#000000;stroke-width:0.3;"/>
   </g>
   <g id="patch_91">
    <path clip-path="url(#p3d386a08f4)" d="
M464.832 356.4
L469.296 356.4
L469.296 354.605
L464.832 354.605
z
" style="fill:#2ca25f;stroke:#000000;stroke-width:0.3;"/>
   </g>
   <g id="patch_92">
    <path clip-path="url(#p3d386a08f4)" d="
M469.296 356.4
L473.76 356.4
L473.76 353.549
L469.296 353.549
z
" style="fill:#2ca25f;stroke:#000000;stroke-width:0.3;"/>
   </g>
   <g id="patch_93">
    <path clip-path="url(#p3d386a08f4)" d="
M473.76 356.4
L478.224 356.4
L478.224 353.866
L473.76 353.866
z
" style="fill:#2ca25f;stroke:#000000;stroke-width:0.3;"/>
   </g>
   <g id="patch_94">
    <path clip-path="url(#p3d386a08f4)" d="
M478.224 356.4
L482.688 356.4
L482.688 353.549
L478.224 353.549
z
" style="fill:#2ca25f;stroke:#000000;stroke-width:0.3;"/>
   </g>
   <g id="patch_95">
    <path clip-path="url(#p3d386a08f4)" d="
M482.688 356.4
L487.152 356.4
L487.152 352.598
L482.688 352.598
z
" style="fill:#2ca25f;stroke:#000000;stroke-width:0.3;"/>
   </g>
   <g id="patch_96">
    <path clip-path="url(#p3d386a08f4)" d="
M487.152 356.4
L491.616 356.4
L491.616 353.338
L487.152 353.338
z
" style="fill:#2ca25f;stroke:#000000;stroke-width:0.3;"/>
   </g>
   <g id="patch_97">
    <path clip-path="url(#p3d386a08f4)" d="
M491.616 356.4
L496.08 356.4
L496.08 353.021
L491.616 353.021
z
" style="fill:#2ca25f;stroke:#000000;stroke-width:0.3;"/>
   </g>
   <g id="patch_98">
    <path clip-path="url(#p3d386a08f4)" d="
M496.08 356.4
L500.544 356.4
L500.544 353.443
L496.08 353.443
z
" style="fill:#2ca25f;stroke:#000000;stroke-width:0.3;"/>
   </g>
   <g id="patch_99">
    <path clip-path="url(#p3d386a08f4)" d="
M500.544 356.4
L505.008 356.4
L505.008 354.605
L500.544 354.605
z
" style="fill:#2ca25f;stroke:#000000;stroke-width:0.3;"/>
   </g>
   <g id="patch_100">
    <path clip-path="url(#p3d386a08f4)" d="
M505.008 356.4
L509.472 356.4
L509.472 353.338
L505.008 353.338
z
" style="fill:#2ca25f;stroke:#000000;stroke-width:0.3;"/>
   </g>
   <g id="patch_101">
    <path clip-path="url(#p3d386a08f4)" d="
M509.472 356.4
L513.936 356.4
L513.936 355.133
L509.472 355.133
z
" style="fill:#2ca25f;stroke:#000000;stroke-width:0.3;"/>
   </g>
   <g id="patch_102">
    <path clip-path="url(#p3d386a08f4)" d="
M513.936 356.4
L518.4 356.4
L518.4 354.816
L513.936 354.816
z
" style="fill:#2ca25f;stroke:#000000;stroke-width:0.3;"/>
   </g>
   <g id="patch_103">
    <path d="
M72 356.4
L518.4 356.4" style="fill:none;stroke:#262626;stroke-width:1.25;"/>
   </g>
   <g id="patch_104">
    <path d="
M72 356.4
L72 39.6" style="fill:none;stroke:#262626;stroke-width:1.25;"/>
   </g>
   <g id="text_15">
    <!-- Distribution of Sequence Length of Membrane Proteins -->
    <defs>
     <path d="
M24.7031 37.1094
L37.5938 37.1094
Q44.875 37.1094 48.6719 41.0312
Q52.4844 44.9688 52.4844 52.3906
Q52.4844 59.8594 48.6719 63.7656
Q44.875 67.6719 37.5938 67.6719
L24.7031 67.6719
z

M5.51562 0
L5.51562 5.17188
L14.7969 5.17188
L14.7969 67.6719
L5.51562 67.6719
L5.51562 72.9062
L39.9844 72.9062
Q50.9219 72.9062 57.3125 67.3594
Q63.7188 61.8125 63.7188 52.3906
Q63.7188 43.0156 57.3125 37.4531
Q50.9219 31.8906 39.9844 31.8906
L24.7031 31.8906
L24.7031 5.17188
L35.9844 5.17188
L35.9844 0
z
" id="BitstreamVeraSerif-Roman-50"/>
     <path d="
M24.7031 5.17188
L33.7969 5.17188
Q48 5.17188 55.5938 13.2812
Q63.1875 21.3906 63.1875 36.5312
Q63.1875 51.6562 55.6094 59.6562
Q48.0469 67.6719 33.7969 67.6719
L24.7031 67.6719
z

M5.51562 0
L5.51562 5.17188
L14.7969 5.17188
L14.7969 67.6719
L5.51562 67.6719
L5.51562 72.9062
L34.5156 72.9062
Q53.375 72.9062 63.8906 63.2812
Q74.4219 53.6562 74.4219 36.5312
Q74.4219 19.3438 63.875 9.67188
Q53.3281 0 34.5156 0
z
" id="BitstreamVeraSerif-Roman-44"/>
     <path d="
M5.51562 0
L5.51562 5.17188
L14.7969 5.17188
L14.7969 67.6719
L4.98438 67.6719
L4.98438 72.9062
L26.2188 72.9062
L51.8125 21
L77.3906 72.9062
L97.3125 72.9062
L97.3125 67.6719
L87.5938 67.6719
L87.5938 5.17188
L96.9219 5.17188
L96.9219 0
L68.4062 0
L68.4062 5.17188
L77.6875 5.17188
L77.6875 61.5312
L52.6875 10.6875
L45.7969 10.6875
L20.7969 61.5312
L20.7969 5.17188
L30.0781 5.17188
L30.0781 0
z
" id="BitstreamVeraSerif-Roman-4d"/>
    </defs>
    <g style="fill:#262626;" transform="translate(126.24375 34.6)scale(0.12 -0.12)">
     <use xlink:href="#BitstreamVeraSerif-Roman-44"/>
     <use x="80.17578125" xlink:href="#BitstreamVeraSerif-Roman-69"/>
     <use x="112.158203125" xlink:href="#BitstreamVeraSerif-Roman-73"/>
     <use x="163.4765625" xlink:href="#BitstreamVeraSerif-Roman-74"/>
     <use x="203.662109375" xlink:href="#BitstreamVeraSerif-Roman-72"/>
     <use x="251.46484375" xlink:href="#BitstreamVeraSerif-Roman-69"/>
     <use x="283.447265625" xlink:href="#BitstreamVeraSerif-Roman-62"/>
     <use x="347.4609375" xlink:href="#BitstreamVeraSerif-Roman-75"/>
     <use x="411.865234375" xlink:href="#BitstreamVeraSerif-Roman-74"/>
     <use x="452.05078125" xlink:href="#BitstreamVeraSerif-Roman-69"/>
     <use x="484.033203125" xlink:href="#BitstreamVeraSerif-Roman-6f"/>
     <use x="544.23828125" xlink:href="#BitstreamVeraSerif-Roman-6e"/>
     <use x="608.642578125" xlink:href="#BitstreamVeraSerif-Roman-20"/>
     <use x="640.4296875" xlink:href="#BitstreamVeraSerif-Roman-6f"/>
     <use x="700.634765625" xlink:href="#BitstreamVeraSerif-Roman-66"/>
     <use x="737.646484375" xlink:href="#BitstreamVeraSerif-Roman-20"/>
     <use x="769.43359375" xlink:href="#BitstreamVeraSerif-Roman-53"/>
     <use x="837.939453125" xlink:href="#BitstreamVeraSerif-Roman-65"/>
     <use x="897.119140625" xlink:href="#BitstreamVeraSerif-Roman-71"/>
     <use x="961.1328125" xlink:href="#BitstreamVeraSerif-Roman-75"/>
     <use x="1025.53710938" xlink:href="#BitstreamVeraSerif-Roman-65"/>
     <use x="1084.71679688" xlink:href="#BitstreamVeraSerif-Roman-6e"/>
     <use x="1149.12109375" xlink:href="#BitstreamVeraSerif-Roman-63"/>
     <use x="1205.12695312" xlink:href="#BitstreamVeraSerif-Roman-65"/>
     <use x="1264.30664062" xlink:href="#BitstreamVeraSerif-Roman-20"/>
     <use x="1296.09375" xlink:href="#BitstreamVeraSerif-Roman-4c"/>
     <use x="1362.5" xlink:href="#BitstreamVeraSerif-Roman-65"/>
     <use x="1421.6796875" xlink:href="#BitstreamVeraSerif-Roman-6e"/>
     <use x="1486.08398438" xlink:href="#BitstreamVeraSerif-Roman-67"/>
     <use x="1550.09765625" xlink:href="#BitstreamVeraSerif-Roman-74"/>
     <use x="1590.28320312" xlink:href="#BitstreamVeraSerif-Roman-68"/>
     <use x="1654.6875" xlink:href="#BitstreamVeraSerif-Roman-20"/>
     <use x="1686.47460938" xlink:href="#BitstreamVeraSerif-Roman-6f"/>
     <use x="1746.6796875" xlink:href="#BitstreamVeraSerif-Roman-66"/>
     <use x="1783.69140625" xlink:href="#BitstreamVeraSerif-Roman-20"/>
     <use x="1815.47851562" xlink:href="#BitstreamVeraSerif-Roman-4d"/>
     <use x="1917.87109375" xlink:href="#BitstreamVeraSerif-Roman-65"/>
     <use x="1977.05078125" xlink:href="#BitstreamVeraSerif-Roman-6d"/>
     <use x="2071.875" xlink:href="#BitstreamVeraSerif-Roman-62"/>
     <use x="2135.88867188" xlink:href="#BitstreamVeraSerif-Roman-72"/>
     <use x="2183.69140625" xlink:href="#BitstreamVeraSerif-Roman-61"/>
     <use x="2243.31054688" xlink:href="#BitstreamVeraSerif-Roman-6e"/>
     <use x="2307.71484375" xlink:href="#BitstreamVeraSerif-Roman-65"/>
     <use x="2366.89453125" xlink:href="#BitstreamVeraSerif-Roman-20"/>
     <use x="2398.68164062" xlink:href="#BitstreamVeraSerif-Roman-50"/>
     <use x="2465.96679688" xlink:href="#BitstreamVeraSerif-Roman-72"/>
     <use x="2513.76953125" xlink:href="#BitstreamVeraSerif-Roman-6f"/>
     <use x="2573.97460938" xlink:href="#BitstreamVeraSerif-Roman-74"/>
     <use x="2614.16015625" xlink:href="#BitstreamVeraSerif-Roman-65"/>
     <use x="2673.33984375" xlink:href="#BitstreamVeraSerif-Roman-69"/>
     <use x="2705.32226562" xlink:href="#BitstreamVeraSerif-Roman-6e"/>
     <use x="2769.7265625" xlink:href="#BitstreamVeraSerif-Roman-73"/>
    </g>
   </g>
  </g>
 </g>
 <defs>
  <clipPath id="p3d386a08f4">
   <rect height="316.8" width="446.4" x="72.0" y="39.6"/>
  </clipPath>
 </defs>
</svg>
