<?xml version="1.0" encoding="utf-8" standalone="no"?>
<!DOCTYPE svg PUBLIC "-//W3C//DTD SVG 1.1//EN"
  "http://www.w3.org/Graphics/SVG/1.1/DTD/svg11.dtd">
<!-- Created with matplotlib (http://matplotlib.org/) -->
<svg height="353pt" version="1.1" viewBox="0 0 582 353" width="582pt" xmlns="http://www.w3.org/2000/svg" xmlns:xlink="http://www.w3.org/1999/xlink">
 <defs>
  <style type="text/css">
*{stroke-linecap:butt;stroke-linejoin:round;}
  </style>
 </defs>
 <g id="figure_1">
  <g id="patch_1">
   <path d="
M0 353.7
L582.3 353.7
L582.3 0
L0 0
z
" style="fill:#ffffff;"/>
  </g>
  <g id="axes_1">
   <g id="patch_2">
    <path d="
M72.7875 318.33
L524.07 318.33
L524.07 35.37
L72.7875 35.37
z
" style="fill:#ffffff;"/>
   </g>
   <g id="matplotlib.axis_1">
    <g id="xtick_1">
     <g id="line2d_1">
      <defs>
       <path d="
M0 0
L0 6" id="m44d4eda7dc" style="stroke:#262626;"/>
      </defs>
      <g>
       <use style="fill:#262626;stroke:#262626;" x="95.351625" xlink:href="#m44d4eda7dc" y="318.33"/>
      </g>
     </g>
     <g id="text_1">
      <!-- 1 -->
      <defs>
       <path d="
M14.2031 0
L14.2031 5.17188
L26.9062 5.17188
L26.9062 65.8281
L12.2031 56.2969
L12.2031 62.7031
L29.9844 74.2188
L36.7188 74.2188
L36.7188 5.17188
L49.4219 5.17188
L49.4219 0
z
" id="BitstreamVeraSerif-Roman-31"/>
      </defs>
      <g style="fill:#262626;" transform="translate(93.4906875 338.9284375)scale(0.1 -0.1)">
       <use xlink:href="#BitstreamVeraSerif-Roman-31"/>
      </g>
     </g>
    </g>
    <g id="xtick_2">
     <g id="line2d_2">
      <g>
       <use style="fill:#262626;stroke:#262626;" x="140.479875" xlink:href="#m44d4eda7dc" y="318.33"/>
      </g>
     </g>
     <g id="text_2">
      <!-- 2 -->
      <defs>
       <path d="
M12.7969 55.5156
L7.32812 55.5156
L7.32812 68.5
Q12.5469 71.2969 17.8438 72.75
Q23.1406 74.2188 28.2188 74.2188
Q39.5938 74.2188 46.1875 68.7031
Q52.7812 63.1875 52.7812 53.7188
Q52.7812 43.0156 37.8438 28.125
Q36.6719 27 36.0781 26.4219
L17.6719 8.01562
L48.0938 8.01562
L48.0938 17
L53.8125 17
L53.8125 0
L6.78125 0
L6.78125 5.32812
L28.9062 27.3906
Q36.2344 34.7188 39.3594 40.8438
Q42.4844 46.9688 42.4844 53.7188
Q42.4844 61.0781 38.6406 65.2344
Q34.8125 69.3906 28.0781 69.3906
Q21.0938 69.3906 17.2812 65.9219
Q13.4844 62.4531 12.7969 55.5156" id="BitstreamVeraSerif-Roman-32"/>
      </defs>
      <g style="fill:#262626;" transform="translate(138.1283125 338.9284375)scale(0.1 -0.1)">
       <use xlink:href="#BitstreamVeraSerif-Roman-32"/>
      </g>
     </g>
    </g>
    <g id="xtick_3">
     <g id="line2d_3">
      <g>
       <use style="fill:#262626;stroke:#262626;" x="185.608125" xlink:href="#m44d4eda7dc" y="318.33"/>
      </g>
     </g>
     <g id="text_3">
      <!-- 3 -->
      <defs>
       <path d="
M9.71875 69.8281
Q15.4375 71.9688 20.6719 73.0938
Q25.9219 74.2188 30.5156 74.2188
Q41.2188 74.2188 47.2188 69.5938
Q53.2188 64.9844 53.2188 56.7812
Q53.2188 50.2031 49.0625 45.7812
Q44.9219 41.3594 37.3125 39.7969
Q46.2969 38.5312 51.25 33.2812
Q56.2031 28.0312 56.2031 19.6719
Q56.2031 9.46875 49.3438 4.01562
Q42.4844 -1.42188 29.5938 -1.42188
Q23.875 -1.42188 18.4219 -0.1875
Q12.9844 1.03125 7.625 3.51562
L7.625 17.6719
L13.0938 17.6719
Q13.5781 10.6406 17.8281 7.03125
Q22.0781 3.42188 29.7812 3.42188
Q37.25 3.42188 41.5781 7.73438
Q45.9062 12.0625 45.9062 19.5781
Q45.9062 28.1719 41.4531 32.5938
Q37.0156 37.0156 28.4219 37.0156
L23.7812 37.0156
L23.7812 42
L26.2188 42
Q34.7656 42 39.0312 45.5312
Q43.3125 49.0781 43.3125 56.2031
Q43.3125 62.5938 39.7969 65.9844
Q36.2812 69.3906 29.6875 69.3906
Q23.0938 69.3906 19.4531 66.2656
Q15.8281 63.1406 15.1875 56.9844
L9.71875 56.9844
z
" id="BitstreamVeraSerif-Roman-33"/>
      </defs>
      <g style="fill:#262626;" transform="translate(183.17921875 338.9284375)scale(0.1 -0.1)">
       <use xlink:href="#BitstreamVeraSerif-Roman-33"/>
      </g>
     </g>
    </g>
    <g id="xtick_4">
     <g id="line2d_4">
      <g>
       <use style="fill:#262626;stroke:#262626;" x="230.736375" xlink:href="#m44d4eda7dc" y="318.33"/>
      </g>
     </g>
     <g id="text_4">
      <!-- 4 -->
      <defs>
       <path d="
M34.9062 24.7031
L34.9062 63.4844
L10.0156 24.7031
z

M56.3906 0
L23.1875 0
L23.1875 5.17188
L34.9062 5.17188
L34.9062 19.4844
L3.07812 19.4844
L3.07812 24.8125
L35.0156 74.2188
L44.6719 74.2188
L44.6719 24.7031
L58.5938 24.7031
L58.5938 19.4844
L44.6719 19.4844
L44.6719 5.17188
L56.3906 5.17188
z
" id="BitstreamVeraSerif-Roman-34"/>
      </defs>
      <g style="fill:#262626;" transform="translate(227.96059375 338.9284375)scale(0.1 -0.1)">
       <use xlink:href="#BitstreamVeraSerif-Roman-34"/>
      </g>
     </g>
    </g>
    <g id="xtick_5">
     <g id="line2d_5">
      <g>
       <use style="fill:#262626;stroke:#262626;" x="275.864625" xlink:href="#m44d4eda7dc" y="318.33"/>
      </g>
     </g>
     <g id="text_5">
      <!-- 5 -->
      <defs>
       <path d="
M50.2969 72.9062
L50.2969 64.8906
L16.8906 64.8906
L16.8906 44
Q19.4375 45.75 22.8281 46.625
Q26.2188 47.5156 30.4219 47.5156
Q42.2344 47.5156 49.0625 40.9688
Q55.9062 34.4219 55.9062 23.0938
Q55.9062 11.5312 49 5.04688
Q42.0938 -1.42188 29.5938 -1.42188
Q24.5625 -1.42188 19.2812 -0.1875
Q14.0156 1.03125 8.5 3.51562
L8.5 17.6719
L14.0156 17.6719
Q14.4531 10.75 18.4219 7.07812
Q22.4062 3.42188 29.5938 3.42188
Q37.3125 3.42188 41.4531 8.5
Q45.6094 13.5781 45.6094 23.0938
Q45.6094 32.5625 41.4844 37.6094
Q37.3594 42.6719 29.5938 42.6719
Q25.2031 42.6719 21.8438 41.1094
Q18.5 39.5469 15.9219 36.2812
L11.7188 36.2812
L11.7188 72.9062
z
" id="BitstreamVeraSerif-Roman-35"/>
      </defs>
      <g style="fill:#262626;" transform="translate(273.4943125 338.9284375)scale(0.1 -0.1)">
       <use xlink:href="#BitstreamVeraSerif-Roman-35"/>
      </g>
     </g>
    </g>
    <g id="xtick_6">
     <g id="line2d_6">
      <g>
       <use style="fill:#262626;stroke:#262626;" x="320.992875" xlink:href="#m44d4eda7dc" y="318.33"/>
      </g>
     </g>
     <g id="text_6">
      <!-- 6 -->
      <defs>
       <path d="
M32.7188 3.42188
Q39.5938 3.42188 43.2969 8.46875
Q47.0156 13.5312 47.0156 23
Q47.0156 32.4688 43.2969 37.5156
Q39.5938 42.5781 32.7188 42.5781
Q25.7344 42.5781 22.0625 37.6875
Q18.4062 32.8125 18.4062 23.5781
Q18.4062 13.875 22.1094 8.64062
Q25.8281 3.42188 32.7188 3.42188
M16.7969 40.1406
Q20.125 43.7969 24.3125 45.5938
Q28.5156 47.4062 33.7969 47.4062
Q44.6719 47.4062 51 40.8594
Q57.3281 34.3281 57.3281 23
Q57.3281 11.9219 50.5156 5.25
Q43.7031 -1.42188 32.3281 -1.42188
Q19.9688 -1.42188 13.3281 7.78125
Q6.6875 17 6.6875 34.0781
Q6.6875 53.2188 14.5469 63.7188
Q22.4062 74.2188 36.7188 74.2188
Q40.5781 74.2188 44.8281 73.4844
Q49.0781 72.75 53.5156 71.2969
L53.5156 59.2812
L48 59.2812
Q47.4062 64.2031 44.2344 66.7969
Q41.0625 69.3906 35.6875 69.3906
Q26.2188 69.3906 21.5781 62.2031
Q16.9375 55.0312 16.7969 40.1406" id="BitstreamVeraSerif-Roman-36"/>
      </defs>
      <g style="fill:#262626;" transform="translate(318.46084375 338.9284375)scale(0.1 -0.1)">
       <use xlink:href="#BitstreamVeraSerif-Roman-36"/>
      </g>
     </g>
    </g>
    <g id="xtick_7">
     <g id="line2d_7">
      <g>
       <use style="fill:#262626;stroke:#262626;" x="366.121125" xlink:href="#m44d4eda7dc" y="318.33"/>
      </g>
     </g>
     <g id="text_7">
      <!-- 7 -->
      <defs>
       <path d="
M56.3906 67.9219
L27.875 0
L20.6094 0
L47.7969 64.8906
L14.1094 64.8906
L14.1094 55.9062
L8.40625 55.9062
L8.40625 72.9062
L56.3906 72.9062
z
" id="BitstreamVeraSerif-Roman-37"/>
      </defs>
      <g style="fill:#262626;" transform="translate(363.72190625 338.9284375)scale(0.1 -0.1)">
       <use xlink:href="#BitstreamVeraSerif-Roman-37"/>
      </g>
     </g>
    </g>
    <g id="xtick_8">
     <g id="line2d_8">
      <g>
       <use style="fill:#262626;stroke:#262626;" x="411.249375" xlink:href="#m44d4eda7dc" y="318.33"/>
      </g>
     </g>
     <g id="text_8">
      <!-- 8 -->
      <defs>
       <path d="
M46.5781 19.9219
Q46.5781 27.7344 42.6875 32.0469
Q38.8125 36.375 31.7812 36.375
Q24.75 36.375 20.875 32.0469
Q17 27.7344 17 19.9219
Q17 12.0625 20.875 7.73438
Q24.75 3.42188 31.7812 3.42188
Q38.8125 3.42188 42.6875 7.73438
Q46.5781 12.0625 46.5781 19.9219
M44.5781 55.3281
Q44.5781 61.9688 41.2031 65.6719
Q37.8438 69.3906 31.7812 69.3906
Q25.7812 69.3906 22.3906 65.6719
Q19 61.9688 19 55.3281
Q19 48.6406 22.3906 44.9219
Q25.7812 41.2188 31.7812 41.2188
Q37.8438 41.2188 41.2031 44.9219
Q44.5781 48.6406 44.5781 55.3281
M39.3125 38.8125
Q47.6094 37.7031 52.25 32.6875
Q56.8906 27.6875 56.8906 19.9219
Q56.8906 9.67188 50.3906 4.125
Q43.8906 -1.42188 31.7812 -1.42188
Q19.7344 -1.42188 13.2031 4.125
Q6.6875 9.67188 6.6875 19.9219
Q6.6875 27.6875 11.3281 32.6875
Q15.9688 37.7031 24.3125 38.8125
Q16.9375 40.1406 13 44.4062
Q9.07812 48.6875 9.07812 55.3281
Q9.07812 64.1094 15.125 69.1562
Q21.1875 74.2188 31.7812 74.2188
Q42.3906 74.2188 48.4375 69.1562
Q54.5 64.1094 54.5 55.3281
Q54.5 48.6875 50.5625 44.4062
Q46.625 40.1406 39.3125 38.8125" id="BitstreamVeraSerif-Roman-38"/>
      </defs>
      <g style="fill:#262626;" transform="translate(408.73921875 338.9284375)scale(0.1 -0.1)">
       <use xlink:href="#BitstreamVeraSerif-Roman-38"/>
      </g>
     </g>
    </g>
    <g id="xtick_9">
     <g id="line2d_9">
      <g>
       <use style="fill:#262626;stroke:#262626;" x="456.377625" xlink:href="#m44d4eda7dc" y="318.33"/>
      </g>
     </g>
     <g id="text_9">
      <!-- 9 -->
      <defs>
       <path d="
M46.7812 32.6719
Q43.5 29 39.25 27.1875
Q35.0156 25.3906 29.6875 25.3906
Q18.8438 25.3906 12.5625 31.9375
Q6.29688 38.4844 6.29688 49.8125
Q6.29688 60.8906 13.1094 67.5469
Q19.9219 74.2188 31.2969 74.2188
Q43.6562 74.2188 50.2656 65.0156
Q56.8906 55.8125 56.8906 38.7188
Q56.8906 19.5781 49.0156 9.07812
Q41.1562 -1.42188 26.9062 -1.42188
Q23.0469 -1.42188 18.7969 -0.6875
Q14.5469 0.046875 10.1094 1.51562
L10.1094 13.625
L15.5781 13.625
Q16.2188 8.6875 19.3906 6.04688
Q22.5625 3.42188 27.875 3.42188
Q37.3594 3.42188 41.9844 10.5625
Q46.625 17.7188 46.7812 32.6719
M30.9062 69.3906
Q23.9688 69.3906 20.2812 64.3281
Q16.6094 59.2812 16.6094 49.8125
Q16.6094 40.3281 20.2812 35.25
Q23.9688 30.1719 30.9062 30.1719
Q37.8438 30.1719 41.5312 35.0781
Q45.2188 39.9844 45.2188 49.2188
Q45.2188 58.9375 41.5 64.1562
Q37.7969 69.3906 30.9062 69.3906" id="BitstreamVeraSerif-Roman-39"/>
      </defs>
      <g style="fill:#262626;" transform="translate(453.8479375 338.9284375)scale(0.1 -0.1)">
       <use xlink:href="#BitstreamVeraSerif-Roman-39"/>
      </g>
     </g>
    </g>
    <g id="xtick_10">
     <g id="line2d_10">
      <g>
       <use style="fill:#262626;stroke:#262626;" x="501.505875" xlink:href="#m44d4eda7dc" y="318.33"/>
      </g>
     </g>
     <g id="text_10">
      <!-- &gt;=10 -->
      <defs>
       <path d="
M31.7812 3.42188
Q39.2656 3.42188 42.9688 11.625
Q46.6875 19.8281 46.6875 36.375
Q46.6875 52.9844 42.9688 61.1875
Q39.2656 69.3906 31.7812 69.3906
Q24.3125 69.3906 20.5938 61.1875
Q16.8906 52.9844 16.8906 36.375
Q16.8906 19.8281 20.5938 11.625
Q24.3125 3.42188 31.7812 3.42188
M31.7812 -1.42188
Q19.9219 -1.42188 13.25 8.53125
Q6.59375 18.5 6.59375 36.375
Q6.59375 54.2969 13.25 64.25
Q19.9219 74.2188 31.7812 74.2188
Q43.7031 74.2188 50.3438 64.25
Q56.9844 54.2969 56.9844 36.375
Q56.9844 18.5 50.3438 8.53125
Q43.7031 -1.42188 31.7812 -1.42188" id="BitstreamVeraSerif-Roman-30"/>
       <path d="
M10.5938 49.8125
L10.5938 58.1094
L73.1875 35.4062
L73.1875 27.2969
L10.5938 4.59375
L10.5938 12.8906
L61.2812 31.2969
z
" id="BitstreamVeraSerif-Roman-3e"/>
       <path d="
M10.5938 45.2188
L73.1875 45.2188
L73.1875 37.4062
L10.5938 37.4062
z

M10.5938 25.2969
L73.1875 25.2969
L73.1875 17.4844
L10.5938 17.4844
z
" id="BitstreamVeraSerif-Roman-3d"/>
      </defs>
      <g style="fill:#262626;" transform="translate(487.62540625 338.9284375)scale(0.1 -0.1)">
       <use xlink:href="#BitstreamVeraSerif-Roman-3e"/>
       <use x="83.7890625" xlink:href="#BitstreamVeraSerif-Roman-3d"/>
       <use x="167.578125" xlink:href="#BitstreamVeraSerif-Roman-31"/>
       <use x="231.201171875" xlink:href="#BitstreamVeraSerif-Roman-30"/>
      </g>
     </g>
    </g>
    <g id="text_11">
     <!-- number of items per restraint -->
     <defs>
      <path d="
M54.2031 25
L15.4844 25
L15.4844 24.6094
Q15.4844 14.1094 19.4375 8.76562
Q23.3906 3.42188 31.1094 3.42188
Q37.0156 3.42188 40.7969 6.51562
Q44.5781 9.625 46.0938 15.7188
L53.3281 15.7188
Q51.1719 7.17188 45.375 2.875
Q39.5938 -1.42188 30.1719 -1.42188
Q18.7969 -1.42188 11.8906 6.07812
Q4.98438 13.5781 4.98438 25.9844
Q4.98438 38.2812 11.7656 45.7969
Q18.5625 53.3281 29.5938 53.3281
Q41.3594 53.3281 47.6562 46.0625
Q53.9531 38.8125 54.2031 25
M43.6094 30.1719
Q43.3125 39.2656 39.7656 43.875
Q36.2344 48.4844 29.5938 48.4844
Q23.3906 48.4844 19.8281 43.8438
Q16.2656 39.2031 15.4844 30.1719
z
" id="BitstreamVeraSerif-Roman-65"/>
      <path d="
M35.4062 51.9062
L52.2031 51.9062
L52.2031 5.17188
L60.6875 5.17188
L60.6875 0
L43.2188 0
L43.2188 9.1875
Q40.7188 4 36.7656 1.28125
Q32.8125 -1.42188 27.5938 -1.42188
Q18.9531 -1.42188 14.875 3.48438
Q10.7969 8.40625 10.7969 18.8906
L10.7969 46.6875
L2.6875 46.6875
L2.6875 51.9062
L19.8281 51.9062
L19.8281 21.6875
Q19.8281 12.2031 22.1406 8.6875
Q24.4688 5.17188 30.4219 5.17188
Q36.6719 5.17188 39.9375 9.76562
Q43.2188 14.3594 43.2188 23.0938
L43.2188 46.6875
L35.4062 46.6875
z
" id="BitstreamVeraSerif-Roman-75"/>
      <path d="
M10.7969 46.6875
L2.875 46.6875
L2.875 51.9062
L10.7969 51.9062
L10.7969 68.0156
L19.8281 68.0156
L19.8281 51.9062
L36.7188 51.9062
L36.7188 46.6875
L19.8281 46.6875
L19.8281 13.7188
Q19.8281 7.125 21.0938 5.26562
Q22.3594 3.42188 25.7812 3.42188
Q29.2969 3.42188 30.9062 5.48438
Q32.5156 7.5625 32.625 12.2031
L39.4062 12.2031
Q39.0156 5.125 35.5469 1.84375
Q32.0781 -1.42188 25 -1.42188
Q17.2344 -1.42188 14.0156 2.01562
Q10.7969 5.46875 10.7969 13.7188
z
" id="BitstreamVeraSerif-Roman-74"/>
      <path d="
M5.60938 2.875
L5.60938 14.9844
L10.7969 14.9844
Q10.9844 9.1875 14.4219 6.29688
Q17.875 3.42188 24.6094 3.42188
Q30.6719 3.42188 33.8438 5.6875
Q37.0156 7.95312 37.0156 12.3125
Q37.0156 15.7188 34.6875 17.8125
Q32.375 19.9219 24.9062 22.3125
L18.4062 24.5156
Q11.7188 26.6562 8.71875 29.875
Q5.71875 33.1094 5.71875 38.0938
Q5.71875 45.2188 10.9375 49.2656
Q16.1562 53.3281 25.3906 53.3281
Q29.5 53.3281 34.0312 52.25
Q38.5781 51.1719 43.4062 49.125
L43.4062 37.7969
L38.2344 37.7969
Q38.0312 42.8281 34.7031 45.6562
Q31.3906 48.4844 25.6875 48.4844
Q20.0156 48.4844 17.1094 46.4844
Q14.2031 44.4844 14.2031 40.4844
Q14.2031 37.2031 16.4062 35.2188
Q18.6094 33.25 25.2031 31.2031
L32.3281 29
Q39.7031 26.7031 42.9375 23.2656
Q46.1875 19.8281 46.1875 14.4062
Q46.1875 7.03125 40.5469 2.79688
Q34.9062 -1.42188 25 -1.42188
Q19.9688 -1.42188 15.1875 -0.34375
Q10.4062 0.734375 5.60938 2.875" id="BitstreamVeraSerif-Roman-73"/>
      <path d="
M47.7969 52
L47.7969 39.0156
L42.625 39.0156
Q42.3906 42.875 40.4844 44.7812
Q38.5781 46.6875 34.9062 46.6875
Q28.2656 46.6875 24.7188 42.0938
Q21.1875 37.5 21.1875 28.9062
L21.1875 5.17188
L31.5938 5.17188
L31.5938 0
L4.10938 0
L4.10938 5.17188
L12.2031 5.17188
L12.2031 46.7812
L3.60938 46.7812
L3.60938 51.9062
L21.1875 51.9062
L21.1875 42.6719
Q23.8281 48.0938 27.9688 50.7031
Q32.125 53.3281 38.0938 53.3281
Q40.2812 53.3281 42.7031 52.9844
Q45.125 52.6406 47.7969 52" id="BitstreamVeraSerif-Roman-72"/>
      <path d="
M11.5312 5.17188
L11.5312 70.7969
L2.875 70.7969
L2.875 75.9844
L20.5156 75.9844
L20.5156 43.7969
Q23.1406 48.6875 27.2188 51
Q31.2969 53.3281 37.3125 53.3281
Q46.875 53.3281 52.9219 45.75
Q58.9844 38.1875 58.9844 25.9844
Q58.9844 13.7656 52.9219 6.17188
Q46.875 -1.42188 37.3125 -1.42188
Q31.2969 -1.42188 27.2188 0.890625
Q23.1406 3.21875 20.5156 8.10938
L20.5156 0
L2.875 0
L2.875 5.17188
z

M20.5156 23.3906
Q20.5156 14.0156 24.0938 9.10938
Q27.6875 4.20312 34.5156 4.20312
Q41.4062 4.20312 44.9375 9.71875
Q48.4844 15.2344 48.4844 25.9844
Q48.4844 36.7656 44.9375 42.2344
Q41.4062 47.7031 34.5156 47.7031
Q27.6875 47.7031 24.0938 42.7656
Q20.5156 37.8438 20.5156 28.5156
z
" id="BitstreamVeraSerif-Roman-62"/>
      <path d="
M20.5156 28.5156
L20.5156 23.3906
Q20.5156 14.0156 24.0938 9.10938
Q27.6875 4.20312 34.5156 4.20312
Q41.4062 4.20312 44.9375 9.71875
Q48.4844 15.2344 48.4844 25.9844
Q48.4844 36.7656 44.9375 42.2344
Q41.4062 47.7031 34.5156 47.7031
Q27.6875 47.7031 24.0938 42.7656
Q20.5156 37.8438 20.5156 28.5156
M11.5312 46.6875
L2.875 46.6875
L2.875 51.9062
L20.5156 51.9062
L20.5156 43.7969
Q23.1406 48.6875 27.2188 51
Q31.2969 53.3281 37.3125 53.3281
Q46.875 53.3281 52.9219 45.75
Q58.9844 38.1875 58.9844 25.9844
Q58.9844 13.7656 52.9219 6.17188
Q46.875 -1.42188 37.3125 -1.42188
Q31.2969 -1.42188 27.2188 0.890625
Q23.1406 3.21875 20.5156 8.10938
L20.5156 -15.5781
L29 -15.5781
L29 -20.7969
L2.875 -20.7969
L2.875 -15.5781
L11.5312 -15.5781
z
" id="BitstreamVeraSerif-Roman-70"/>
      <path id="BitstreamVeraSerif-Roman-20"/>
      <path d="
M43.0156 63.7188
L38.2812 63.7188
Q38.2344 67.3906 36.2031 69.2812
Q34.1875 71.1875 30.3281 71.1875
Q25.2969 71.1875 23.2344 68.4219
Q21.1875 65.6719 21.1875 58.5938
L21.1875 51.9062
L35.6875 51.9062
L35.6875 46.6875
L21.1875 46.6875
L21.1875 5.17188
L32.7188 5.17188
L32.7188 0
L3.60938 0
L3.60938 5.17188
L12.2031 5.17188
L12.2031 46.6875
L3.60938 46.6875
L3.60938 51.9062
L12.2031 51.9062
L12.2031 58.4062
Q12.2031 67.0938 16.7188 71.5312
Q21.2344 75.9844 29.9844 75.9844
Q33.25 75.9844 36.5156 75.3906
Q39.7969 74.8125 43.0156 73.5781
z
" id="BitstreamVeraSerif-Roman-66"/>
      <path d="
M9.71875 68.0156
Q9.71875 70.2656 11.3438 71.9219
Q12.9844 73.5781 15.2812 73.5781
Q17.5312 73.5781 19.1562 71.9219
Q20.7969 70.2656 20.7969 68.0156
Q20.7969 65.7188 19.1875 64.1094
Q17.5781 62.5 15.2812 62.5
Q12.9844 62.5 11.3438 64.1094
Q9.71875 65.7188 9.71875 68.0156
M21.1875 5.17188
L29.6875 5.17188
L29.6875 0
L3.60938 0
L3.60938 5.17188
L12.2031 5.17188
L12.2031 46.6875
L3.60938 46.6875
L3.60938 51.9062
L21.1875 51.9062
z
" id="BitstreamVeraSerif-Roman-69"/>
      <path d="
M51.8125 41.7969
Q54.3906 47.5156 58.4219 50.4219
Q62.4531 53.3281 67.8281 53.3281
Q75.9844 53.3281 79.9844 48.2656
Q83.9844 43.2188 83.9844 33.0156
L83.9844 5.17188
L92.0938 5.17188
L92.0938 0
L67.1875 0
L67.1875 5.17188
L75 5.17188
L75 31.9844
Q75 39.9375 72.6562 43.3125
Q70.3125 46.6875 64.8906 46.6875
Q58.8906 46.6875 55.7344 42.1406
Q52.5938 37.5938 52.5938 28.9062
L52.5938 5.17188
L60.4062 5.17188
L60.4062 0
L35.7969 0
L35.7969 5.17188
L43.6094 5.17188
L43.6094 32.3281
Q43.6094 40.0938 41.2656 43.3906
Q38.9219 46.6875 33.5 46.6875
Q27.4844 46.6875 24.3281 42.1406
Q21.1875 37.5938 21.1875 28.9062
L21.1875 5.17188
L29 5.17188
L29 0
L4.10938 0
L4.10938 5.17188
L12.2031 5.17188
L12.2031 46.7812
L3.60938 46.7812
L3.60938 51.9062
L21.1875 51.9062
L21.1875 42.6719
Q23.6875 47.8594 27.5312 50.5938
Q31.3906 53.3281 36.2812 53.3281
Q42.3281 53.3281 46.375 50.3125
Q50.4375 47.3125 51.8125 41.7969" id="BitstreamVeraSerif-Roman-6d"/>
      <path d="
M4.10938 0
L4.10938 5.17188
L12.2031 5.17188
L12.2031 46.6875
L3.60938 46.6875
L3.60938 51.9062
L21.1875 51.9062
L21.1875 42.6719
Q23.6875 47.9531 27.6562 50.6406
Q31.6406 53.3281 36.9219 53.3281
Q45.5156 53.3281 49.5625 48.3906
Q53.6094 43.4531 53.6094 33.0156
L53.6094 5.17188
L61.625 5.17188
L61.625 0
L36.8125 0
L36.8125 5.17188
L44.5781 5.17188
L44.5781 30.1719
Q44.5781 39.7031 42.2344 43.2344
Q39.8906 46.7812 33.9844 46.7812
Q27.7344 46.7812 24.4531 42.2031
Q21.1875 37.6406 21.1875 28.9062
L21.1875 5.17188
L29 5.17188
L29 0
z
" id="BitstreamVeraSerif-Roman-6e"/>
      <path d="
M30.0781 3.42188
Q37.3125 3.42188 40.9844 9.125
Q44.6719 14.8438 44.6719 25.9844
Q44.6719 37.1094 40.9844 42.7969
Q37.3125 48.4844 30.0781 48.4844
Q22.8594 48.4844 19.1719 42.7969
Q15.4844 37.1094 15.4844 25.9844
Q15.4844 14.8438 19.1875 9.125
Q22.9062 3.42188 30.0781 3.42188
M30.0781 -1.42188
Q18.75 -1.42188 11.8594 6.07812
Q4.98438 13.5781 4.98438 25.9844
Q4.98438 38.375 11.8438 45.8438
Q18.7031 53.3281 30.0781 53.3281
Q41.4531 53.3281 48.3125 45.8438
Q55.1719 38.375 55.1719 25.9844
Q55.1719 13.5781 48.3125 6.07812
Q41.4531 -1.42188 30.0781 -1.42188" id="BitstreamVeraSerif-Roman-6f"/>
      <path d="
M39.7969 16.3125
L39.7969 27.2969
L28.2188 27.2969
Q21.5312 27.2969 18.25 24.4062
Q14.9844 21.5312 14.9844 15.5781
Q14.9844 10.1562 18.2969 6.98438
Q21.625 3.8125 27.2969 3.8125
Q32.9062 3.8125 36.3438 7.28125
Q39.7969 10.75 39.7969 16.3125
M48.7812 32.4219
L48.7812 5.17188
L56.7812 5.17188
L56.7812 0
L39.7969 0
L39.7969 5.60938
Q36.8125 2 32.9062 0.28125
Q29 -1.42188 23.7812 -1.42188
Q15.1406 -1.42188 10.0625 3.17188
Q4.98438 7.76562 4.98438 15.5781
Q4.98438 23.6406 10.7969 28.0781
Q16.6094 32.5156 27.2031 32.5156
L39.7969 32.5156
L39.7969 36.0781
Q39.7969 42 36.2031 45.2344
Q32.625 48.4844 26.125 48.4844
Q20.75 48.4844 17.5781 46.0469
Q14.4062 43.6094 13.625 38.8125
L8.98438 38.8125
L8.98438 49.3125
Q13.6719 51.3125 18.0938 52.3125
Q22.5156 53.3281 26.7031 53.3281
Q37.5 53.3281 43.1406 47.9688
Q48.7812 42.625 48.7812 32.4219" id="BitstreamVeraSerif-Roman-61"/>
     </defs>
     <g style="fill:#262626;" transform="translate(215.4234375 354.36640625)scale(0.11 -0.11)">
      <use xlink:href="#BitstreamVeraSerif-Roman-6e"/>
      <use x="64.404296875" xlink:href="#BitstreamVeraSerif-Roman-75"/>
      <use x="128.80859375" xlink:href="#BitstreamVeraSerif-Roman-6d"/>
      <use x="223.6328125" xlink:href="#BitstreamVeraSerif-Roman-62"/>
      <use x="287.646484375" xlink:href="#BitstreamVeraSerif-Roman-65"/>
      <use x="346.826171875" xlink:href="#BitstreamVeraSerif-Roman-72"/>
      <use x="394.62890625" xlink:href="#BitstreamVeraSerif-Roman-20"/>
      <use x="426.416015625" xlink:href="#BitstreamVeraSerif-Roman-6f"/>
      <use x="486.62109375" xlink:href="#BitstreamVeraSerif-Roman-66"/>
      <use x="523.6328125" xlink:href="#BitstreamVeraSerif-Roman-20"/>
      <use x="555.419921875" xlink:href="#BitstreamVeraSerif-Roman-69"/>
      <use x="587.40234375" xlink:href="#BitstreamVeraSerif-Roman-74"/>
      <use x="627.587890625" xlink:href="#BitstreamVeraSerif-Roman-65"/>
      <use x="686.767578125" xlink:href="#BitstreamVeraSerif-Roman-6d"/>
      <use x="781.591796875" xlink:href="#BitstreamVeraSerif-Roman-73"/>
      <use x="832.91015625" xlink:href="#BitstreamVeraSerif-Roman-20"/>
      <use x="864.697265625" xlink:href="#BitstreamVeraSerif-Roman-70"/>
      <use x="928.7109375" xlink:href="#BitstreamVeraSerif-Roman-65"/>
      <use x="987.890625" xlink:href="#BitstreamVeraSerif-Roman-72"/>
      <use x="1035.69335938" xlink:href="#BitstreamVeraSerif-Roman-20"/>
      <use x="1067.48046875" xlink:href="#BitstreamVeraSerif-Roman-72"/>
      <use x="1115.28320312" xlink:href="#BitstreamVeraSerif-Roman-65"/>
      <use x="1174.46289062" xlink:href="#BitstreamVeraSerif-Roman-73"/>
      <use x="1225.78125" xlink:href="#BitstreamVeraSerif-Roman-74"/>
      <use x="1265.96679688" xlink:href="#BitstreamVeraSerif-Roman-72"/>
      <use x="1313.76953125" xlink:href="#BitstreamVeraSerif-Roman-61"/>
      <use x="1373.38867188" xlink:href="#BitstreamVeraSerif-Roman-69"/>
      <use x="1405.37109375" xlink:href="#BitstreamVeraSerif-Roman-6e"/>
      <use x="1469.77539062" xlink:href="#BitstreamVeraSerif-Roman-74"/>
     </g>
    </g>
   </g>
   <g id="matplotlib.axis_2">
    <g id="ytick_1">
     <g id="line2d_11">
      <defs>
       <path d="
M0 0
L-6 0" id="m0dfa6ce036" style="stroke:#262626;"/>
      </defs>
      <g>
       <use style="fill:#262626;stroke:#262626;" x="72.7875" xlink:href="#m0dfa6ce036" y="318.33"/>
      </g>
     </g>
     <g id="text_12">
      <!-- 0 -->
      <g style="fill:#262626;" transform="translate(54.7484375 321.089375)scale(0.1 -0.1)">
       <use xlink:href="#BitstreamVeraSerif-Roman-30"/>
      </g>
     </g>
    </g>
    <g id="ytick_2">
     <g id="line2d_12">
      <g>
       <use style="fill:#262626;stroke:#262626;" x="72.7875" xlink:href="#m0dfa6ce036" y="277.907142857"/>
      </g>
     </g>
     <g id="text_13">
      <!-- 20 -->
      <g style="fill:#262626;" transform="translate(48.4046875 280.666517857)scale(0.1 -0.1)">
       <use xlink:href="#BitstreamVeraSerif-Roman-32"/>
       <use x="63.623046875" xlink:href="#BitstreamVeraSerif-Roman-30"/>
      </g>
     </g>
    </g>
    <g id="ytick_3">
     <g id="line2d_13">
      <g>
       <use style="fill:#262626;stroke:#262626;" x="72.7875" xlink:href="#m0dfa6ce036" y="237.484285714"/>
      </g>
     </g>
     <g id="text_14">
      <!-- 40 -->
      <g style="fill:#262626;" transform="translate(48.034375 240.243660714)scale(0.1 -0.1)">
       <use xlink:href="#BitstreamVeraSerif-Roman-34"/>
       <use x="63.623046875" xlink:href="#BitstreamVeraSerif-Roman-30"/>
      </g>
     </g>
    </g>
    <g id="ytick_4">
     <g id="line2d_14">
      <g>
       <use style="fill:#262626;stroke:#262626;" x="72.7875" xlink:href="#m0dfa6ce036" y="197.061428571"/>
      </g>
     </g>
     <g id="text_15">
      <!-- 60 -->
      <g style="fill:#262626;" transform="translate(48.3953125 199.820803571)scale(0.1 -0.1)">
       <use xlink:href="#BitstreamVeraSerif-Roman-36"/>
       <use x="63.623046875" xlink:href="#BitstreamVeraSerif-Roman-30"/>
      </g>
     </g>
    </g>
    <g id="ytick_5">
     <g id="line2d_15">
      <g>
       <use style="fill:#262626;stroke:#262626;" x="72.7875" xlink:href="#m0dfa6ce036" y="156.638571429"/>
      </g>
     </g>
     <g id="text_16">
      <!-- 80 -->
      <g style="fill:#262626;" transform="translate(48.3953125 159.397946429)scale(0.1 -0.1)">
       <use xlink:href="#BitstreamVeraSerif-Roman-38"/>
       <use x="63.623046875" xlink:href="#BitstreamVeraSerif-Roman-30"/>
      </g>
     </g>
    </g>
    <g id="ytick_6">
     <g id="line2d_16">
      <g>
       <use style="fill:#262626;stroke:#262626;" x="72.7875" xlink:href="#m0dfa6ce036" y="116.215714286"/>
      </g>
     </g>
     <g id="text_17">
      <!-- 100 -->
      <g style="fill:#262626;" transform="translate(42.584375 118.975089286)scale(0.1 -0.1)">
       <use xlink:href="#BitstreamVeraSerif-Roman-31"/>
       <use x="63.623046875" xlink:href="#BitstreamVeraSerif-Roman-30"/>
       <use x="127.24609375" xlink:href="#BitstreamVeraSerif-Roman-30"/>
      </g>
     </g>
    </g>
    <g id="ytick_7">
     <g id="line2d_17">
      <g>
       <use style="fill:#262626;stroke:#262626;" x="72.7875" xlink:href="#m0dfa6ce036" y="75.7928571429"/>
      </g>
     </g>
     <g id="text_18">
      <!-- 120 -->
      <g style="fill:#262626;" transform="translate(42.584375 78.5522321429)scale(0.1 -0.1)">
       <use xlink:href="#BitstreamVeraSerif-Roman-31"/>
       <use x="63.623046875" xlink:href="#BitstreamVeraSerif-Roman-32"/>
       <use x="127.24609375" xlink:href="#BitstreamVeraSerif-Roman-30"/>
      </g>
     </g>
    </g>
    <g id="ytick_8">
     <g id="line2d_18">
      <g>
       <use style="fill:#262626;stroke:#262626;" x="72.7875" xlink:href="#m0dfa6ce036" y="35.37"/>
      </g>
     </g>
     <g id="text_19">
      <!-- 140 -->
      <g style="fill:#262626;" transform="translate(42.584375 38.129375)scale(0.1 -0.1)">
       <use xlink:href="#BitstreamVeraSerif-Roman-31"/>
       <use x="63.623046875" xlink:href="#BitstreamVeraSerif-Roman-34"/>
       <use x="127.24609375" xlink:href="#BitstreamVeraSerif-Roman-30"/>
      </g>
     </g>
    </g>
    <g id="text_20">
     <!-- number of restraints -->
     <g style="fill:#262626;" transform="translate(35.29671875 234.27515625)rotate(-90.0)scale(0.11 -0.11)">
      <use xlink:href="#BitstreamVeraSerif-Roman-6e"/>
      <use x="64.404296875" xlink:href="#BitstreamVeraSerif-Roman-75"/>
      <use x="128.80859375" xlink:href="#BitstreamVeraSerif-Roman-6d"/>
      <use x="223.6328125" xlink:href="#BitstreamVeraSerif-Roman-62"/>
      <use x="287.646484375" xlink:href="#BitstreamVeraSerif-Roman-65"/>
      <use x="346.826171875" xlink:href="#BitstreamVeraSerif-Roman-72"/>
      <use x="394.62890625" xlink:href="#BitstreamVeraSerif-Roman-20"/>
      <use x="426.416015625" xlink:href="#BitstreamVeraSerif-Roman-6f"/>
      <use x="486.62109375" xlink:href="#BitstreamVeraSerif-Roman-66"/>
      <use x="523.6328125" xlink:href="#BitstreamVeraSerif-Roman-20"/>
      <use x="555.419921875" xlink:href="#BitstreamVeraSerif-Roman-72"/>
      <use x="603.22265625" xlink:href="#BitstreamVeraSerif-Roman-65"/>
      <use x="662.40234375" xlink:href="#BitstreamVeraSerif-Roman-73"/>
      <use x="713.720703125" xlink:href="#BitstreamVeraSerif-Roman-74"/>
      <use x="753.90625" xlink:href="#BitstreamVeraSerif-Roman-72"/>
      <use x="801.708984375" xlink:href="#BitstreamVeraSerif-Roman-61"/>
      <use x="861.328125" xlink:href="#BitstreamVeraSerif-Roman-69"/>
      <use x="893.310546875" xlink:href="#BitstreamVeraSerif-Roman-6e"/>
      <use x="957.71484375" xlink:href="#BitstreamVeraSerif-Roman-74"/>
      <use x="997.900390625" xlink:href="#BitstreamVeraSerif-Roman-73"/>
     </g>
    </g>
   </g>
   <g id="patch_3">
    <path clip-path="url(#p3549ed5471)" d="
M77.3003 318.33
L95.3516 318.33
L95.3516 304.182
L77.3003 304.182
z
" style="fill:#aeccdb;stroke:#000000;stroke-linejoin:miter;stroke-width:0.3;"/>
   </g>
   <g id="patch_4">
    <path clip-path="url(#p3549ed5471)" d="
M122.429 318.33
L140.48 318.33
L140.48 285.992
L122.429 285.992
z
" style="fill:#aeccdb;stroke:#000000;stroke-linejoin:miter;stroke-width:0.3;"/>
   </g>
   <g id="patch_5">
    <path clip-path="url(#p3549ed5471)" d="
M167.557 318.33
L185.608 318.33
L185.608 302.161
L167.557 302.161
z
" style="fill:#aeccdb;stroke:#000000;stroke-linejoin:miter;stroke-width:0.3;"/>
   </g>
   <g id="patch_6">
    <path clip-path="url(#p3549ed5471)" d="
M212.685 318.33
L230.736 318.33
L230.736 294.076
L212.685 294.076
z
" style="fill:#aeccdb;stroke:#000000;stroke-linejoin:miter;stroke-width:0.3;"/>
   </g>
   <g id="patch_7">
    <path clip-path="url(#p3549ed5471)" d="
M257.813 318.33
L275.865 318.33
L275.865 298.119
L257.813 298.119
z
" style="fill:#aeccdb;stroke:#000000;stroke-linejoin:miter;stroke-width:0.3;"/>
   </g>
   <g id="patch_8">
    <path clip-path="url(#p3549ed5471)" d="
M302.942 318.33
L320.993 318.33
L320.993 281.949
L302.942 281.949
z
" style="fill:#aeccdb;stroke:#000000;stroke-linejoin:miter;stroke-width:0.3;"/>
   </g>
   <g id="patch_9">
    <path clip-path="url(#p3549ed5471)" d="
M348.07 318.33
L366.121 318.33
L366.121 288.013
L348.07 288.013
z
" style="fill:#aeccdb;stroke:#000000;stroke-linejoin:miter;stroke-width:0.3;"/>
   </g>
   <g id="patch_10">
    <path clip-path="url(#p3549ed5471)" d="
M393.198 318.33
L411.249 318.33
L411.249 283.971
L393.198 283.971
z
" style="fill:#aeccdb;stroke:#000000;stroke-linejoin:miter;stroke-width:0.3;"/>
   </g>
   <g id="patch_11">
    <path clip-path="url(#p3549ed5471)" d="
M438.326 318.33
L456.378 318.33
L456.378 288.013
L438.326 288.013
z
" style="fill:#aeccdb;stroke:#000000;stroke-linejoin:miter;stroke-width:0.3;"/>
   </g>
   <g id="patch_12">
    <path clip-path="url(#p3549ed5471)" d="
M483.455 318.33
L501.506 318.33
L501.506 53.5603
L483.455 53.5603
z
" style="fill:#aeccdb;stroke:#000000;stroke-linejoin:miter;stroke-width:0.3;"/>
   </g>
   <g id="patch_13">
    <path clip-path="url(#p3549ed5471)" d="
M95.3516 318.33
L113.403 318.33
L113.403 150.575
L95.3516 150.575
z
" style="fill:#efa6a5;stroke:#000000;stroke-linejoin:miter;stroke-width:0.3;"/>
   </g>
   <g id="patch_14">
    <path clip-path="url(#p3549ed5471)" d="
M140.48 318.33
L158.531 318.33
L158.531 225.357
L140.48 225.357
z
" style="fill:#efa6a5;stroke:#000000;stroke-linejoin:miter;stroke-width:0.3;"/>
   </g>
   <g id="patch_15">
    <path clip-path="url(#p3549ed5471)" d="
M185.608 318.33
L203.659 318.33
L203.659 306.203
L185.608 306.203
z
" style="fill:#efa6a5;stroke:#000000;stroke-linejoin:miter;stroke-width:0.3;"/>
   </g>
   <g id="patch_16">
    <path clip-path="url(#p3549ed5471)" d="
M230.736 318.33
L248.788 318.33
L248.788 292.055
L230.736 292.055
z
" style="fill:#efa6a5;stroke:#000000;stroke-linejoin:miter;stroke-width:0.3;"/>
   </g>
   <g id="patch_17">
    <path clip-path="url(#p3549ed5471)" d="
M275.865 318.33
L293.916 318.33
L293.916 306.203
L275.865 306.203
z
" style="fill:#efa6a5;stroke:#000000;stroke-linejoin:miter;stroke-width:0.3;"/>
   </g>
   <g id="patch_18">
    <path clip-path="url(#p3549ed5471)" d="
M320.993 318.33
L339.044 318.33
L339.044 304.182
L320.993 304.182
z
" style="fill:#efa6a5;stroke:#000000;stroke-linejoin:miter;stroke-width:0.3;"/>
   </g>
   <g id="patch_19">
    <path clip-path="url(#p3549ed5471)" d="
M366.121 318.33
L384.172 318.33
L384.172 298.119
L366.121 298.119
z
" style="fill:#efa6a5;stroke:#000000;stroke-linejoin:miter;stroke-width:0.3;"/>
   </g>
   <g id="patch_20">
    <path clip-path="url(#p3549ed5471)" d="
M411.249 318.33
L429.301 318.33
L429.301 306.203
L411.249 306.203
z
" style="fill:#efa6a5;stroke:#000000;stroke-linejoin:miter;stroke-width:0.3;"/>
   </g>
   <g id="patch_21">
    <path clip-path="url(#p3549ed5471)" d="
M456.378 318.33
L474.429 318.33
L474.429 306.203
L456.378 306.203
z
" style="fill:#efa6a5;stroke:#000000;stroke-linejoin:miter;stroke-width:0.3;"/>
   </g>
   <g id="patch_22">
    <path clip-path="url(#p3549ed5471)" d="
M501.506 318.33
L519.557 318.33
L519.557 184.935
L501.506 184.935
z
" style="fill:#efa6a5;stroke:#000000;stroke-linejoin:miter;stroke-width:0.3;"/>
   </g>
   <g id="patch_23">
    <path clip-path="url(#p3549ed5471)" d="
M77.3003 318.33
L95.3516 318.33
L95.3516 312.267
L77.3003 312.267
z
" style="fill:#3274a1;stroke:#000000;stroke-linejoin:miter;stroke-width:0.3;"/>
   </g>
   <g id="patch_24">
    <path clip-path="url(#p3549ed5471)" d="
M122.429 318.33
L140.48 318.33
L140.48 306.203
L122.429 306.203
z
" style="fill:#3274a1;stroke:#000000;stroke-linejoin:miter;stroke-width:0.3;"/>
   </g>
   <g id="patch_25">
    <path clip-path="url(#p3549ed5471)" d="
M167.557 318.33
L185.608 318.33
L185.608 314.288
L167.557 314.288
z
" style="fill:#3274a1;stroke:#000000;stroke-linejoin:miter;stroke-width:0.3;"/>
   </g>
   <g id="patch_26">
    <path clip-path="url(#p3549ed5471)" d="
M212.685 318.33
L230.736 318.33
L230.736 306.203
L212.685 306.203
z
" style="fill:#3274a1;stroke:#000000;stroke-linejoin:miter;stroke-width:0.3;"/>
   </g>
   <g id="patch_27">
    <path clip-path="url(#p3549ed5471)" d="
M257.813 318.33
L275.865 318.33
L275.865 314.288
L257.813 314.288
z
" style="fill:#3274a1;stroke:#000000;stroke-linejoin:miter;stroke-width:0.3;"/>
   </g>
   <g id="patch_28">
    <path clip-path="url(#p3549ed5471)" d="
M302.942 318.33
L320.993 318.33
L320.993 306.203
L302.942 306.203
z
" style="fill:#3274a1;stroke:#000000;stroke-linejoin:miter;stroke-width:0.3;"/>
   </g>
   <g id="patch_29">
    <path clip-path="url(#p3549ed5471)" d="
M348.07 318.33
L366.121 318.33
L366.121 306.203
L348.07 306.203
z
" style="fill:#3274a1;stroke:#000000;stroke-linejoin:miter;stroke-width:0.3;"/>
   </g>
   <g id="patch_30">
    <path clip-path="url(#p3549ed5471)" d="
M393.198 318.33
L411.249 318.33
L411.249 302.161
L393.198 302.161
z
" style="fill:#3274a1;stroke:#000000;stroke-linejoin:miter;stroke-width:0.3;"/>
   </g>
   <g id="patch_31">
    <path clip-path="url(#p3549ed5471)" d="
M438.326 318.33
L456.378 318.33
L456.378 300.14
L438.326 300.14
z
" style="fill:#3274a1;stroke:#000000;stroke-linejoin:miter;stroke-width:0.3;"/>
   </g>
   <g id="patch_32">
    <path clip-path="url(#p3549ed5471)" d="
M483.455 318.33
L501.506 318.33
L501.506 168.765
L483.455 168.765
z
" style="fill:#3274a1;stroke:#000000;stroke-linejoin:miter;stroke-width:0.3;"/>
   </g>
   <g id="patch_33">
    <path clip-path="url(#p3549ed5471)" d="
M95.3516 318.33
L113.403 318.33
L113.403 235.463
L95.3516 235.463
z
" style="fill:#ca3335;stroke:#000000;stroke-linejoin:miter;stroke-width:0.3;"/>
   </g>
   <g id="patch_34">
    <path clip-path="url(#p3549ed5471)" d="
M140.48 318.33
L158.531 318.33
L158.531 277.907
L140.48 277.907
z
" style="fill:#ca3335;stroke:#000000;stroke-linejoin:miter;stroke-width:0.3;"/>
   </g>
   <g id="patch_35">
    <path clip-path="url(#p3549ed5471)" d="
M185.608 318.33
L203.659 318.33
L203.659 310.245
L185.608 310.245
z
" style="fill:#ca3335;stroke:#000000;stroke-linejoin:miter;stroke-width:0.3;"/>
   </g>
   <g id="patch_36">
    <path clip-path="url(#p3549ed5471)" d="
M230.736 318.33
L248.788 318.33
L248.788 302.161
L230.736 302.161
z
" style="fill:#ca3335;stroke:#000000;stroke-linejoin:miter;stroke-width:0.3;"/>
   </g>
   <g id="patch_37">
    <path clip-path="url(#p3549ed5471)" d="
M275.865 318.33
L293.916 318.33
L293.916 316.309
L275.865 316.309
z
" style="fill:#ca3335;stroke:#000000;stroke-linejoin:miter;stroke-width:0.3;"/>
   </g>
   <g id="patch_38">
    <path clip-path="url(#p3549ed5471)" d="
M320.993 318.33
L339.044 318.33
L339.044 312.267
L320.993 312.267
z
" style="fill:#ca3335;stroke:#000000;stroke-linejoin:miter;stroke-width:0.3;"/>
   </g>
   <g id="patch_39">
    <path clip-path="url(#p3549ed5471)" d="
M366.121 318.33
L384.172 318.33
L384.172 312.267
L366.121 312.267
z
" style="fill:#ca3335;stroke:#000000;stroke-linejoin:miter;stroke-width:0.3;"/>
   </g>
   <g id="patch_40">
    <path clip-path="url(#p3549ed5471)" d="
M411.249 318.33
L429.301 318.33
L429.301 312.267
L411.249 312.267
z
" style="fill:#ca3335;stroke:#000000;stroke-linejoin:miter;stroke-width:0.3;"/>
   </g>
   <g id="patch_41">
    <path clip-path="url(#p3549ed5471)" d="
M456.378 318.33
L474.429 318.33
L474.429 308.224
L456.378 308.224
z
" style="fill:#ca3335;stroke:#000000;stroke-linejoin:miter;stroke-width:0.3;"/>
   </g>
   <g id="patch_42">
    <path clip-path="url(#p3549ed5471)" d="
M501.506 318.33
L519.557 318.33
L519.557 249.611
L501.506 249.611
z
" style="fill:#ca3335;stroke:#000000;stroke-linejoin:miter;stroke-width:0.3;"/>
   </g>
   <g id="line2d_19">
    <path clip-path="url(#p3549ed5471)" style="fill:none;stroke:#424242;stroke-linecap:round;stroke-width:3.15;"/>
   </g>
   <g id="line2d_20">
    <path clip-path="url(#p3549ed5471)" style="fill:none;stroke:#424242;stroke-linecap:round;stroke-width:3.15;"/>
   </g>
   <g id="line2d_21">
    <path clip-path="url(#p3549ed5471)" style="fill:none;stroke:#424242;stroke-linecap:round;stroke-width:3.15;"/>
   </g>
   <g id="line2d_22">
    <path clip-path="url(#p3549ed5471)" style="fill:none;stroke:#424242;stroke-linecap:round;stroke-width:3.15;"/>
   </g>
   <g id="line2d_23">
    <path clip-path="url(#p3549ed5471)" style="fill:none;stroke:#424242;stroke-linecap:round;stroke-width:3.15;"/>
   </g>
   <g id="line2d_24">
    <path clip-path="url(#p3549ed5471)" style="fill:none;stroke:#424242;stroke-linecap:round;stroke-width:3.15;"/>
   </g>
   <g id="line2d_25">
    <path clip-path="url(#p3549ed5471)" style="fill:none;stroke:#424242;stroke-linecap:round;stroke-width:3.15;"/>
   </g>
   <g id="line2d_26">
    <path clip-path="url(#p3549ed5471)" style="fill:none;stroke:#424242;stroke-linecap:round;stroke-width:3.15;"/>
   </g>
   <g id="line2d_27">
    <path clip-path="url(#p3549ed5471)" style="fill:none;stroke:#424242;stroke-linecap:round;stroke-width:3.15;"/>
   </g>
   <g id="line2d_28">
    <path clip-path="url(#p3549ed5471)" style="fill:none;stroke:#424242;stroke-linecap:round;stroke-width:3.15;"/>
   </g>
   <g id="line2d_29">
    <path clip-path="url(#p3549ed5471)" style="fill:none;stroke:#424242;stroke-linecap:round;stroke-width:3.15;"/>
   </g>
   <g id="line2d_30">
    <path clip-path="url(#p3549ed5471)" style="fill:none;stroke:#424242;stroke-linecap:round;stroke-width:3.15;"/>
   </g>
   <g id="line2d_31">
    <path clip-path="url(#p3549ed5471)" style="fill:none;stroke:#424242;stroke-linecap:round;stroke-width:3.15;"/>
   </g>
   <g id="line2d_32">
    <path clip-path="url(#p3549ed5471)" style="fill:none;stroke:#424242;stroke-linecap:round;stroke-width:3.15;"/>
   </g>
   <g id="line2d_33">
    <path clip-path="url(#p3549ed5471)" style="fill:none;stroke:#424242;stroke-linecap:round;stroke-width:3.15;"/>
   </g>
   <g id="line2d_34">
    <path clip-path="url(#p3549ed5471)" style="fill:none;stroke:#424242;stroke-linecap:round;stroke-width:3.15;"/>
   </g>
   <g id="line2d_35">
    <path clip-path="url(#p3549ed5471)" style="fill:none;stroke:#424242;stroke-linecap:round;stroke-width:3.15;"/>
   </g>
   <g id="line2d_36">
    <path clip-path="url(#p3549ed5471)" style="fill:none;stroke:#424242;stroke-linecap:round;stroke-width:3.15;"/>
   </g>
   <g id="line2d_37">
    <path clip-path="url(#p3549ed5471)" style="fill:none;stroke:#424242;stroke-linecap:round;stroke-width:3.15;"/>
   </g>
   <g id="line2d_38">
    <path clip-path="url(#p3549ed5471)" style="fill:none;stroke:#424242;stroke-linecap:round;stroke-width:3.15;"/>
   </g>
   <g id="line2d_39">
    <path clip-path="url(#p3549ed5471)" style="fill:none;stroke:#424242;stroke-linecap:round;stroke-width:3.15;"/>
   </g>
   <g id="line2d_40">
    <path clip-path="url(#p3549ed5471)" style="fill:none;stroke:#424242;stroke-linecap:round;stroke-width:3.15;"/>
   </g>
   <g id="line2d_41">
    <path clip-path="url(#p3549ed5471)" style="fill:none;stroke:#424242;stroke-linecap:round;stroke-width:3.15;"/>
   </g>
   <g id="line2d_42">
    <path clip-path="url(#p3549ed5471)" style="fill:none;stroke:#424242;stroke-linecap:round;stroke-width:3.15;"/>
   </g>
   <g id="line2d_43">
    <path clip-path="url(#p3549ed5471)" style="fill:none;stroke:#424242;stroke-linecap:round;stroke-width:3.15;"/>
   </g>
   <g id="line2d_44">
    <path clip-path="url(#p3549ed5471)" style="fill:none;stroke:#424242;stroke-linecap:round;stroke-width:3.15;"/>
   </g>
   <g id="line2d_45">
    <path clip-path="url(#p3549ed5471)" style="fill:none;stroke:#424242;stroke-linecap:round;stroke-width:3.15;"/>
   </g>
   <g id="line2d_46">
    <path clip-path="url(#p3549ed5471)" style="fill:none;stroke:#424242;stroke-linecap:round;stroke-width:3.15;"/>
   </g>
   <g id="line2d_47">
    <path clip-path="url(#p3549ed5471)" style="fill:none;stroke:#424242;stroke-linecap:round;stroke-width:3.15;"/>
   </g>
   <g id="line2d_48">
    <path clip-path="url(#p3549ed5471)" style="fill:none;stroke:#424242;stroke-linecap:round;stroke-width:3.15;"/>
   </g>
   <g id="line2d_49">
    <path clip-path="url(#p3549ed5471)" style="fill:none;stroke:#424242;stroke-linecap:round;stroke-width:3.15;"/>
   </g>
   <g id="line2d_50">
    <path clip-path="url(#p3549ed5471)" style="fill:none;stroke:#424242;stroke-linecap:round;stroke-width:3.15;"/>
   </g>
   <g id="line2d_51">
    <path clip-path="url(#p3549ed5471)" style="fill:none;stroke:#424242;stroke-linecap:round;stroke-width:3.15;"/>
   </g>
   <g id="line2d_52">
    <path clip-path="url(#p3549ed5471)" style="fill:none;stroke:#424242;stroke-linecap:round;stroke-width:3.15;"/>
   </g>
   <g id="line2d_53">
    <path clip-path="url(#p3549ed5471)" style="fill:none;stroke:#424242;stroke-linecap:round;stroke-width:3.15;"/>
   </g>
   <g id="line2d_54">
    <path clip-path="url(#p3549ed5471)" style="fill:none;stroke:#424242;stroke-linecap:round;stroke-width:3.15;"/>
   </g>
   <g id="line2d_55">
    <path clip-path="url(#p3549ed5471)" style="fill:none;stroke:#424242;stroke-linecap:round;stroke-width:3.15;"/>
   </g>
   <g id="line2d_56">
    <path clip-path="url(#p3549ed5471)" style="fill:none;stroke:#424242;stroke-linecap:round;stroke-width:3.15;"/>
   </g>
   <g id="line2d_57">
    <path clip-path="url(#p3549ed5471)" style="fill:none;stroke:#424242;stroke-linecap:round;stroke-width:3.15;"/>
   </g>
   <g id="line2d_58">
    <path clip-path="url(#p3549ed5471)" style="fill:none;stroke:#424242;stroke-linecap:round;stroke-width:3.15;"/>
   </g>
   <g id="patch_43">
    <path d="
M72.7875 318.33
L524.07 318.33" style="fill:none;stroke:#262626;stroke-linecap:square;stroke-linejoin:miter;stroke-width:1.25;"/>
   </g>
   <g id="patch_44">
    <path d="
M72.7875 318.33
L72.7875 35.37" style="fill:none;stroke:#262626;stroke-linecap:square;stroke-linejoin:miter;stroke-width:1.25;"/>
   </g>
   <g id="legend_1">
    <g id="patch_45">
     <path d="
M81.7875 51.9684
L101.788 51.9684
L101.788 44.9684
L81.7875 44.9684
z
" style="fill:#aeccdb;stroke:#000000;stroke-linejoin:miter;stroke-width:0.3;"/>
    </g>
    <g id="text_21">
     <!-- hNhhNH unfiltered -->
     <defs>
      <path d="
M52.4844 5.17188
L61.0781 5.17188
L61.0781 0
L43.5 0
L43.5 8.10938
Q40.875 3.21875 36.7969 0.890625
Q32.7188 -1.42188 26.7031 -1.42188
Q17.1406 -1.42188 11.0625 6.17188
Q4.98438 13.7656 4.98438 25.9844
Q4.98438 38.1875 11.0312 45.75
Q17.0938 53.3281 26.7031 53.3281
Q32.7188 53.3281 36.7969 51
Q40.875 48.6875 43.5 43.7969
L43.5 70.7969
L35.0156 70.7969
L35.0156 75.9844
L52.4844 75.9844
z

M43.5 23.3906
L43.5 28.5156
Q43.5 37.8438 39.9062 42.7656
Q36.3281 47.7031 29.5 47.7031
Q22.5625 47.7031 19.0156 42.2344
Q15.4844 36.7656 15.4844 25.9844
Q15.4844 15.2344 19.0156 9.71875
Q22.5625 4.20312 29.5 4.20312
Q36.3281 4.20312 39.9062 9.10938
Q43.5 14.0156 43.5 23.3906" id="BitstreamVeraSerif-Roman-64"/>
      <path d="
M4.89062 0
L4.89062 5.17188
L14.7031 5.17188
L14.7031 67.6719
L4.89062 67.6719
L4.89062 72.9062
L23.5781 72.9062
L67.2812 15.375
L67.2812 67.6719
L57.5156 67.6719
L57.5156 72.9062
L83.1094 72.9062
L83.1094 67.6719
L73.2969 67.6719
L73.2969 -1.42188
L67.3906 -1.42188
L20.7031 60.0156
L20.7031 5.17188
L30.5156 5.17188
L30.5156 0
z
" id="BitstreamVeraSerif-Roman-4e"/>
      <path d="
M4.10938 0
L4.10938 5.17188
L12.2031 5.17188
L12.2031 70.7969
L3.60938 70.7969
L3.60938 75.9844
L21.1875 75.9844
L21.1875 42.6719
Q23.6875 47.9531 27.6562 50.6406
Q31.6406 53.3281 36.9219 53.3281
Q45.5156 53.3281 49.5625 48.3906
Q53.6094 43.4531 53.6094 33.0156
L53.6094 5.17188
L61.625 5.17188
L61.625 0
L36.8125 0
L36.8125 5.17188
L44.5781 5.17188
L44.5781 30.1719
Q44.5781 39.7031 42.25 43.1875
Q39.9375 46.6875 33.9844 46.6875
Q27.7344 46.6875 24.4531 42.1406
Q21.1875 37.5938 21.1875 28.9062
L21.1875 5.17188
L29 5.17188
L29 0
z
" id="BitstreamVeraSerif-Roman-68"/>
      <path d="
M5.51562 0
L5.51562 5.17188
L14.7969 5.17188
L14.7969 67.6719
L5.51562 67.6719
L5.51562 72.9062
L33.9844 72.9062
L33.9844 67.6719
L24.7031 67.6719
L24.7031 42.4844
L62.5 42.4844
L62.5 67.6719
L53.2188 67.6719
L53.2188 72.9062
L81.6875 72.9062
L81.6875 67.6719
L72.4062 67.6719
L72.4062 5.17188
L81.6875 5.17188
L81.6875 0
L53.2188 0
L53.2188 5.17188
L62.5 5.17188
L62.5 36.5312
L24.7031 36.5312
L24.7031 5.17188
L33.9844 5.17188
L33.9844 0
z
" id="BitstreamVeraSerif-Roman-48"/>
      <path d="
M20.5156 5.17188
L29 5.17188
L29 0
L2.875 0
L2.875 5.17188
L11.5312 5.17188
L11.5312 70.7969
L2.875 70.7969
L2.875 75.9844
L20.5156 75.9844
z
" id="BitstreamVeraSerif-Roman-6c"/>
     </defs>
     <g style="fill:#262626;" transform="translate(109.7875 51.9684375)scale(0.1 -0.1)">
      <use xlink:href="#BitstreamVeraSerif-Roman-68"/>
      <use x="64.404296875" xlink:href="#BitstreamVeraSerif-Roman-4e"/>
      <use x="151.904296875" xlink:href="#BitstreamVeraSerif-Roman-68"/>
      <use x="216.30859375" xlink:href="#BitstreamVeraSerif-Roman-68"/>
      <use x="280.712890625" xlink:href="#BitstreamVeraSerif-Roman-4e"/>
      <use x="368.212890625" xlink:href="#BitstreamVeraSerif-Roman-48"/>
      <use x="455.419921875" xlink:href="#BitstreamVeraSerif-Roman-20"/>
      <use x="487.20703125" xlink:href="#BitstreamVeraSerif-Roman-75"/>
      <use x="551.611328125" xlink:href="#BitstreamVeraSerif-Roman-6e"/>
      <use x="616.015625" xlink:href="#BitstreamVeraSerif-Roman-66"/>
      <use x="653.02734375" xlink:href="#BitstreamVeraSerif-Roman-69"/>
      <use x="685.009765625" xlink:href="#BitstreamVeraSerif-Roman-6c"/>
      <use x="716.9921875" xlink:href="#BitstreamVeraSerif-Roman-74"/>
      <use x="757.177734375" xlink:href="#BitstreamVeraSerif-Roman-65"/>
      <use x="816.357421875" xlink:href="#BitstreamVeraSerif-Roman-72"/>
      <use x="864.16015625" xlink:href="#BitstreamVeraSerif-Roman-65"/>
      <use x="923.33984375" xlink:href="#BitstreamVeraSerif-Roman-64"/>
     </g>
    </g>
    <g id="patch_46">
     <path d="
M81.7875 66.6466
L101.788 66.6466
L101.788 59.6466
L81.7875 59.6466
z
" style="fill:#efa6a5;stroke:#000000;stroke-linejoin:miter;stroke-width:0.3;"/>
    </g>
    <g id="text_22">
     <!-- hNhhNH filtered -->
     <g style="fill:#262626;" transform="translate(109.7875 66.6465625)scale(0.1 -0.1)">
      <use xlink:href="#BitstreamVeraSerif-Roman-68"/>
      <use x="64.404296875" xlink:href="#BitstreamVeraSerif-Roman-4e"/>
      <use x="151.904296875" xlink:href="#BitstreamVeraSerif-Roman-68"/>
      <use x="216.30859375" xlink:href="#BitstreamVeraSerif-Roman-68"/>
      <use x="280.712890625" xlink:href="#BitstreamVeraSerif-Roman-4e"/>
      <use x="368.212890625" xlink:href="#BitstreamVeraSerif-Roman-48"/>
      <use x="455.419921875" xlink:href="#BitstreamVeraSerif-Roman-20"/>
      <use x="487.20703125" xlink:href="#BitstreamVeraSerif-Roman-66"/>
      <use x="524.21875" xlink:href="#BitstreamVeraSerif-Roman-69"/>
      <use x="556.201171875" xlink:href="#BitstreamVeraSerif-Roman-6c"/>
      <use x="588.18359375" xlink:href="#BitstreamVeraSerif-Roman-74"/>
      <use x="628.369140625" xlink:href="#BitstreamVeraSerif-Roman-65"/>
      <use x="687.548828125" xlink:href="#BitstreamVeraSerif-Roman-72"/>
      <use x="735.3515625" xlink:href="#BitstreamVeraSerif-Roman-65"/>
      <use x="794.53125" xlink:href="#BitstreamVeraSerif-Roman-64"/>
     </g>
    </g>
    <g id="patch_47">
     <path d="
M81.7875 81.3247
L101.788 81.3247
L101.788 74.3247
L81.7875 74.3247
z
" style="fill:#3274a1;stroke:#000000;stroke-linejoin:miter;stroke-width:0.3;"/>
    </g>
    <g id="text_23">
     <!-- hNHH unfiltered -->
     <g style="fill:#262626;" transform="translate(109.7875 81.3246875)scale(0.1 -0.1)">
      <use xlink:href="#BitstreamVeraSerif-Roman-68"/>
      <use x="64.404296875" xlink:href="#BitstreamVeraSerif-Roman-4e"/>
      <use x="151.904296875" xlink:href="#BitstreamVeraSerif-Roman-48"/>
      <use x="239.111328125" xlink:href="#BitstreamVeraSerif-Roman-48"/>
      <use x="326.318359375" xlink:href="#BitstreamVeraSerif-Roman-20"/>
      <use x="358.10546875" xlink:href="#BitstreamVeraSerif-Roman-75"/>
      <use x="422.509765625" xlink:href="#BitstreamVeraSerif-Roman-6e"/>
      <use x="486.9140625" xlink:href="#BitstreamVeraSerif-Roman-66"/>
      <use x="523.92578125" xlink:href="#BitstreamVeraSerif-Roman-69"/>
      <use x="555.908203125" xlink:href="#BitstreamVeraSerif-Roman-6c"/>
      <use x="587.890625" xlink:href="#BitstreamVeraSerif-Roman-74"/>
      <use x="628.076171875" xlink:href="#BitstreamVeraSerif-Roman-65"/>
      <use x="687.255859375" xlink:href="#BitstreamVeraSerif-Roman-72"/>
      <use x="735.05859375" xlink:href="#BitstreamVeraSerif-Roman-65"/>
      <use x="794.23828125" xlink:href="#BitstreamVeraSerif-Roman-64"/>
     </g>
    </g>
    <g id="patch_48">
     <path d="
M81.7875 96.0028
L101.788 96.0028
L101.788 89.0028
L81.7875 89.0028
z
" style="fill:#ca3335;stroke:#000000;stroke-linejoin:miter;stroke-width:0.3;"/>
    </g>
    <g id="text_24">
     <!-- hNHH filtered -->
     <g style="fill:#262626;" transform="translate(109.7875 96.0028125)scale(0.1 -0.1)">
      <use xlink:href="#BitstreamVeraSerif-Roman-68"/>
      <use x="64.404296875" xlink:href="#BitstreamVeraSerif-Roman-4e"/>
      <use x="151.904296875" xlink:href="#BitstreamVeraSerif-Roman-48"/>
      <use x="239.111328125" xlink:href="#BitstreamVeraSerif-Roman-48"/>
      <use x="326.318359375" xlink:href="#BitstreamVeraSerif-Roman-20"/>
      <use x="358.10546875" xlink:href="#BitstreamVeraSerif-Roman-66"/>
      <use x="395.1171875" xlink:href="#BitstreamVeraSerif-Roman-69"/>
      <use x="427.099609375" xlink:href="#BitstreamVeraSerif-Roman-6c"/>
      <use x="459.08203125" xlink:href="#BitstreamVeraSerif-Roman-74"/>
      <use x="499.267578125" xlink:href="#BitstreamVeraSerif-Roman-65"/>
      <use x="558.447265625" xlink:href="#BitstreamVeraSerif-Roman-72"/>
      <use x="606.25" xlink:href="#BitstreamVeraSerif-Roman-65"/>
      <use x="665.4296875" xlink:href="#BitstreamVeraSerif-Roman-64"/>
     </g>
    </g>
   </g>
  </g>
 </g>
 <defs>
  <clipPath id="p3549ed5471">
   <rect height="282.96" width="451.2825" x="72.7875" y="35.37"/>
  </clipPath>
 </defs>
</svg>
